<svg width="71" height="26" fill="none" xmlns="http://www.w3.org/2000/svg"><path fill-rule="evenodd" clip-rule="evenodd" d="M71 0H0v26h71V0zM1.401 1.502v22.996h68.198V1.502H1.4z" fill="#fff"/><path d="M27.865 8.363L24.44 17.62h1.462l2.457-6.817 1.264 3.52.461 1.308.72 1.989h1.462l-3.413-9.258h-.99zm14.688 9.256l3.424-9.259h-1.462l-2.457 6.818-1.264-3.52-.461-1.308-.72-1.99h-1.462l3.413 9.259h.99zm12.714-9.256l-3.423 9.258h1.461l2.457-6.817 1.265 3.52.46 1.308.72 1.99h1.462l-3.412-9.259h-.99zm-42.142.008v9.258h5.43v-1.308h-4.002v-7.95h-1.428z" fill="#fff"/></svg>