<svg width="52" height="52" fill="none" xmlns="http://www.w3.org/2000/svg"><path d="M39.862 15.072c0-6.04.32-7.313-1.063-7.742-3.127-.974-2.858-.273-2.858-4.573 0-.623-.448-1.35-1.037-1.559-4.536-1.597-13.25-1.597-17.786 0-.576.208-1.037.936-1.037 1.56 0 4.377.192 3.624-2.858 4.572-.59.182-1.063.857-1.063 1.48v6.25c3.78-1.599 8.328-2.872 13.659-3.261 1.307-.091 7.79.623 14.043 3.273zM20.527 3.835c3.306-.584 7.662-.584 10.981 0 1.397.247 1.5 2.183-.013 2.014a49.824 49.824 0 00-10.955 0c-1.5.156-1.41-1.78-.013-2.014zM49.01 43.651c-.384-.39-1.063-.598-1.563-.598-2.601 0-2.102 4.053-7.06 4.053-5.203 0-4.395-4.3-7.33-4.027-1.191.117-1.768 1.04-2.14 1.637-1.896 3.092-7.406 3.3-9.533-.117-1.179-1.87-3.05-2.26-4.638.182-2.025 2.962-7.112 3.248-9.444-.039-.512-.727-1.217-1.715-2.396-1.715-1.063 0-2.268.962-2.332 2.3-.102 2.195 3.665 6.625 9.444 6.625 2.69 0 5.215-.948 7.098-2.65 3.934 3.533 10.251 3.52 14.16 0 8.213 7.365 19.796-2.325 15.734-5.651zm-34.89-.974c2.42-3.833 7.354-4.248 10.186.26.128.155.333.324.577.454V14.176C12.518 15.41 4.715 21.658 1.806 24.438a2.333 2.333 0 00-.41 2.858l9.085 15.952c1 .74 2.832.676 3.64-.571zm36.07-18.239c-2.909-2.767-10.725-9.028-23.077-10.262v29.397c.282-.09.769-.325.935-.584 2.78-4.495 7.855-4.274 10.328-.182.436.727 1.73 1.195 2.998.727l9.239-16.25c.525-.936.359-2.118-.423-2.846z" fill="#5969FF"/></svg>