<svg width="52" height="52" fill="none" xmlns="http://www.w3.org/2000/svg"><path d="M22.176 0c12.247 0 22.176 9.928 22.176 22.176 0 4.503-1.342 8.693-3.649 12.19l9.985 9.986a4.48 4.48 0 01-6.336 6.336l-9.985-9.985a22.073 22.073 0 01-12.191 3.649C9.928 44.352 0 34.423 0 22.176 0 9.928 9.928 0 22.176 0zm0 6.336c-8.748 0-15.84 7.092-15.84 15.84 0 8.748 7.092 15.84 15.84 15.84 8.748 0 15.84-7.092 15.84-15.84 0-8.748-7.092-15.84-15.84-15.84z" fill="#5969FF"/><circle cx="22.167" cy="22.29" fill="#5969FF" r="13.519"/></svg>