<svg width="52" height="50" fill="none" xmlns="http://www.w3.org/2000/svg"><path d="M3.792 48.834h5.416c2.091 0 3.792-1.7 3.792-3.792V20.125c0-2.09-1.7-3.791-3.792-3.791H3.792A3.795 3.795 0 000 20.125v24.917c0 2.091 1.7 3.792 3.792 3.792zM27.692.625c-2.166 0-3.25 1.083-3.25 6.5 0 5.148-4.985 9.29-8.192 11.425v26.841c3.47 1.606 10.413 3.985 21.193 3.985h3.467a8.652 8.652 0 008.536-7.194L51.873 28.1a8.663 8.663 0 00-8.537-10.14H33.11s1.625-3.25 1.625-8.667c0-6.5-4.875-8.667-7.041-8.667z" fill="#5969FF"/></svg>