<svg width="46" height="52" fill="none" xmlns="http://www.w3.org/2000/svg"><path fill-rule="evenodd" clip-rule="evenodd" d="M17.657 1.261a11.95 11.95 0 0110.687 0l12.845 6.42a6.918 6.918 0 013.824 6.19v18.986a11.95 11.95 0 01-5.615 10.133l-12.73 7.958a6.918 6.918 0 01-7.336 0L6.602 42.99A11.95 11.95 0 01.987 32.857V13.87a6.918 6.918 0 013.824-6.189l12.846-6.42zM31.88 22.157a1.885 1.885 0 00-.58-3.13 1.888 1.888 0 00-2.087.463l-8.73 8.73-3.698-3.698a1.887 1.887 0 00-2.666 2.667l5.031 5.031a1.887 1.887 0 002.667 0L31.88 22.157z" fill="#5969FF"/></svg>