<svg width="46" height="52" fill="none" xmlns="http://www.w3.org/2000/svg"><path d="M26.249 3.402v1.73c11.321 1.51 18.729 10.77 19.435 22.286a1.731 1.731 0 01-1.722 1.836H26.25v12.71a9.933 9.933 0 01-8.804 9.99 9.747 9.747 0 01-10.69-9.704 3.249 3.249 0 014.979-2.794 3.054 3.054 0 011.519 2.794 3.25 3.25 0 003.606 3.248 3.346 3.346 0 002.891-3.386V29.254H2.038a1.728 1.728 0 01-1.722-1.836C1.022 15.902 8.438 6.643 19.75 5.132V3.264A3.248 3.248 0 0123.317.015a3.346 3.346 0 012.932 3.387z" fill="#5969FF"/></svg>