<svg width="53" height="52" fill="none" xmlns="http://www.w3.org/2000/svg"><path d="M44.089 36.34l3.025.699.853 3.103 3.026.698.077.077c2.482 2.483 2.56 6.594 0 9.153-2.482 2.483-6.593 2.56-9.153 0l-.078-.077-.698-3.025-3.102-.854-.698-3.025-3.026-.698-.62-2.87-3.103-.853-4.654-4.577 9.153-9.153 4.577 4.654.853 3.103 2.87.62.698 3.026zM23.3 32.695c-2.249 2.327-5.972 2.25-8.221 0L4.995 22.611c-.078 0-.155-.077-.233-.155C-.358 17.336-.28 8.96 4.84 3.84c5.12-5.12 13.497-5.042 18.616.077l.078.078h.077l10.084 10.161c2.327 2.25 2.25 5.973 0 8.223l-1.94 1.939-6.903 6.826-1.551 1.551z" fill="#5969FF"/></svg>