<svg width="52" height="52" fill="none" xmlns="http://www.w3.org/2000/svg"><path d="M48.18 15.602c.022.022.04.045.062.068a691.651 691.651 0 00-11.846-.305 2.389 2.389 0 01-2.336-2.349c-.05-4.054-.123-8.108-.217-12.163-.025-.04 7.605 5.973 14.337 14.749z" fill="#5969FF"/><path d="M2.896 26.02c.01 6.101.344 9.908.915 13.88.39 2.701 1.75 5.313 3.774 7.366 2.023 2.054 4.616 3.442 7.312 3.847l.082.013c3.289.468 4.407.845 11.313.874 6.907-.049 7.436-.406 10.728-.874l.083-.013c2.696-.406 5.287-1.797 7.312-3.847 2.025-2.05 3.384-4.665 3.774-7.365.567-3.973.901-7.78.914-13.882 0-2.974-.087-5.402-.234-7.571a865.627 865.627 0 00-12.438-.236 5.28 5.28 0 01-5.208-5.23c-.034-4.28-.084-8.56-.15-12.839a51.42 51.42 0 00-.868-.05A94.53 94.53 0 0025.682 0c-6.906.05-7.435.406-10.728.875l-.082.013c-2.697.406-5.288 1.797-7.313 3.848C5.534 6.786 4.174 9.4 3.784 12.1l.025.017v.022c-.57 3.973-.904 7.78-.913 13.88zm9.547 10.061a2.341 2.341 0 012.401-2.377c4.24.053 8.481.076 12.722.069a2.419 2.419 0 012.425 2.437 2.46 2.46 0 01-2.437 2.453 539.36 539.36 0 01-12.65-.112 2.539 2.539 0 01-2.46-2.47zm-.08-10.315a2.448 2.448 0 012.448-2.422c7.459-.032 14.917-.032 22.376 0a2.423 2.423 0 012.237 3.348 2.424 2.424 0 01-2.237 1.495c-7.46.026-14.92.026-22.38 0a2.442 2.442 0 01-2.445-2.42z" fill="#5969FF"/></svg>