<svg width="52" height="48" fill="none" xmlns="http://www.w3.org/2000/svg"><path d="M3.182 2.288C5.355 1.015 8.513.167 12.015.167c3.501 0 6.663.848 8.836 2.121 2.173 1.274 3.181 2.825 3.181 4.157 0 1.331-1.008 2.88-3.181 4.154-2.173 1.273-5.335 2.124-8.836 2.124-3.502 0-6.66-.85-8.833-2.124C1.008 9.325 0 7.776 0 6.445s1.008-2.883 3.182-4.157z" fill="#5969FF"/><path d="M0 18.15v-6.31a11.943 11.943 0 002.018 1.484c2.647 1.55 6.144 2.446 9.997 2.446 3.853 0 7.352-.895 9.999-2.446a11.944 11.944 0 002.018-1.485v6.311c0 1.332-1.008 2.88-3.181 4.154-2.173 1.273-5.335 2.121-8.836 2.121-3.502 0-6.66-.848-8.833-2.121C1.008 21.031 0 19.482 0 18.15z" fill="#5969FF"/><path d="M0 23.542a11.938 11.938 0 002.018 1.484c2.647 1.551 6.144 2.446 9.997 2.446 3.853 0 7.352-.895 9.999-2.446a11.935 11.935 0 002.018-1.484v6.325c-.007 1.328-1.016 2.87-3.181 4.14-2.173 1.273-5.335 2.124-8.836 2.124-3.502 0-6.66-.851-8.833-2.125C1.016 32.738.007 31.196 0 29.867v-6.325z" fill="#5969FF"/><path d="M0 41.555v-6.308a11.943 11.943 0 002.018 1.485c2.647 1.55 6.144 2.446 9.997 2.446 3.853 0 7.352-.895 9.999-2.446a11.944 11.944 0 002.018-1.485v6.317c-.006 1.33-1.013 2.877-3.181 4.148-2.173 1.273-5.335 2.121-8.836 2.121-3.502 0-6.66-.848-8.833-2.121C1.008 44.438 0 42.886 0 41.555zm31.15-27.561c2.172-1.274 5.334-2.125 8.835-2.125 3.502 0 6.66.851 8.834 2.125C50.992 15.267 52 16.819 52 18.15c0 1.332-1.008 2.88-3.181 4.154-2.174 1.274-5.332 2.122-8.834 2.122-3.501 0-6.663-.848-8.836-2.122-2.173-1.273-3.181-2.822-3.181-4.154 0-1.331 1.008-2.883 3.181-4.156z" fill="#5969FF"/><path d="M27.968 29.853v-6.311a11.93 11.93 0 002.018 1.485c2.647 1.55 6.146 2.445 10 2.445 3.852 0 7.35-.895 9.995-2.445A11.93 11.93 0 0052 23.542v6.31c0 1.332-1.008 2.881-3.181 4.154-2.174 1.274-5.332 2.125-8.834 2.125-3.501 0-6.663-.851-8.836-2.125-2.173-1.273-3.181-2.822-3.181-4.153z" fill="#5969FF"/><path d="M27.968 41.555v-6.308a11.944 11.944 0 002.018 1.485c2.647 1.55 6.146 2.446 10 2.446 3.852 0 7.35-.895 9.995-2.446A11.944 11.944 0 0052 35.247v6.308c0 1.332-1.008 2.883-3.181 4.157-2.174 1.273-5.332 2.121-8.834 2.121-3.501 0-6.663-.848-8.836-2.121-2.173-1.274-3.181-2.825-3.181-4.157z" fill="#5969FF"/></svg>