<svg width="44" height="52" fill="none" xmlns="http://www.w3.org/2000/svg"><path d="M21.671 25.049c3.441 0 6.421-1.235 8.856-3.67 2.435-2.435 3.669-5.414 3.669-8.855 0-3.44-1.234-6.42-3.67-8.855C28.093 1.234 25.113 0 21.672 0c-3.441 0-6.42 1.234-8.855 3.669-2.435 2.435-3.67 5.414-3.67 8.855 0 3.441 1.235 6.42 3.67 8.856 2.435 2.434 5.415 3.669 8.855 3.669zm21.915 14.936a30.951 30.951 0 00-.421-3.285 25.86 25.86 0 00-.809-3.304A16.318 16.318 0 0041 30.315a11.656 11.656 0 00-2.048-2.669c-.809-.773-1.798-1.395-2.942-1.848-1.14-.451-2.404-.68-3.755-.68-.531 0-1.045.218-2.036.864-.705.459-1.412.914-2.12 1.367-.682.434-1.604.84-2.744 1.209a10.89 10.89 0 01-3.356.542 10.9 10.9 0 01-3.356-.543c-1.139-.367-2.061-.774-2.742-1.208a262.58 262.58 0 01-2.122-1.368c-.99-.645-1.504-.863-2.035-.863-1.352 0-2.615.229-3.755.68-1.144.453-2.133 1.075-2.942 1.849A11.628 11.628 0 003 30.315a16.354 16.354 0 00-1.358 3.081A25.935 25.935 0 00.833 36.7a30.827 30.827 0 00-.421 3.287 44.566 44.566 0 00-.104 3.071c0 2.714.862 4.912 2.564 6.532C4.552 51.19 6.776 52 9.48 52h25.04c2.704 0 4.926-.81 6.607-2.41 1.702-1.62 2.565-3.818 2.565-6.533 0-1.048-.035-2.082-.105-3.072z" fill="#5969FF"/></svg>