<svg width="52" height="52" fill="none" xmlns="http://www.w3.org/2000/svg"><path d="M49.214 17.397h-3.386l-2.185-6.828c-1.147-3.495-4.37-5.844-8.03-5.844H16.277c-3.66 0-6.937 2.349-8.03 5.844l-2.184 6.828H2.676A2.68 2.68 0 000 20.074v1.529a2.68 2.68 0 002.676 2.676h.929a34.516 34.516 0 00-.82 7.484v12.836a2.68 2.68 0 002.677 2.676h4.48a2.68 2.68 0 002.676-2.676v-4.097h26.764V44.6a2.68 2.68 0 002.677 2.676h4.479a2.68 2.68 0 002.676-2.676V31.708c0-2.513-.273-5.025-.819-7.483h.928A2.68 2.68 0 0052 21.548v-1.53c-.11-1.42-1.31-2.62-2.786-2.62zm-38.453 2.731l2.567-7.975c.437-1.31 1.638-2.185 2.95-2.185h19.335c1.366 0 2.568.874 2.95 2.185l2.567 7.975c.11.383-.164.71-.546.71H11.307c-.383.055-.656-.328-.546-.71zm5.57 13.055h-5.407a1.61 1.61 0 01-1.638-1.639v-2.567c0-.983.928-1.803 1.912-1.639l5.025.82a1.7 1.7 0 011.365 1.256l.383 1.748a1.663 1.663 0 01-1.64 2.02zm14.585 2.13a.631.631 0 01-.655.655h-8.685a.631.631 0 01-.656-.655v-1.584c0-.382.273-.655.656-.655h8.74a.63.63 0 01.655.655v1.584h-.055zm11.634-3.769a1.61 1.61 0 01-1.638 1.639h-5.408a1.631 1.631 0 01-1.584-1.967l.383-1.748c.163-.655.655-1.147 1.365-1.256l5.025-.82a1.654 1.654 0 011.912 1.64v2.512h-.055z" fill="#5969FF"/></svg>