<svg width="52" height="52" fill="none" xmlns="http://www.w3.org/2000/svg"><path d="M25.95 0C11.714 0 0 11.714 0 25.95 0 40.185 11.714 51.9 25.95 51.9c14.235 0 25.95-11.715 25.95-25.95C51.883 11.72 40.18.017 25.95 0zM15.149 36.75a1.562 1.562 0 01-1.103 2.67 1.563 1.563 0 01-1.109-.458c-7.126-7.144-7.126-18.88 0-26.025a1.565 1.565 0 012.212 2.212c-5.912 5.931-5.912 15.67 0 21.602zm10.8-12.61c3.396 0 6.16 2.424 6.16 5.406 0 2.506-1.955 4.611-4.593 5.225v1.673c0 .859-.707 1.566-1.566 1.566a1.574 1.574 0 01-1.566-1.566V34.77c-2.638-.626-4.593-2.719-4.593-5.225 0-.859.708-1.566 1.567-1.566.858 0 1.566.707 1.566 1.566 0 1.253 1.384 2.274 3.026 2.274 1.641 0 3.026-1.04 3.026-2.274s-1.385-2.274-3.026-2.274c-3.396 0-6.159-2.431-6.159-5.413 0-2.506 1.955-4.611 4.593-5.225v-1.178c0-.859.707-1.566 1.566-1.566.859 0 1.566.707 1.566 1.566v1.178c2.638.626 4.592 2.719 4.592 5.225 0 .859-.707 1.566-1.566 1.566a1.574 1.574 0 01-1.566-1.566c0-1.253-1.385-2.274-3.026-2.274-1.642 0-3.026 1.04-3.026 2.274s1.384 2.28 3.026 2.28zm13.013 14.822a1.563 1.563 0 01-1.109.458 1.535 1.535 0 01-1.102-.458 1.562 1.562 0 010-2.211c5.912-5.931 5.912-15.67 0-21.602a1.566 1.566 0 01-.399-1.044 1.565 1.565 0 012.61-1.168c7.126 7.144 7.126 18.881 0 26.025z" fill="#5969FF"/></svg>