<svg width="34" height="40" fill="none" xmlns="http://www.w3.org/2000/svg"><path fill-rule="evenodd" clip-rule="evenodd" d="M28.934 40H5.066C2.505 40 .407 38.201.407 36.003V16.326c0-2.095 1.906-3.828 4.303-3.985C3.76 5.772 9.192-.088 17.164.001c7.816.087 13.065 5.83 12.125 12.34 2.398.157 4.304 1.89 4.304 3.986v19.676c0 2.198-2.098 3.997-4.66 3.997zM8.638 12.33h16.72c.888-4.655-2.369-8.863-8.094-9.014-5.948-.156-9.548 4.166-8.626 9.014zm9.864 18.96c1.513-.21 2.27-.866 2.27-1.971v-1.314c0-.403-.16-.769-.472-1.095-.317-.324-1.222-.997-2.72-2.014-.742-.523-1.113-.972-1.113-1.35l-.061-.67c0-.4.187-.602.558-.602.32 0 .479.103.479.31v1.22h3.026V22.7c0-.923-.656-1.498-1.967-1.721v-.705h-3.026v.705c-1.498.216-2.247.852-2.247 1.905v1.16c0 .473.364.992 1.087 1.551 1.52 1.022 2.421 1.662 2.702 1.925.285.26.425.52.425.78v1.224c0 .236-.195.354-.583.354-.404 0-.605-.118-.605-.354V27.83h-3.026v1.675c0 .91.749 1.498 2.247 1.756v.704h3.026v-.675z" fill="#5969FF"/></svg>