<svg width="36" height="40" fill="none" xmlns="http://www.w3.org/2000/svg"><path fill-rule="evenodd" clip-rule="evenodd" d="M22.506 0a2.219 2.219 0 110 4.437h-1.71V5.99c8.372 1.09 14.858 8.268 14.858 16.933 0 9.416-7.66 17.076-17.076 17.076S1.502 32.34 1.502 22.923c0-8.665 6.485-15.842 14.857-16.933V4.437h-1.71a2.219 2.219 0 110-4.437h7.857zm.95 29.022a1.214 1.214 0 00.866-2.073l-4.524-4.526v-8.038c0-.671-.55-1.22-1.22-1.22-.671 0-1.22.549-1.22 1.22v8.538c0 .33.122.634.354.866l4.879 4.879c.244.232.549.354.866.354z" fill="#5969FF"/><path d="M7.198 5.036a2.219 2.219 0 00-3.136-.106L1.05 7.747a2.219 2.219 0 103.03 3.242l3.014-2.817a2.219 2.219 0 00.105-3.136z" fill="#5969FF"/></svg>