<svg width="22" height="22" fill="none" xmlns="http://www.w3.org/2000/svg"><path d="M13.012 11l8.571-8.57A1.416 1.416 0 0022 1.42a1.376 1.376 0 00-.417-1.003A1.375 1.375 0 0020.579 0a1.417 1.417 0 00-1.008.417L11 8.988 2.428.418A1.416 1.416 0 001.421 0 1.375 1.375 0 00.417.417 1.375 1.375 0 000 1.421a1.416 1.416 0 00.417 1.008L8.988 11l-8.57 8.57A1.417 1.417 0 000 20.58a1.375 1.375 0 00.417 1.003A1.376 1.376 0 001.421 22a1.416 1.416 0 001.008-.417L11 13.013l8.57 8.57a1.416 1.416 0 001.01.417 1.425 1.425 0 001.313-1.967 1.416 1.416 0 00-.31-.462L13.013 11z" fill="#5969FF"/></svg>