<svg width="24" height="16" fill="none" xmlns="http://www.w3.org/2000/svg"><path d="M22.203.138H1.797C.805.138 0 .943 0 1.935v12.13c0 .992.805 1.797 1.797 1.797h20.406c.992 0 1.797-.805 1.797-1.797V1.935c0-.992-.805-1.797-1.797-1.797z" fill="#FF4B55"/><path d="M3.985 2.597l.394 1.183 1.247.01a.168.168 0 01.098.302l-1.003.741.376 1.189a.168.168 0 01-.257.187l-1.015-.725-1.014.725a.168.168 0 01-.258-.187l.376-1.189-1.003-.74a.168.168 0 01.098-.304l1.247-.01.395-1.182a.168.168 0 01.319 0zm4.527.291l.283.386.457-.143a.064.064 0 01.071.1l-.28.388.278.39a.064.064 0 01-.073.098l-.455-.146-.286.384a.064.064 0 01-.116-.038L8.39 3.83l-.453-.153a.064.064 0 010-.122l.455-.15.005-.479c0-.061.08-.087.116-.037zM6.79 1.738l.476.052.202-.433a.064.064 0 01.122.014l.098.468.474.06c.062.007.078.088.024.12l-.415.237.09.47a.064.064 0 01-.106.06l-.354-.322-.419.231a.064.064 0 01-.09-.082l.196-.437-.349-.327a.064.064 0 01.051-.11zm.752 4.636l-.283.386-.457-.143a.064.064 0 00-.071.1l.28.387-.277.39a.064.064 0 00.072.1l.455-.147.286.384c.037.05.116.024.116-.038l.002-.478.453-.153a.064.064 0 000-.122l-.454-.15-.006-.479a.064.064 0 00-.116-.037zm1.722-1.08l-.476.051-.202-.433a.064.064 0 00-.122.014l-.098.468-.474.06a.064.064 0 00-.024.12l.415.237-.09.47c-.013.06.06.101.106.06l.354-.322.419.232a.064.064 0 00.09-.083l-.196-.437.349-.326a.064.064 0 00-.051-.111z" fill="#FFE15A"/></svg>