<svg width="24" height="16" fill="none" xmlns="http://www.w3.org/2000/svg"><path d="M22.203.138H1.797C.805.138 0 .943 0 1.935v12.13c0 .992.805 1.797 1.797 1.797h20.406c.992 0 1.797-.805 1.797-1.797V1.935c0-.992-.805-1.797-1.797-1.797z" fill="#F6F6F6"/><path d="M14.298 4.556A4.139 4.139 0 008.56 5.705 2.067 2.067 0 1012 7.999a2.067 2.067 0 113.44 2.294 4.137 4.137 0 00-1.14-5.737z" fill="#FF4B55"/><path d="M8.56 5.705a2.067 2.067 0 103.441 2.294 2.067 2.067 0 113.44 2.294 4.13 4.13 0 01-5.734 1.149A4.138 4.138 0 018.56 5.705z" fill="#41479B"/><path d="M16.402 2.993l.752 1.13a.207.207 0 01-.057.287l-.19.127a.208.208 0 01-.288-.057l-.752-1.13a.207.207 0 01.057-.286l.191-.128a.207.207 0 01.287.057zm1.16 1.742l.754 1.13a.206.206 0 01-.058.287l-.191.126a.207.207 0 01-.286-.057l-.754-1.128a.207.207 0 01.057-.287l.191-.128a.208.208 0 01.287.057zm-.355-2.279l1.914 2.872a.207.207 0 01-.057.287l-.193.128a.207.207 0 01-.287-.057L16.67 2.814a.205.205 0 010-.23.207.207 0 01.057-.057l.193-.128a.207.207 0 01.287.057zm.803-.536l.753 1.132a.206.206 0 01-.058.287l-.192.127a.207.207 0 01-.286-.058l-.754-1.13a.207.207 0 01.058-.288l.192-.128a.207.207 0 01.287.058zm1.16 1.746l.752 1.13a.207.207 0 01-.057.286l-.19.128a.207.207 0 01-.288-.058l-.752-1.13a.207.207 0 01.057-.286l.191-.128a.207.207 0 01.287.058zM6.221 9.78l1.914 2.87a.207.207 0 01-.057.286l-.192.128a.207.207 0 01-.287-.057l-1.914-2.869a.207.207 0 01.058-.287l.191-.128a.207.207 0 01.287.057zm-.803.537l.751 1.127a.207.207 0 01-.057.287l-.19.127a.207.207 0 01-.288-.057l-.752-1.126a.207.207 0 01.057-.287l.192-.128a.207.207 0 01.287.057zm1.16 1.743l.753 1.13a.207.207 0 01-.057.286l-.191.128a.207.207 0 01-.288-.057l-.752-1.13a.207.207 0 01.057-.287l.192-.128a.207.207 0 01.287.058zm-1.964-1.206l1.913 2.869a.207.207 0 01-.057.287l-.191.127a.207.207 0 01-.288-.057l-1.913-2.869a.207.207 0 01.057-.287l.193-.128a.207.207 0 01.286.058zm1.072-4.99l1.913-2.87a.207.207 0 01.287-.058l.192.128a.207.207 0 01.057.286L6.22 6.22a.207.207 0 01-.287.058l-.19-.126a.207.207 0 01-.058-.288zm-.804-.535l1.914-2.872a.207.207 0 01.287-.058l.19.128a.207.207 0 01.058.287L5.418 5.686a.207.207 0 01-.287.057l-.192-.128a.207.207 0 01-.057-.286zm-.804-.534L5.99 1.92a.207.207 0 01.288-.057l.19.128a.207.207 0 01.058.286L4.614 5.152a.207.207 0 01-.287.058l-.192-.128a.207.207 0 01-.057-.287zm11.789 7.854l.752-1.126a.207.207 0 01.287-.057l.19.127a.207.207 0 01.058.287l-.752 1.127a.205.205 0 01-.212.088.207.207 0 01-.075-.03l-.191-.129a.208.208 0 01-.057-.287zm1.16-1.736l.753-1.132a.206.206 0 01.287-.058l.192.128a.208.208 0 01.089.213.207.207 0 01-.031.074l-.755 1.13a.207.207 0 01-.287.058l-.19-.126a.208.208 0 01-.089-.212.206.206 0 01.031-.075zm-.357 2.276l.753-1.13a.207.207 0 01.287-.057l.192.128a.207.207 0 01.057.287l-.752 1.13a.207.207 0 01-.287.057l-.193-.128a.207.207 0 01-.057-.287zm1.161-1.745l.753-1.127a.207.207 0 01.287-.058l.193.129a.204.204 0 01.088.131.207.207 0 01-.031.156l-.753 1.127a.207.207 0 01-.287.057l-.192-.128a.206.206 0 01-.058-.287zm-.357 2.279l.753-1.128a.207.207 0 01.286-.058l.192.127a.207.207 0 01.058.287l-.753 1.13a.207.207 0 01-.287.057l-.192-.128a.208.208 0 01-.088-.213.207.207 0 01.03-.074zm1.161-1.74l.752-1.129a.207.207 0 01.287-.057l.191.127a.207.207 0 01.057.287l-.752 1.128a.207.207 0 01-.287.057l-.19-.126a.206.206 0 01-.058-.287z" fill="#464655"/></svg>