<svg width="22" height="10" fill="none" xmlns="http://www.w3.org/2000/svg"><path fill-rule="evenodd" clip-rule="evenodd" d="M16.157 8.384L5.004 8.36c.12-.728-.06-1.367-.62-1.886-.45-.42-1-.609-1.63-.57-1.252.08-2.181 1.218-1.94 2.388-.077 0-.154.007-.229-.003-.03-.004-.067-.04-.08-.07a2.963 2.963 0 01-.129-.321c-.145-.45-.247-.91-.33-1.373A2.19 2.19 0 010 6.121a1.09 1.09 0 01.474-.916.129.129 0 00.062-.12c0-.292-.011-.585.013-.875.086-1.031.389-1.995 1.02-2.85a2.2 2.2 0 01.43-.443c.093-.07.198-.083.307-.097.516-.07 1.03-.145 1.547-.207.41-.05.821-.089 1.233-.12A71.965 71.965 0 016.908.369 19.055 19.055 0 018.759.351c.45.02.899.048 1.346.087.49.044.973.14 1.45.26.964.24 1.898.566 2.807.957.708.304 1.392.65 2.06 1.03.25.142.518.251.779.375.091.044.186.08.273.13.437.244.924.363 1.398.514.717.228 1.42.488 2.088.829.243.124.479.26.687.433.13.108.25.226.316.38a.45.45 0 01.037.17 6.183 6.183 0 01-.241 1.81l-.007.022a.297.297 0 00-.001.242c.08.215.032.353-.162.465a3.35 3.35 0 01-.73.294c-.187.056-.375.11-.567.166l.05-.362a1.83 1.83 0 00-.08-.824 2 2 0 00-.529-.83 2.113 2.113 0 00-.99-.539 2.165 2.165 0 00-1.585.215 2.022 2.022 0 00-.966 1.145c-.11.323-.137.654-.051.988.006.023.01.046.016.076zM6.237.879h-.061c-.47.026-.94.046-1.409.08-.497.036-.992.088-1.49.127-.15.012-.259.062-.333.199-.2.37-.373.75-.486 1.154-.01.037-.013.075-.02.118 1.345.176 2.689.29 4.034.426L6.237.879zM2.09 3.27c-.306-.274-.69-.371-1.08-.469-.13.345-.215.692-.26 1.056.544.002.997-.164 1.34-.587zm19.725 2.173c-.02-.044-.03-.084-.054-.113-.058-.072-.116-.147-.186-.207-.279-.239-.605-.408-.938-.565a14.883 14.883 0 00-1.763-.68l-.117-.036.01.019c.403.422.85.794 1.36 1.095.342.203.701.37 1.1.447.19.037.38.062.588.04zM17.143 3.88l.002-.012c-.01-.007-.018-.015-.028-.021a29.768 29.768 0 00-1.903-1.14 19.388 19.388 0 00-2.596-1.204c-.664-.246-1.341-.447-2.054-.51A29.088 29.088 0 008.975.882C8.273.858 7.569.862 6.867.854h-.06c0 .026-.003.045 0 .064l.1.852.143 1.182c.01.08.008.078.094.086l.462.041.955.088.833.074.9.077.888.076.919.076.784.066.767.063.772.065.444.036c0-.048-.002-.09 0-.132.006-.134.005-.27.023-.402.022-.164.143-.225.3-.158.188.078.263.234.28.414.01.104-.011.211-.018.325l1.69.133zM1.126 7.98c-.048-.868.682-1.724 1.724-1.766 1.015-.04 1.79.664 1.877 1.58.091.969-.698 1.827-1.726 1.868-1 .04-1.854-.708-1.875-1.682zm.679-.035c0 .574.454 1.021 1.052 1.02.592 0 1.054-.452 1.056-.998.003-.6-.485-1.019-1.056-1.018-.582 0-1.052.445-1.052.996zm14.66-.009c-.022-.843.692-1.682 1.73-1.722 1.019-.04 1.8.678 1.875 1.606.074.933-.684 1.797-1.725 1.842-1 .043-1.882-.713-1.88-1.726zm1.806-.987c-.584-.002-1.054.443-1.057.994-.002.575.472 1.03 1.059 1.024.58-.006 1.054-.45 1.053-.986-.002-.584-.46-1.033-1.055-1.032z" fill="#7D7D7D"/></svg>