<svg width="10" height="15" fill="none" xmlns="http://www.w3.org/2000/svg"><path fill-rule="evenodd" clip-rule="evenodd" d="M3.309 1.376V.322C3.31.1 3.41 0 3.628 0h2.746c.215 0 .315.1.316.316v1.06h.096c.463 0 .927.008 1.39-.002a1.282 1.282 0 011.323 1.292v.06c0 3.64-.001 7.28.001 10.92 0 .406-.126.752-.432 1.027-.224.202-.49.315-.789.32-.449.01-.898.004-1.347.004-1.703 0-3.407-.005-5.111.003-.653.003-1.205-.454-1.303-1.074a1.7 1.7 0 01-.017-.265V2.706c0-.56.246-.972.754-1.218.162-.078.337-.113.518-.112H3.31zM8.278 13.6V2.725c0-.138-.01-.147-.146-.147H1.839c-.139 0-.146.006-.146.145v10.928c0 .138.007.144.147.144h6.24c.197 0 .197 0 .197-.194zm-4.02-7.236v-.113l.001-1.866c0-.189.118-.305.292-.291.09.007.15.057.2.13.571.837 1.144 1.672 1.715 2.508.054.078.106.157.16.234.08.11.094.226.03.346-.064.12-.172.165-.3.166-.208.002-.415 0-.633 0V9.45c0 .12-.031.22-.149.276a.263.263 0 01-.3-.055.586.586 0 01-.054-.067c-.619-.904-1.235-1.81-1.858-2.712-.126-.183-.077-.381.048-.456a.516.516 0 01.234-.068c.2-.009.402-.003.615-.003zm3.107 6.722H2.626c-.158 0-.204-.045-.204-.204v-1.505c0-.162.04-.203.203-.203h4.73c.17 0 .222.051.222.22v1.478c0 .171-.043.214-.212.214z" fill="#7D7D7D"/></svg>