<svg width="22" height="14" fill="none" xmlns="http://www.w3.org/2000/svg"><path fill-rule="evenodd" clip-rule="evenodd" d="M2.835 11.218c.044-.911.442-1.605 1.28-2.005.534-.256 1.091-.255 1.645-.045.388.147.7.397.945.732.233.317.365.673.406 1.064a2.18 2.18 0 01-.524 1.71 2.06 2.06 0 01-1.31.721c-1.082.156-2.084-.551-2.361-1.589a2.218 2.218 0 01-.08-.588zm2.146-1.201a1.2 1.2 0 10.002 2.399 1.2 1.2 0 00-.002-2.4zm8.835 1.2c.044-.91.442-1.604 1.278-2.004.536-.256 1.093-.255 1.646-.045.388.147.7.397.946.732.232.317.365.673.406 1.064a2.18 2.18 0 01-.524 1.71 2.061 2.061 0 01-1.31.721c-1.082.156-2.084-.551-2.362-1.589a2.212 2.212 0 01-.08-.588zm2.145-1.2a1.2 1.2 0 10.003 2.399 1.2 1.2 0 00-.003-2.4zM22 9.796c-.039.146-.066.283-.112.414-.118.33-.314.606-.609.804-.203.136-.43.2-.673.2-.633.002-1.267 0-1.9 0-.01 0-.02 0-.035-.002-.03-.925-.409-1.669-1.159-2.21a2.6 2.6 0 00-1.703-.495 2.732 2.732 0 00-2.565 2.703h-5.56c-.03-.929-.412-1.675-1.17-2.217a2.58 2.58 0 00-1.68-.486 2.634 2.634 0 00-1.822.843 2.652 2.652 0 00-.75 1.858c-.012.003-.022.007-.032.007-.302-.002-.604 0-.905-.005a1.156 1.156 0 01-.707-.271 1.516 1.516 0 01-.575-1.025A7.425 7.425 0 010 8.973c0-.565.001-1.131.03-1.696A32.455 32.455 0 01.44 3.62c.101-.586.238-1.167.358-1.751.058-.28.164-.54.345-.765.221-.274.497-.454.849-.506.075-.01.152-.011.228-.011 4.811 0 9.623 0 14.434-.003.492 0 .873.195 1.165.58.859 1.131 1.716 2.263 2.573 3.395.394.52.787 1.041 1.184 1.56.256.333.385.708.388 1.128V7.7h-.08c-.485 0-.97-.002-1.454 0a.693.693 0 00-.672.554.89.89 0 00-.017.165c-.002.221-.003.442 0 .663a.698.698 0 00.73.718l1.441-.001H22zm-11.073-6.22c0-.407-.006-.816.002-1.224a.666.666 0 00-.663-.668c-.803.01-1.606.003-2.41.003-.044 0-.09 0-.133.009a.645.645 0 00-.53.648v2.469a.65.65 0 00.674.66c.795-.005 1.59-.001 2.385-.002a.637.637 0 00.675-.638V3.579zm5.01 1.875h2.589a.658.658 0 00.397-.113.668.668 0 00.138-.945c-.611-.819-1.222-1.638-1.836-2.456a.655.655 0 00-.543-.275 896.594 896.594 0 00-3.353 0 .64.64 0 00-.643.653l.001 2.482a.652.652 0 00.662.654h2.588zM4.447 1.688h-1.21a.646.646 0 00-.66.663l.001 2.455a.653.653 0 00.674.668c.788-.005 1.576-.001 2.365-.002a.636.636 0 00.528-.235.716.716 0 00.163-.466c.01-.808.005-1.616.004-2.424 0-.042 0-.086-.008-.127a.645.645 0 00-.646-.532h-1.21zm9.105 5.131c.109 0 .217.003.325 0 .13-.004.225-.101.224-.222 0-.122-.09-.214-.22-.216-.22-.003-.441-.003-.662.002a.25.25 0 00-.133.048.206.206 0 00-.069.24.22.22 0 00.21.148c.109.002.217 0 .325 0z" fill="#7D7D7D"/></svg>