<svg width="22" height="8" fill="none" xmlns="http://www.w3.org/2000/svg"><path fill-rule="evenodd" clip-rule="evenodd" d="M7.043 6.946c.034-.143.077-.28.096-.42.124-.902-.136-1.68-.774-2.326a2.775 2.775 0 00-1.622-.807c-.785-.111-1.517.042-2.171.502a2.68 2.68 0 00-1.113 1.673c-.096.439-.076.878.058 1.31l.015.052c.002.004 0 .008 0 .027-.124-.023-.25-.039-.37-.072a1.555 1.555 0 01-.877-.594 1.48 1.48 0 01-.263-.694 2.99 2.99 0 01.169-1.393c.078-.22.143-.444.163-.68a1.83 1.83 0 00-.093-.727C.227 2.692.185 2.59.156 2.484a.471.471 0 01-.016-.186c.026-.174.237-.338.43-.339.323-.001.645-.005.966.001.29.006.557-.072.79-.232C3.12 1.186 4 .851 4.919.605 5.55.435 6.19.319 6.838.233 7.698.118 8.56.07 9.426.07c.597 0 1.193.037 1.786.104.584.067 1.136.237 1.678.457a21.421 21.421 0 012.624 1.298c.22.128.465.17.712.2.943.115 1.875.292 2.794.534.685.18 1.366.37 2.048.556.238.065.444.18.595.383.092.124.133.269.174.413.11.392.175.791.161 1.2a2.785 2.785 0 01-.295 1.193c-.179.347-.478.526-.868.538-.246.008-.493.002-.744.002.026-.101.055-.196.075-.293a2.582 2.582 0 00-.179-1.634c-.388-.842-1.052-1.36-1.943-1.578a2.889 2.889 0 00-1.917.17c-.85.383-1.404 1.027-1.611 1.945a2.49 2.49 0 00.07 1.374c.002.003 0 .008-.001.014H7.043zm7.634-4.42l-.017-.011c-.462-.24-.92-.487-1.388-.716a7.911 7.911 0 00-1.793-.644A7.703 7.703 0 009.866.992c-.24-.002-.48 0-.726 0l.367 1.665h4.584c.091 0 .183 0 .274-.003a.276.276 0 00.1-.02c.07-.032.139-.07.212-.107zM4.7 1.61l.019.029c.196.29.435.543.668.802a.24.24 0 00.17.084c.062.002.123.008.184.011.478.024.956.049 1.433.07.403.018.806.031 1.21.046.066.002.133 0 .204 0l-.364-1.607c-.635-.054-2.83.297-3.524.565zm12.742 2.291c.626.01 1.126.184 1.54.566a1.9 1.9 0 01.62 1.181 1.9 1.9 0 01-.456 1.538 2.07 2.07 0 01-1.31.717 2.14 2.14 0 01-1.305-.2c-.582-.293-.973-.753-1.1-1.398-.144-.734.082-1.357.635-1.86a2.076 2.076 0 011.004-.5c.143-.029.29-.035.372-.044zm-.022.862c-.063.007-.128.011-.193.02-.534.068-1.025.523-1.038 1.12-.008.4.148.722.463.961a1.283 1.283 0 001.626-.077c.369-.333.492-.898.266-1.339-.233-.455-.622-.663-1.124-.685zM2.27 5.953c.012-.613.23-1.1.657-1.489.487-.442 1.065-.613 1.713-.546.474.048.893.234 1.24.561.34.323.556.717.607 1.187.085.772-.202 1.39-.817 1.849-.474.352-1.015.47-1.6.389a2.101 2.101 0 01-1.3-.688 1.885 1.885 0 01-.473-.994c-.016-.1-.02-.203-.027-.268zm2.008-1.187c-.039.004-.108.007-.176.017-.35.053-.633.225-.832.515a1.14 1.14 0 00.184 1.501c.55.501 1.46.4 1.881-.214.222-.322.273-.673.135-1.039-.182-.48-.635-.777-1.192-.78z" fill="#7D7D7D"/></svg>