<svg width="22" height="12" fill="none" xmlns="http://www.w3.org/2000/svg"><path fill-rule="evenodd" clip-rule="evenodd" d="M.38 8.632c-.065-.077-.123-.14-.136-.229C.24 8.38.227 8.358.216 8.335a2.07 2.07 0 01-.213-1.023c.015-.306.097-.598.23-.874.074-.156.157-.308.23-.464.019-.038.02-.086.024-.13a11.94 11.94 0 011.21-4.137 1.14 1.14 0 01.884-.633 31.317 31.317 0 014.776-.34 45.38 45.38 0 013.234.13c.37.027.738.068 1.107.105.285.028.57.058.855.09a.87.87 0 01.407.154c1.098.767 2.197 1.534 3.293 2.305.108.076.217.11.346.11 1.115.002 2.195.209 3.248.567.233.08.466.162.687.267.208.1.37.263.499.457.29.436.552.885.738 1.375.142.378.24.764.228 1.173a1.97 1.97 0 01-.321 1.018c-.1.157-.251.264-.408.386v-.112a3.285 3.285 0 00-.12-1.028c-.347-1.145-1.08-1.918-2.233-2.268a2.897 2.897 0 00-1.111-.104c-.843.076-1.543.442-2.104 1.068a3.21 3.21 0 00-.817 1.82c-.03.26-.04.52 0 .78.004.023.01.046.014.075H6.76c.009-.066.021-.133.025-.2.066-1.045-.26-1.943-1.01-2.676a2.987 2.987 0 00-1.736-.847c-1.062-.138-1.968.19-2.711.96A3.325 3.325 0 00.46 7.986c-.037.175-.048.355-.07.532-.005.032-.006.064-.01.113zm14.28-5.105l-.061-.045-2.101-1.442a.2.2 0 00-.09-.029c-.233-.024-.466-.045-.699-.067-.27-.027-.538-.055-.808-.079-.304-.026-.609-.047-.913-.07-.13-.01-.26-.016-.393-.024.003.019.004.033.007.046l.115.538.23 1.081c.008.038.023.054.06.05.014-.002.029 0 .043 0l4.552.046c.015 0 .03-.002.058-.005zM4.133 1.82c0 .229-.003.453.001.676.005.229.025.455.088.676.035.125.1.224.236.254.043.01.088.014.133.014l4.343.043h.06l-.366-1.76a45.748 45.748 0 00-4.495.097zM15.51 8.685c.027-.947.373-1.682 1.098-2.215a2.366 2.366 0 011.603-.467c.711.05 1.299.357 1.761.899.427.5.638 1.082.634 1.74a2.602 2.602 0 01-.82 1.916c-.408.396-.9.633-1.47.689a2.413 2.413 0 01-1.893-.613 2.59 2.59 0 01-.856-1.493c-.033-.167-.043-.339-.057-.456zm3.978.014c-.009-.475-.165-.85-.491-1.147a1.38 1.38 0 00-1.72-.116c-.426.296-.633.716-.638 1.228-.003.385.132.727.394 1.018.432.479 1.192.595 1.741.255.471-.293.693-.727.714-1.238zM6.253 8.605c-.009.706-.234 1.306-.691 1.815a2.455 2.455 0 01-1.455.809 2.36 2.36 0 01-1.718-.353 2.575 2.575 0 01-1.19-1.805 2.601 2.601 0 01.528-2.098 2.4 2.4 0 011.547-.935c.925-.15 1.696.149 2.32.84a2.594 2.594 0 01.639 1.426l.02.301zm-1.122.017c-.006-.056-.01-.15-.027-.242a1.865 1.865 0 00-.077-.263 1.413 1.413 0 00-1.592-.9 1.45 1.45 0 00-1.147 1.316c-.033.43.09.81.38 1.137.358.405.969.57 1.476.393.6-.212.99-.766.987-1.44z" fill="#7D7D7D"/></svg>