<svg width="894" height="894" fill="none" xmlns="http://www.w3.org/2000/svg"><path fill-rule="evenodd" clip-rule="evenodd" d="M387.47 255.448c18.667-5.77 38.498-8.876 59.047-8.876 37.259 0 72.151 10.213 102.027 27.99l-13.072 20.741c-25.956-15.281-56.199-24.045-88.472-24.045-18.175 0-35.706 2.78-52.192 7.938l-7.338-23.748zm149.545 340.403c50.776-30.593 84.764-86.266 84.764-149.815 0-38.098-12.216-73.365-32.941-102.095l18.728-15.882c24.445 33.164 38.898 74.137 38.898 118.458 0 72.477-38.642 135.997-96.432 171.064l-13.017-21.73zM278.629 493.055c6.548 23.47 17.879 44.952 32.869 63.335l-19.761 16.653c-17.418-21.277-30.541-46.207-38.034-73.456l24.926-6.532z" fill="#EBEBEB"/><circle cx="447" cy="447" r="323" stroke="#EBEBEB" stroke-width="8"/><path fill-rule="evenodd" clip-rule="evenodd" d="M152.536 496.581a299.8 299.8 0 01-4.198-50.104c0-123.904 75.707-230.269 183.347-275.315l39.706 89.557c-73.103 29.754-124.692 101.538-124.692 185.276 0 11.845 1.032 23.449 3.011 34.728l-97.174 15.858zm424.77 218.1c-39.468 19.28-83.811 30.105-130.66 30.105-83.918 0-159.79-34.729-214.016-90.584l71.536-67.985c36.278 36.858 86.73 59.724 142.48 59.724 30.732 0 59.855-6.948 85.879-19.358l44.781 88.098z" fill="#EBEBEB"/><path d="M446.646 621.257c96.529 0 174.78-78.252 174.78-174.78 0-96.529-78.251-174.78-174.78-174.78-96.528 0-174.78 78.251-174.78 174.78 0 96.528 78.252 174.78 174.78 174.78z" stroke="#EBEBEB" stroke-width="8" stroke-miterlimit="1.5" stroke-linecap="round" stroke-linejoin="round"/><path fill-rule="evenodd" clip-rule="evenodd" d="M367.622 190.804c24.982-7.722 51.521-11.881 79.024-11.881 49.973 0 96.763 13.73 136.803 37.619l-22.044 32.454c-33.729-19.657-72.94-30.92-114.759-30.92-23.067 0-45.34 3.426-66.338 9.799l-12.686-37.071zm197.193 451.127c66.056-40.048 110.232-112.633 110.232-195.454 0-51.331-16.97-98.731-45.601-136.889l31.837-22.795c33.235 44.584 52.917 99.854 52.917 159.684 0 96.838-51.558 181.729-128.698 228.696l-20.687-33.242z" fill="#EBEBEB"/><path fill-rule="evenodd" clip-rule="evenodd" d="M239.15 615.059c-23.98-28.352-42.032-61.876-52.238-98.648l41.693-9.624c8.014 30.852 22.028 59.293 40.721 84.005l-30.176 24.267z" fill="#E6E6E6"/><path fill-rule="evenodd" clip-rule="evenodd" d="M596.62 308.703a205.091 205.091 0 00-31.857-28.148l54.557-70.077a294.421 294.421 0 0145.24 41.029l-67.94 57.196z" fill="#EBEBEB"/></svg>