<svg width="24" height="25" fill="none" xmlns="http://www.w3.org/2000/svg"><path d="M21.62 20.735A2.32 2.32 0 0119.94 20l-8.2-8.66-1.875 1.88.145.145a1.026 1.026 0 11-1.45 1.455l-4.5-4.495c-.4-.405-.4-1.055 0-1.455.205-.2.465-.3.73-.3.26-.005.52.095.725.3l.145.145L12.28 2.4l-.145-.145a1.023 1.023 0 010-1.455c.2-.2.46-.3.725-.3.26-.005.52.095.725.3l4.495 4.495a1.026 1.026 0 11-1.45 1.455l-.15-.15-1.875 1.88 8.65 8.2c.47.435.735 1.03.745 1.67.01.645-.23 1.245-.685 1.7a2.326 2.326 0 01-1.678.687l-.017-.002zm-6.07 3.46H.5a.501.501 0 01-.5-.5c0-.275.225-.5.5-.5h.915v-.445c0-.96.78-1.74 1.74-1.74h.06v-1.445c0-.961.779-1.74 1.74-1.74h6.13c.965 0 1.745.78 1.745 1.74v1.445h.06c.965 0 1.745.78 1.745 1.74v.445h.915c.275 0 .5.225.5.5s-.225.5-.5.5z" fill="#fff"/></svg>