<svg width="15" height="12" fill="none" xmlns="http://www.w3.org/2000/svg"><path d="M7.844 6.858V5.155a1.703 1.703 0 011.703-1.703h3.974c.194-.001.387.034.568.102V2.317A1.703 1.703 0 0012.386.614H2.166A1.703 1.703 0 00.465 2.317v7.38A1.703 1.703 0 002.167 11.4h10.219a1.703 1.703 0 001.703-1.703V8.46a1.573 1.573 0 01-.568.103H9.547a1.703 1.703 0 01-1.703-1.704z" fill="#5969FF"/><path fill-rule="evenodd" clip-rule="evenodd" d="M9.547 4.588h3.974a.568.568 0 01.568.567v1.703a.568.568 0 01-.568.568H9.547a.568.568 0 01-.568-.568V5.155a.568.568 0 01.568-.567zm.946 2.127a.852.852 0 10.947-1.416.852.852 0 00-.947 1.416z" fill="#5969FF"/></svg>