<svg width="28" height="27" fill="none" xmlns="http://www.w3.org/2000/svg"><path d="M14.743 2.17h-.006C8.62 2.17 3.646 7.146 3.646 13.265c0 2.427.782 4.676 2.112 6.502L4.375 23.89l4.264-1.363a10.999 10.999 0 006.104 1.833c6.117 0 11.091-4.977 11.091-11.094 0-6.117-4.974-11.095-11.091-11.095zm6.455 15.667c-.268.756-1.33 1.383-2.177 1.566-.58.123-1.337.222-3.886-.835-3.26-1.351-5.36-4.664-5.524-4.879-.156-.215-1.317-1.754-1.317-3.346s.809-2.367 1.134-2.7c.268-.274.71-.398 1.135-.398.137 0 .26.007.371.012.326.014.49.033.705.548.268.645.92 2.237.997 2.4.08.164.158.386.047.6-.104.223-.195.321-.359.51-.164.189-.319.333-.483.535-.15.176-.318.365-.13.69.189.32.84 1.383 1.8 2.238 1.239 1.102 2.243 1.454 2.602 1.604.267.111.586.085.782-.123.248-.268.555-.712.867-1.149.221-.313.502-.352.796-.24.3.103 1.884.887 2.21 1.049.326.164.541.241.62.379.078.137.078.782-.19 1.539z" fill="#5969FF"/></svg>