<svg width="21" height="22" fill="none" xmlns="http://www.w3.org/2000/svg"><path d="M12.16 4a4.334 4.334 0 118.67 0c0 2.38-1.94 4.33-4.33 4.33S12.16 6.38 12.16 4zM3.5-.34C1.11-.34-.84 1.6-.84 4c0 2.38 1.95 4.33 4.34 4.33 2.39 0 4.33-1.95 4.33-4.33 0-2.4-1.94-4.34-4.33-4.34zm13 13c-2.39 0-4.34 1.94-4.34 4.34 0 2.38 1.95 4.33 4.34 4.33 2.39 0 4.33-1.95 4.33-4.33 0-2.4-1.94-4.34-4.33-4.34zm-13 0C1.11 12.66-.84 14.6-.84 17c0 2.38 1.95 4.33 4.34 4.33 2.39 0 4.33-1.95 4.33-4.33 0-2.4-1.94-4.34-4.33-4.34z" fill="#5969FF"/></svg>