<svg width="25" height="25" fill="none" xmlns="http://www.w3.org/2000/svg"><path d="M12.803.224h-.006C6.19.224.817 5.598.817 12.206c0 2.62.846 5.05 2.282 7.023l-1.493 4.45 4.605-1.471a11.878 11.878 0 006.592 1.98c6.606 0 11.979-5.376 11.979-11.982 0-6.607-5.373-11.982-11.98-11.982zm6.972 16.92c-.29.816-1.437 1.493-2.352 1.69-.626.134-1.444.24-4.196-.9-3.522-1.46-5.79-5.038-5.966-5.27-.17-.232-1.423-1.894-1.423-3.614s.873-2.557 1.225-2.916c.29-.295.767-.43 1.226-.43.148 0 .281.008.4.014.353.015.53.036.762.591.289.697.993 2.416 1.077 2.593.085.177.17.416.05.648-.112.24-.21.346-.387.55-.177.204-.345.36-.522.578-.161.19-.344.394-.14.746.203.345.907 1.493 1.944 2.416 1.337 1.19 2.421 1.57 2.81 1.733.289.12.633.091.844-.134.268-.289.6-.768.936-1.24.24-.338.542-.38.86-.26.324.112 2.035.958 2.387 1.133.352.177.584.261.67.41.084.148.084.844-.205 1.662z" fill="#fff"/></svg>