<svg width="76" height="76" fill="none" xmlns="http://www.w3.org/2000/svg"><rect width="76" height="76" rx="38" fill="#5969FF"/><path fill-rule="evenodd" clip-rule="evenodd" d="M48.038 26.017a1.943 1.943 0 100 3.886 1.943 1.943 0 000-3.886zm0 2.59a.648.648 0 110-1.295.648.648 0 010 1.296z" fill="#fff"/><path fill-rule="evenodd" clip-rule="evenodd" d="M52.522 27.313c.032.214.05.43.052.647-.002.217-.02.433-.052.648h2.287a6.797 6.797 0 01-3.174 5.114l-1.014-2.037a4.567 4.567 0 01-1.16.58L50.48 34.3a6.696 6.696 0 01-4.878 0l1.017-2.037a4.567 4.567 0 01-1.16-.58l-1.013 2.038a6.798 6.798 0 01-3.174-5.114h2.287a4.762 4.762 0 01-.052-.648c.002-.217.02-.433.052-.648H41.27a6.798 6.798 0 013.174-5.113l1.014 2.037a4.574 4.574 0 011.16-.58L45.6 21.62a6.697 6.697 0 014.878 0l-1.017 2.037c.412.137.802.332 1.16.58l1.013-2.037a6.798 6.798 0 013.174 5.113h-2.287zm-6.281 3.34a3.238 3.238 0 103.598-5.385 3.238 3.238 0 00-3.598 5.385z" fill="#fff"/><path fill-rule="evenodd" clip-rule="evenodd" d="M48.038 17.273A10.687 10.687 0 1058.727 27.96a10.698 10.698 0 00-10.688-10.687zm0 18.784a8.097 8.097 0 118.097-8.097 8.104 8.104 0 01-8.096 8.097zM35.55 47.104h-.583a8.032 8.032 0 00-.99-2.387l.414-.411a1.154 1.154 0 000-1.63l-1.069-1.068a1.154 1.154 0 00-1.629 0l-.411.414a8.243 8.243 0 00-2.387-.99v-.584a1.153 1.153 0 00-1.153-1.153h-1.51a1.154 1.154 0 00-1.152 1.153v.583a8.242 8.242 0 00-2.387.991l-.415-.414a1.147 1.147 0 00-1.625 0l-1.07 1.069a1.148 1.148 0 000 1.625l.415.415a8.032 8.032 0 00-.99 2.387h-.584a1.156 1.156 0 00-1.152 1.153v1.509a1.156 1.156 0 001.152 1.153h.583c.2.844.534 1.65.991 2.387l-.414.411a1.154 1.154 0 000 1.63l1.069 1.068a1.152 1.152 0 001.629 0l.411-.415a8.24 8.24 0 002.387.991v.583a1.154 1.154 0 001.153 1.153h1.509a1.154 1.154 0 001.153-1.153v-.583a8.24 8.24 0 002.387-.99l.414.414a1.146 1.146 0 001.626 0l1.069-1.069a1.15 1.15 0 000-1.626l-.415-.414a8.033 8.033 0 00.991-2.387h.583a1.156 1.156 0 001.153-1.153v-1.51a1.156 1.156 0 00-1.153-1.152zm-8.563 5.47a3.563 3.563 0 110-7.125 3.563 3.563 0 010 7.125z" fill="#fff"/><path fill-rule="evenodd" clip-rule="evenodd" d="M34.696 32.294l9.434 9.049a4.728 4.728 0 014.363 1.27 4.876 4.876 0 011.483 3.685 5.197 5.197 0 01-1.878 3.792 5.135 5.135 0 01-3.287 1.195 4.842 4.842 0 01-3.096-1.091 4.702 4.702 0 01-1.736-4.557l-9.431-9.052a4.527 4.527 0 01-4.279-1.185 4.796 4.796 0 01-1.395-4.716.652.652 0 011.072-.304l2.053 1.94a1.128 1.128 0 001.386.01l1.03-1.063a1.076 1.076 0 00-.058-1.37l-2.05-1.94a.657.657 0 01.259-1.088 4.834 4.834 0 014.78 1.212 4.484 4.484 0 011.35 4.213zm9.48 16.047l1.745-.032 1.215-1.253-.032-1.74-1.26-1.208-1.746.033-1.214 1.253.032 1.74 1.26 1.207z" fill="#fff"/></svg>