<svg width="76" height="76" fill="none" xmlns="http://www.w3.org/2000/svg"><rect width="76" height="76" rx="38" fill="#5969FF"/><path fill-rule="evenodd" clip-rule="evenodd" d="M53.297 23.524h.926a2.81 2.81 0 011.963.795c.52.509.813 1.2.813 1.92v8.142c0 .72-.293 1.41-.813 1.92a2.811 2.811 0 01-1.963.794h-.925a.936.936 0 01-.655-.265.894.894 0 01-.27-.64v-2.714h-2.777v2.715c0 .48-.195.94-.542 1.279a1.87 1.87 0 01-1.309.53h-7.633c-.447 0-.88-.16-1.217-.448l-2.547-2.178a1.813 1.813 0 01-.466-.614 1.776 1.776 0 01-.166-.748v-2.345h-1.85v2.714c0 .24-.098.47-.271.64a.936.936 0 01-.655.265h-.925a.936.936 0 01-.654-.265.895.895 0 01-.271-.64v-8.143c0-.24.097-.47.27-.64a.936.936 0 01.655-.265h.925a.94.94 0 01.655.265c.173.17.27.4.27.64v2.714h1.851v-3.619c0-.48.195-.94.542-1.28.347-.338.818-.53 1.309-.53h3.701v-1.809h-3.701a.936.936 0 01-.654-.265.895.895 0 01-.271-.64v-.904c0-.24.097-.47.27-.64a.936.936 0 01.655-.265h10.178c.246 0 .481.095.655.265.173.17.27.4.27.64v.904c0 .24-.097.47-.27.64a.936.936 0 01-.654.265h-3.702v1.81h3.702c.49 0 .961.19 1.308.53.347.34.542.8.542 1.28v1.809h2.776v-2.714c0-.24.098-.47.271-.64a.936.936 0 01.654-.265zM43.89 33.978l1.85-2.714a.89.89 0 00-.294-1.278.942.942 0 00-.476-.129h-1.85v-2.714s-.487-.014-.77.403l-1.85 2.715a.89.89 0 00.294 1.277.941.941 0 00.475.129h1.85v2.714s.487.014.77-.403zm5.747 13.599c1.713.11 3.844.247 5.627.85 2.297.777 3.462 2.162 3.462 4.117v4.04c0 .395-.32.714-.715.714h-4.18a.714.714 0 01-.69-.532 3.376 3.376 0 00-3.264-2.508 3.382 3.382 0 00-3.266 2.51.714.714 0 01-.69.53H29.276a.714.714 0 01-.69-.532 3.376 3.376 0 00-6.527 0 .714.714 0 01-.69.532h-3.384a.715.715 0 01-.713-.714v-5.566a2.698 2.698 0 011.717-2.5c2.31-.838 3.13-2.462 3.996-4.182l.003-.006c1.084-2.157 2.315-4.603 6.753-4.603h11.57c2.486 0 4.82 3.782 7.002 7.753.376.037.822.066 1.32.097h.004zm-18.893 3.924h1.679a.715.715 0 000-1.428h-1.68a.714.714 0 000 1.428zm4.066-2.757c.394 0 .713-.32.713-.714v-5.2a.713.713 0 00-.714-.713h-5.068c-3.131 0-3.855 1.643-4.62 3.384l-.03.069c-.083.187-.168.38-.258.574a10.664 10.664 0 01-.829 1.487.715.715 0 00.592 1.112H34.81zm4.889 2.757h1.679a.714.714 0 000-1.428h-1.68a.715.715 0 000 1.428zm5.728-2.852a.716.716 0 00.265-.97c-1.862-3.295-3.276-5.15-4.2-5.512a.719.719 0 00-.26-.05h-3.663a.713.713 0 00-.713.715v5.198c0 .394.319.714.713.714h7.502a.715.715 0 00.356-.095z" fill="#fff"/></svg>