<svg width="76" height="76" fill="none" xmlns="http://www.w3.org/2000/svg"><rect width="76" height="76" rx="38" fill="#5969FF"/><path d="M24.308 29.846l6.908 6.908a10.808 10.808 0 015.57-2.306v-9.777a20.53 20.53 0 00-12.478 5.175zm-1.717 1.717C19.345 35.21 17.273 40 17.273 45.256c0 .671.544 1.214 1.215 1.214h7.368c.671 0 1.214-.543 1.214-1.214 0-2.576.933-4.915 2.429-6.785l-6.908-6.908zm24.794 4.196a1.21 1.21 0 00-1.455-.11l-10.54 6.724a4.84 4.84 0 00-2.247 4.097A4.863 4.863 0 0038 51.328a4.872 4.872 0 004.405-2.81l5.279-11.333a1.215 1.215 0 00-.3-1.426zm6.026-4.196l-3.57 3.57c.45.96.509 2.082.045 3.078l-1.597 3.428a10.54 10.54 0 01.642 3.617c0 .671.543 1.214 1.215 1.214h7.367c.672 0 1.215-.543 1.215-1.214 0-5.256-2.071-10.045-5.317-13.693zM39.215 24.67v9.777c1.023.115 1.997.373 2.911.746l2.499-1.593c1-.65 2.224-.788 3.498-.185l3.57-3.57a20.53 20.53 0 00-12.478-5.175z" fill="#fff"/></svg>