<svg width="42" height="28" fill="none" xmlns="http://www.w3.org/2000/svg"><path d="M38.66.205H3.13A3.13 3.13 0 000 3.335v21.12a3.13 3.13 0 003.13 3.13h35.53a3.13 3.13 0 003.13-3.13V3.335a3.13 3.13 0 00-3.13-3.13z" fill="#FF4B55"/><path d="M6.938 4.487l.687 2.06 2.171.016c.281.002.398.36.172.528L8.22 8.38l.655 2.07a.293.293 0 01-.449.326L6.661 9.514l-1.767 1.263a.293.293 0 01-.449-.326L5.1 8.38 3.354 7.09a.293.293 0 01.171-.528l2.171-.017.687-2.06a.293.293 0 01.555 0zm7.884.507l.493.672.795-.249a.112.112 0 01.124.173l-.486.676.482.679a.112.112 0 01-.126.172l-.793-.254-.497.668a.112.112 0 01-.203-.066l-.003-.833-.79-.267a.112.112 0 01.001-.212l.791-.261.01-.833c0-.108.139-.152.202-.065zm-2.999-2.002l.828.09.354-.754a.112.112 0 01.211.024l.17.815.827.103a.112.112 0 01.042.21l-.723.413.158.818a.112.112 0 01-.186.104l-.617-.56-.73.403a.112.112 0 01-.156-.144l.342-.76-.609-.569a.112.112 0 01.09-.193zm1.31 8.072l-.493.671-.795-.248a.112.112 0 00-.125.172l.487.676-.482.68a.112.112 0 00.126.171l.793-.254.497.669a.112.112 0 00.202-.067l.004-.833.789-.266a.112.112 0 000-.213l-.792-.26-.009-.833a.112.112 0 00-.203-.065zm2.998-1.882l-.828.09-.353-.754a.112.112 0 00-.212.025l-.17.815-.826.103a.112.112 0 00-.042.208l.722.414-.157.818a.112.112 0 00.185.104l.617-.56.73.403c.094.053.2-.046.156-.144l-.341-.76.608-.569a.112.112 0 00-.089-.193z" fill="#FFE15A"/></svg>