<svg width="42" height="28" fill="none" xmlns="http://www.w3.org/2000/svg"><path d="M38.773.205H3.242a3.13 3.13 0 00-3.13 3.13v21.12a3.13 3.13 0 003.13 3.13h35.53a3.13 3.13 0 003.13-3.13V3.335a3.13 3.13 0 00-3.13-3.13z" fill="#F5F5F5"/><path d="M25.09 7.899c-3.31-2.208-7.782-1.305-9.988 2a3.6 3.6 0 105.99 3.995 3.6 3.6 0 115.99 3.995 7.204 7.204 0 00-1.992-9.99z" fill="#FF4B55"/><path d="M15.101 9.899a3.6 3.6 0 105.991 3.995 3.6 3.6 0 115.99 3.995 7.193 7.193 0 01-9.985 2 7.205 7.205 0 01-1.996-9.99z" fill="#41479B"/><path d="M28.756 5.177l1.31 1.967a.36.36 0 01-.1.5l-.332.222a.36.36 0 01-.5-.1l-1.31-1.967a.36.36 0 01.099-.5l.333-.222a.36.36 0 01.5.1zm2.02 3.033l1.313 1.966a.361.361 0 01-.101.5l-.334.221a.36.36 0 01-.498-.1l-1.312-1.964a.36.36 0 01.1-.5l.332-.222a.36.36 0 01.5.1zm-.618-3.968l3.332 5.001a.361.361 0 01-.1.5l-.335.223a.36.36 0 01-.5-.1l-3.333-5.001a.36.36 0 01.1-.5l.336-.223a.36.36 0 01.5.1zm1.397-.934l1.312 1.971a.361.361 0 01-.101.5l-.334.22a.36.36 0 01-.498-.1L30.62 3.931a.361.361 0 01.1-.5l.335-.223a.36.36 0 01.5.1zm2.02 3.04l1.31 1.967a.36.36 0 01-.1.499l-.332.222a.36.36 0 01-.5-.1l-1.31-1.967a.36.36 0 01.1-.499l.333-.222a.36.36 0 01.5.1zM11.029 16.995l3.332 4.996a.36.36 0 01-.1.5l-.333.222a.361.361 0 01-.5-.1l-3.332-4.995a.36.36 0 01.1-.5l.333-.223a.36.36 0 01.5.1zm-1.399.935l1.309 1.962a.36.36 0 01-.1.5l-.332.221a.36.36 0 01-.5-.099l-1.31-1.962a.36.36 0 01.1-.5l.334-.222a.36.36 0 01.5.1zm2.022 3.034l1.31 1.967a.36.36 0 01-.1.5l-.333.222a.359.359 0 01-.5-.1l-1.31-1.967a.36.36 0 01.1-.5l.333-.222a.36.36 0 01.5.1zm-3.42-2.1l3.33 4.996a.36.36 0 01-.1.5l-.333.222a.36.36 0 01-.5-.1l-3.332-4.995a.36.36 0 01.1-.5l.335-.223a.36.36 0 01.5.1zm1.865-8.687l3.331-5a.361.361 0 01.5-.1l.334.223a.36.36 0 01.1.5l-3.334 4.996a.36.36 0 01-.498.1l-.332-.22a.356.356 0 01-.155-.37.36.36 0 01.054-.13zm-1.4-.934l3.332-5a.362.362 0 01.5-.1l.333.222a.36.36 0 01.1.5l-3.332 5a.36.36 0 01-.5.1l-.333-.222a.36.36 0 01-.1-.5zm-1.4-.929l3.332-5.006a.36.36 0 01.5-.1l.333.223a.36.36 0 01.1.5L8.23 8.936a.36.36 0 01-.5.1l-.335-.223a.36.36 0 01-.1-.5zm20.528 13.677l1.31-1.962a.36.36 0 01.5-.1l.331.223a.36.36 0 01.1.5l-1.309 1.961a.362.362 0 01-.5.1l-.333-.222a.36.36 0 01-.1-.5zm2.02-3.024l1.312-1.971a.36.36 0 01.5-.1l.334.222a.361.361 0 01.1.5l-1.315 1.969a.36.36 0 01-.499.1l-.331-.22a.361.361 0 01-.101-.5zm-.622 3.963l1.31-1.966a.362.362 0 01.5-.1l.335.223a.36.36 0 01.1.5l-1.31 1.966a.36.36 0 01-.499.1l-.336-.223a.36.36 0 01-.1-.5zm2.022-3.039l1.312-1.962a.36.36 0 01.5-.1l.334.223a.36.36 0 01.1.5l-1.312 1.963a.36.36 0 01-.499.1l-.335-.224a.36.36 0 01-.1-.5zm-.623 3.969l1.313-1.964a.36.36 0 01.498-.1l.333.22a.36.36 0 01.101.5l-1.31 1.967a.36.36 0 01-.5.1l-.335-.224a.36.36 0 01-.1-.5zm2.023-3.03l1.309-1.965a.361.361 0 01.5-.1l.332.222a.36.36 0 01.1.5l-1.31 1.963a.36.36 0 01-.499.1l-.331-.22a.36.36 0 01-.1-.5z" fill="#464655"/></svg>