<svg width="15" height="12" fill="none" xmlns="http://www.w3.org/2000/svg"><path d="M14.23 6.89v1.363a1.804 1.804 0 01-.453 1.19v1.536a.91.91 0 01-.909.908h-.909a.909.909 0 01-.909-.909v-.907H3.784v.909a.909.909 0 01-.909.909h-.907a.909.909 0 01-.91-.909V9.445a1.803 1.803 0 01-.453-1.192V6.891a1.813 1.813 0 011.173-1.693l.319-.797.565-1.415A3.164 3.164 0 015.615.987H9.22a3.164 3.164 0 012.951 1.999l.566 1.415.319.797A1.812 1.812 0 0114.23 6.89zm-9.99.905c0-.543-.818-1.358-1.363-1.358a.857.857 0 00-.91.906.857.857 0 00.91.906c.545-.001 1.362.09 1.362-.454zm-.456-2.72h7.268l-.566-1.415a1.364 1.364 0 00-1.265-.857H5.615a1.362 1.362 0 00-1.266.857l-.565 1.415zm9.084 2.268a.855.855 0 00-.909-.906c-.545 0-1.362.815-1.362 1.358 0 .544.817.453 1.362.453a.856.856 0 00.909-.905z" fill="#5969FF"/></svg>