<svg width="20" height="20" fill="none" xmlns="http://www.w3.org/2000/svg"><path fill-rule="evenodd" clip-rule="evenodd" d="M3.333 0h13.333a2.497 2.497 0 012.5 2.5v15a2.497 2.497 0 01-2.5 2.5H3.333a2.497 2.497 0 01-2.5-2.5v-15a2.497 2.497 0 012.5-2.5zm13.333 1.667H3.333A.831.831 0 002.5 2.5v15a.831.831 0 00.833.833h13.333a.831.831 0 00.834-.833v-15a.831.831 0 00-.834-.833zM5.833 8.333H5a.834.834 0 010-1.666h.833v-.834a.834.834 0 011.667 0v.834h.833a.834.834 0 010 1.666H7.5v.834a.834.834 0 01-1.667 0v-.834zm5.833 5a.834.834 0 010-1.666H15a.834.834 0 010 1.666h-3.334zm-6.595.051l-.66-.66a.834.834 0 011.178-1.179l.66.66.662-.66a.832.832 0 111.178 1.178l-.661.661.66.661a.834.834 0 01-1.177 1.178l-.661-.66-.661.66a.834.834 0 01-1.178-1.178l.66-.66zm6.595 2.083a.834.834 0 010-1.666H15a.834.834 0 010 1.666h-3.334zm0-7.134a.834.834 0 010-1.666H15a.834.834 0 010 1.666h-3.334z" fill="#fff"/></svg>