<svg width="261" height="89" fill="none" xmlns="http://www.w3.org/2000/svg"><path d="M106.5 46l10.752-29.376c.608-1.6 1.6-2.8 2.976-3.6 1.408-.832 2.992-1.248 4.752-1.248 1.76 0 3.328.4 4.704 1.2 1.408.8 2.416 2 3.024 3.6L143.46 46h-10.992l-1.824-5.856h-11.472L117.252 46H106.5zm14.832-13.776h7.152l-3.12-10.8c-.032-.096-.08-.16-.144-.192a.326.326 0 00-.24-.096c-.064 0-.128.032-.192.096-.064.032-.112.096-.144.192l-3.312 10.8zM159.152 46c-2.144 0-4.048-.448-5.712-1.344-1.664-.928-2.976-2.176-3.936-3.744-.96-1.6-1.44-3.408-1.44-5.424V20.512h-8.688V12.4h27.552v8.112h-8.496v15.504c0 .512.176.96.528 1.344.352.352.784.528 1.296.528h3.216V46h-4.32zm26.46.624c-2.656 0-5.104-.432-7.344-1.296-2.208-.864-4.128-2.08-5.76-3.648a17.414 17.414 0 01-3.744-5.568c-.896-2.112-1.344-4.416-1.344-6.912 0-2.496.448-4.8 1.344-6.912.896-2.144 2.144-4 3.744-5.568 1.632-1.568 3.552-2.784 5.76-3.648 2.24-.864 4.688-1.296 7.344-1.296 2.656 0 5.088.432 7.296 1.296 2.24.864 4.16 2.08 5.76 3.648a16.395 16.395 0 013.792 5.568c.896 2.112 1.344 4.416 1.344 6.912 0 2.496-.448 4.8-1.344 6.912a17.041 17.041 0 01-3.792 5.568c-1.6 1.568-3.52 2.784-5.76 3.648-2.208.864-4.64 1.296-7.296 1.296zm0-8.352c1.184 0 2.256-.224 3.216-.672a7.316 7.316 0 002.448-1.968 8.889 8.889 0 001.536-2.88c.352-1.12.528-2.304.528-3.552 0-1.248-.176-2.416-.528-3.504-.352-1.12-.864-2.096-1.536-2.928a6.813 6.813 0 00-2.448-1.92c-.96-.48-2.032-.72-3.216-.72-1.184 0-2.256.24-3.216.72a6.813 6.813 0 00-2.448 1.92c-.672.832-1.184 1.808-1.536 2.928-.352 1.088-.528 2.256-.528 3.504 0 1.248.176 2.432.528 3.552a8.889 8.889 0 001.536 2.88 7.316 7.316 0 002.448 1.968c.96.448 2.032.672 3.216.672zm47.115 8.352c-2.048 0-3.984-.416-5.808-1.248a10.641 10.641 0 01-4.368-3.696c-1.12-1.632-1.68-3.632-1.68-6V22.672c0-.416-.096-.768-.288-1.056-.16-.32-.384-.56-.672-.72a2.042 2.042 0 00-1.008-.24c-.384 0-.736.08-1.056.24-.288.16-.528.4-.72.72-.16.288-.24.64-.24 1.056V46h-9.888V22.768c0-2.336.544-4.32 1.632-5.952 1.12-1.632 2.592-2.88 4.416-3.744 1.824-.864 3.776-1.296 5.856-1.296s4.016.432 5.808 1.296a11.003 11.003 0 014.368 3.744c1.12 1.632 1.68 3.616 1.68 5.952v13.008c0 .416.096.784.288 1.104.192.288.432.512.72.672.288.16.592.24.912.24.352 0 .688-.08 1.008-.24.32-.16.576-.384.768-.672.192-.32.288-.688.288-1.104V22.768c0-2.336.56-4.32 1.68-5.952a11.003 11.003 0 014.368-3.744 13.4 13.4 0 015.808-1.296c2.048 0 3.968.432 5.76 1.296a11.003 11.003 0 014.368 3.744c1.12 1.632 1.68 3.616 1.68 5.952V46h-9.84V22.528c0-.384-.096-.704-.288-.96a2.062 2.062 0 00-.72-.672 1.943 1.943 0 00-.96-.24c-.352 0-.688.08-1.008.24-.32.16-.576.384-.768.672-.16.256-.24.576-.24.96V35.68c0 2.368-.576 4.368-1.728 6a10.641 10.641 0 01-4.368 3.696c-1.792.832-3.712 1.248-5.76 1.248zM119.992 70.45l-1.05-2.484h-7.436l-1.049 2.484h-3.773l5.651-12.884h5.89l5.669 12.884h-3.902zm-7.252-5.356h4.988l-2.504-5.89-2.484 5.89zm23.396-7.528h3.829v7.381c0 1.804-.645 3.209-1.933 4.215-1.288 1.006-3.166 1.51-5.632 1.51-2.479 0-4.363-.504-5.651-1.51-1.288-1.006-1.933-2.411-1.933-4.215v-7.38h3.829v6.994c0 .932.301 1.662.902 2.19.613.527 1.564.791 2.853.791 2.491 0 3.736-.994 3.736-2.981v-6.995zm5.82 3.13v-3.13h14.688v3.13h-5.429v9.754h-3.829v-9.755h-5.43zm17.947 8.208c-1.51-1.178-2.264-2.81-2.264-4.896s.754-3.718 2.264-4.896c1.509-1.178 3.607-1.767 6.295-1.767 2.687 0 4.785.59 6.294 1.767 1.51 1.178 2.264 2.81 2.264 4.896s-.754 3.718-2.264 4.896c-1.509 1.178-3.607 1.767-6.294 1.767-2.688 0-4.786-.589-6.295-1.767zm2.797-7.472c-.822.638-1.233 1.496-1.233 2.576s.411 1.945 1.233 2.596c.835.638 2.001.957 3.498.957 1.497 0 2.656-.32 3.478-.957.835-.65 1.252-1.516 1.252-2.596s-.417-1.938-1.252-2.576c-.822-.65-1.981-.976-3.478-.976s-2.663.325-3.498.975zm13.049-.737v-3.129h14.688v3.13h-5.43v9.754h-3.829v-9.755h-5.429zm27.106 9.755l-4.215-4.564h-2.393v4.564h-3.828V57.566h9.166c1.546 0 2.822.356 3.829 1.068 1.018.712 1.527 1.785 1.527 3.22 0 2.295-1.319 3.615-3.957 3.958l4.712 4.638h-4.841zm-6.608-9.828v2.392h5.154c.528 0 .945-.098 1.252-.294.306-.196.46-.485.46-.865s-.16-.681-.479-.902c-.306-.22-.718-.331-1.233-.331h-5.154zm25.229 9.828l-1.049-2.484h-7.436l-1.049 2.484h-3.773l5.65-12.884h5.89l5.669 12.884h-3.902zm-7.252-5.356h4.988l-2.503-5.89-2.485 5.89zm20.175-7.528c2.528 0 4.522.558 5.982 1.675s2.19 2.706 2.19 4.767c0 2.062-.73 3.65-2.19 4.767-1.46 1.117-3.454 1.675-5.982 1.675h-7.289V57.566h7.289zm-.405 9.755c1.558 0 2.736-.282 3.534-.846.81-.577 1.215-1.4 1.215-2.467 0-1.067-.405-1.883-1.215-2.448-.798-.576-1.976-.865-3.534-.865h-3.056v6.626h3.056zm10.929 3.13V57.565h13.123v2.982h-9.295v1.951h7.252v2.798h-7.252v2.172h9.645v2.981h-13.473zM77.591 44.25c7.425-8.224 10.462-16.318 7.245-21.797-4.013-6.835-14.926-6.356-22.821-4.73a51.22 51.22 0 00-1.529-3.977 5.834 5.834 0 001.661-2.996 5.77 5.77 0 00-.318-3.398 5.882 5.882 0 00-2.189-2.648 6.032 6.032 0 00-3.318-1 5.99 5.99 0 00-2.139.406C51.821 1.882 49.206.65 46.438.65c-6.434 0-12.045 6.636-15.578 17.074-7.888-1.626-18.804-2.109-22.82 4.73-3.216 5.478-.179 13.574 7.246 21.797-1.84 2.04-3.412 4.07-4.685 6.056-.248-.031-.491-.074-.748-.074a6.023 6.023 0 00-4.213 1.72 5.823 5.823 0 00-1.75 4.143c0 2.116 1.161 3.954 2.878 4.98-.008 1.818.4 3.494 1.27 4.976 4.015 6.836 14.938 6.349 22.822 4.725 3.533 10.438 9.144 17.072 15.578 17.072 6.435 0 12.047-6.635 15.578-17.071 4.315.888 8.423 1.318 12.596.82a5.954 5.954 0 004.725 2.347 6.023 6.023 0 004.215-1.72A5.823 5.823 0 0085.3 68.08a5.7 5.7 0 00-.418-2.116c3.134-5.48.095-13.53-7.293-21.713h.001zM46.438 61.441a101.153 101.153 0 01-15.164-8.58 98.667 98.667 0 01.016-17.206 98.943 98.943 0 0115.148-8.59 99.009 99.009 0 0115.148 8.589c.52 5.735.498 11.695.016 17.207a101.162 101.162 0 01-15.164 8.58zm14.567-3.493a72.623 72.623 0 01-1.67 8.193 77.496 77.496 0 01-8.078-2.66 101.563 101.563 0 009.748-5.533zM41.62 63.481a77.471 77.471 0 01-8.078 2.66 72.601 72.601 0 01-1.67-8.193 101.638 101.638 0 009.748 5.533zM27.093 49.807a74.608 74.608 0 01-6.363-5.5 74.263 74.263 0 016.36-5.562 98.993 98.993 0 00.003 11.062zm4.82-19.274c.41-2.747.98-5.467 1.704-8.15a77.57 77.57 0 018.005 2.642 101.564 101.564 0 00-9.71 5.508zm19.344-5.51a77.507 77.507 0 018.005-2.64 72.386 72.386 0 011.704 8.148c-3.13-2.01-6.372-3.85-9.71-5.508zm14.532 13.72a74.23 74.23 0 016.36 5.564 74.708 74.708 0 01-6.364 5.502c.21-3.819.208-7.292.004-11.065zm15.61-14.338c2.137 3.643-.212 10.027-6.5 17.042-2.75-2.692-5.952-5.367-9.533-7.94-.473-4.316-1.223-8.362-2.21-12.038 5.67-1.127 15.368-1.956 18.243 2.936zm-34.96-19.85c1.566 0 3.167.746 4.721 2.137a5.714 5.714 0 00-.798 2.875 5.823 5.823 0 001.749 4.144 6.023 6.023 0 004.214 1.72c.18 0 .348-.037.524-.051a47.654 47.654 0 011.266 3.275c-3.764 1.016-7.703 2.405-11.676 4.126-3.974-1.72-7.912-3.11-11.676-4.126 3.06-8.834 7.503-14.1 11.676-14.1zM11.48 24.405c2.872-4.893 12.576-4.062 18.243-2.936-.988 3.676-1.739 7.722-2.211 12.039-3.582 2.573-6.782 5.247-9.532 7.939-6.287-7.015-8.64-13.399-6.5-17.042zM11.478 64.1c-.383-.654-.608-1.413-.69-2.249 2.841-.442 5.029-2.838 5.029-5.755 0-1.549-.627-2.952-1.63-4a43.822 43.822 0 013.859-4.975c2.734 2.67 5.913 5.323 9.466 7.874.472 4.316 1.223 8.362 2.211 12.036-5.642 1.12-15.371 1.965-18.245-2.93zm34.96 19.845c-4.28 0-8.731-5.202-11.766-14.075 3.792-1.018 7.761-2.415 11.766-4.15 4.005 1.735 7.974 3.132 11.766 4.15-3.035 8.873-7.486 14.075-11.766 14.075zM63.154 67.03c.988-3.673 1.738-7.72 2.21-12.035 3.553-2.55 6.732-5.204 9.466-7.874 5.558 6.249 8.08 12.015 7.093 15.712a5.993 5.993 0 00-2.585-.602c-3.176 0-5.77 2.473-5.92 5.576-3.392.295-6.903-.108-10.264-.777z" fill="#fff"/><path d="M46.435 35.908c-4.672 0-8.484 3.748-8.484 8.342s3.812 8.343 8.484 8.343c4.685 0 8.484-3.749 8.484-8.343 0-4.594-3.799-8.342-8.484-8.342z" fill="#fff"/><ellipse cx="79.387" cy="67.773" rx="7.5" ry="7.375" fill="#fff"/></svg>