<svg width="35" height="34" fill="none" xmlns="http://www.w3.org/2000/svg"><path d="M17.398.18C8.148.18.649 7.677.649 16.926c0 9.25 7.499 16.748 16.748 16.748 4.746 0 9.03-1.974 12.078-5.145l-.105-.201-4.893-4.893a.616.616 0 010-.87l1.97-1.97a.611.611 0 01.87 0l4.537 4.537.128.031a16.67 16.67 0 002.163-8.237C34.145 7.677 26.647.18 17.397.18z" fill="#FED2A4"/><path d="M17.398 29.027c6.682 0 12.1-5.417 12.1-12.1 0-6.682-5.418-12.1-12.1-12.1-6.683 0-12.1 5.418-12.1 12.1 0 6.683 5.417 12.1 12.1 12.1z" fill="#FFBD86"/><path d="M17.808 31.159H3.288a.684.684 0 01-.684-.684v-9.104c0-.378.306-.684.683-.684h14.52c.379 0 .684.306.684.684v9.104a.684.684 0 01-.683.683z" fill="#FE5694"/><path d="M4.928 30.475v-9.104c0-.378.306-.684.683-.684H3.287a.684.684 0 00-.683.684v9.104c0 .377.306.683.683.683h2.324a.684.684 0 01-.683-.683z" fill="#FD3581"/><path d="M15.776 24.208H5.317a.205.205 0 01-.205-.205v-.616a.205.205 0 01.205-.205h10.46a.205.205 0 01.204.206v.615a.205.205 0 01-.205.205zm0 2.39h-3.414a.205.205 0 01-.205-.205v-.273a.205.205 0 01.205-.205h3.414a.205.205 0 01.205.205v.273a.205.205 0 01-.205.206zm-4.928 0h-5.53a.205.205 0 01-.206-.205v-.273a.205.205 0 01.205-.205h5.531a.205.205 0 01.205.205v.273a.205.205 0 01-.205.206zm4.928 2.448H5.317a.205.205 0 01-.205-.205v-.273a.205.205 0 01.205-.206h10.46a.205.205 0 01.204.206v.273a.205.205 0 01-.205.205z" fill="#fff"/><path d="M26.32 20.724l-2.486-2.485a8.66 8.66 0 01-1.713 1.714l2.485 2.485 1.713-1.714z" fill="#8D9CA8"/><path d="M25.327 21.716l-2.426-2.426a8.635 8.635 0 01-.78.663l2.485 2.484.721-.72z" fill="#7A8C98"/><path d="M31.982 25.164l-4.616-4.616a.684.684 0 00-.967 0l-1.97 1.97a.684.684 0 000 .966l5.045 5.046a16.803 16.803 0 002.508-3.366z" fill="#596C76"/><path d="M26.592 23.484a.683.683 0 010-.966l1.372-1.372-.598-.598a.684.684 0 00-.967 0l-1.97 1.97a.684.684 0 000 .966l5.045 5.046c.354-.369.692-.754 1.01-1.153l-3.892-3.893z" fill="#465A61"/><path d="M16.971 21.742a8.653 8.653 0 100-17.305 8.653 8.653 0 000 17.305z" fill="#AF66DA"/><path d="M10.073 13.09a8.654 8.654 0 017.775-8.61 8.653 8.653 0 100 17.217 8.654 8.654 0 01-7.775-8.608z" fill="#9857BD"/><path d="M16.97 19.146a6.057 6.057 0 100-12.114 6.057 6.057 0 000 12.114z" fill="#C8EFFE"/><path d="M13.829 13.09a6.059 6.059 0 014.6-5.88 6.057 6.057 0 100 11.76 6.06 6.06 0 01-4.6-5.88z" fill="#99E6FC"/></svg>