<svg width="37" height="37" fill="none" xmlns="http://www.w3.org/2000/svg"><g clip-path="url(#clip0_6939_15293)"><path d="M35.336 24.099H2.254a1.327 1.327 0 01-1.327-1.327v-7.336c0-.733.594-1.327 1.327-1.327h33.082c.732 0 1.326.594 1.326 1.327v7.336c0 .732-.594 1.327-1.326 1.327z" fill="#FE99A0"/><path d="M36.663 15.436v7.335c0 .733-.594 1.328-1.327 1.328h-2.775c.733 0 1.327-.595 1.327-1.328v-7.335c0-.733-.594-1.328-1.327-1.328h2.775c.733 0 1.327.595 1.327 1.328zm-4.033 10.82a.972.972 0 00-.856.509c-2.49 4.619-7.374 7.764-12.98 7.764-5.604 0-10.488-3.146-12.978-7.764a.977.977 0 00-1.713.935 16.74 16.74 0 002.977 3.962 16.7 16.7 0 0011.806 4.808 16.566 16.566 0 0011.7-4.885 16.73 16.73 0 002.907-3.897.975.975 0 00-.863-1.432zM18.795 5.058c5.06 0 9.532 2.564 12.186 6.46a.976.976 0 101.617-1.091 16.892 16.892 0 00-2.011-2.426 16.57 16.57 0 00-11.792-4.884A16.569 16.569 0 007.003 8a16.893 16.893 0 00-2.012 2.426.976.976 0 101.618 1.091c2.654-3.896 7.126-6.46 12.186-6.46z" fill="#FD8087"/><path d="M26.408 26.256a.979.979 0 00-.699.297 9.648 9.648 0 01-6.914 2.915 9.648 9.648 0 01-6.915-2.915.978.978 0 00-.699-.297c-.862 0-1.292 1.036-.689 1.653a11.58 11.58 0 008.303 3.5 11.58 11.58 0 008.302-3.5c.603-.617.173-1.653-.689-1.653zm-7.613-16.137a9.62 9.62 0 015.422 1.666c.16.108.35.166.543.166.955 0 1.336-1.236.546-1.773a11.55 11.55 0 00-6.511-2c-2.411 0-4.653.738-6.511 2-.79.537-.41 1.773.545 1.773a.966.966 0 00.543-.166 9.62 9.62 0 015.423-1.666z" fill="#FD8087"/><path d="M9.264 17.187a.618.618 0 00-.58-.399.617.617 0 00-.573.385l-.005.012-1.334 3.503a.54.54 0 001.008.384l.903-2.37.894 2.369a.54.54 0 001.009-.381l-1.322-3.503zm5.087-.4a.54.54 0 00-.534.545l.018 1.855-1.492-2.16a.54.54 0 00-.983.307v3.546a.54.54 0 001.079 0v-1.816l1.415 2.049a.584.584 0 00.661.24c.251-.078.413-.31.413-.598l-.033-3.433a.54.54 0 00-.544-.534zm19.537 4.48a.646.646 0 01-.148-.154l-1.415-2.05v1.817a.54.54 0 01-1.078 0v-3.546a.539.539 0 01.983-.306l1.491 2.16-.018-1.856a.536.536 0 01.185-.41l.724 2.52-.724 1.824zm-9.37-4.48a.539.539 0 00-.538.54v3.553a.54.54 0 101.078 0v-3.553a.539.539 0 00-.54-.54zm-5.086 3.178a.539.539 0 00-.76.067.896.896 0 01-.706.309 1.239 1.239 0 01-1.237-1.237 1.239 1.239 0 011.928-1.027.54.54 0 00.604-.893 2.318 2.318 0 00-3.61 1.92 2.318 2.318 0 002.315 2.315 1.969 1.969 0 001.532-.694.538.538 0 00-.066-.76zm-14.385-1.34a18.74 18.74 0 01-.949-.382.152.152 0 01-.044-.137c.006-.044.04-.154.216-.207.449-.135.874.197.89.21a.539.539 0 10.69-.83c-.035-.029-.872-.72-1.891-.412-.527.158-.9.575-.973 1.086-.069.483.14.947.546 1.211.024.016.05.03.075.041.02.01.513.228 1.067.433.214.079.433.22.405.377-.024.132-.207.326-.527.326-.327 0-.64-.13-.839-.35a.537.537 0 00-.761-.037.538.538 0 00-.038.761 2.204 2.204 0 001.638.704c.795 0 1.463-.51 1.589-1.214.095-.533-.142-1.228-1.094-1.58zm17.67-1.837h-1.962a.54.54 0 100 1.078h.438v3.014a.54.54 0 101.078 0v-3.014h.446a.54.54 0 000-1.078zm5.46 0a2.318 2.318 0 00-2.316 2.316 2.318 2.318 0 002.316 2.315 2.319 2.319 0 002.316-2.315 2.319 2.319 0 00-2.316-2.316zm0 3.553a1.238 1.238 0 01-1.237-1.237c0-.682.555-1.237 1.237-1.237s1.237.555 1.237 1.237-.555 1.237-1.237 1.237z" fill="#FFF8BF"/><path d="M34.815 20.755c0 .287-.162.52-.414.599a.57.57 0 01-.513-.088v-4.344a.534.534 0 01.35-.134h.004a.54.54 0 01.54.534l.033 3.433z" fill="#FCF2A9"/><path d="M30.723 11.951h-8.574a1.017 1.017 0 01-.864-1.554l5.15-8.296 6.775 8.296c.42.678-1.69 1.554-2.487 1.554z" fill="#FEE97D"/><path d="M34.49 10.397l-5.739-9.24a1.017 1.017 0 00-1.729 0l-.586.944 5.15 8.296a1.017 1.017 0 01-.864 1.554h2.903c.797 0 1.285-.876.864-1.554z" fill="#FEE45A"/><path d="M28.475 5.386v2.077a.565.565 0 01-1.128 0v-3.34c0-.133.046-.255.124-.352l.502.04s.5 1.518.502 1.575z" fill="#FE99A0"/><path d="M28.475 4.123v1.263l-1.003-1.615a.562.562 0 011.003.352z" fill="#FD8087"/><path d="M27.91 10.223a.564.564 0 100-1.129.564.564 0 000 1.129z" fill="#FE99A0"/></g><defs><clipPath id="clip0_6939_15293"><path fill="#fff" transform="translate(.897 .676)" d="M0 0h35.795v35.795H0z"/></clipPath></defs></svg>