<svg width="60" height="40" fill="none" xmlns="http://www.w3.org/2000/svg"><path d="M55.506.345H4.494A4.493 4.493 0 000 4.838v30.324a4.494 4.494 0 004.494 4.493h51.012A4.494 4.494 0 0060 35.162V4.838A4.493 4.493 0 0055.506.345z" fill="#FF4B55"/><path d="M9.962 6.492l.986 2.957 3.117.024a.42.42 0 01.246.758l-2.507 1.852.94 2.972a.42.42 0 01-.645.468L9.563 13.71l-2.536 1.813a.42.42 0 01-.644-.468l.94-2.972-2.508-1.852a.42.42 0 01.246-.758L8.18 9.45l.986-2.957a.42.42 0 01.797 0zm11.32.729l.706.964 1.142-.357a.161.161 0 01.178.248l-.698.97.692.975a.161.161 0 01-.18.247l-1.14-.365-.713.96a.161.161 0 01-.29-.095l-.006-1.196-1.133-.382a.161.161 0 01.001-.306l1.136-.375.013-1.195a.161.161 0 01.291-.093zm-4.307-2.875l1.19.13.506-1.084a.161.161 0 01.304.036l.244 1.17 1.187.148a.161.161 0 01.06.3l-1.038.594.227 1.174a.161.161 0 01-.267.15l-.886-.804-1.046.578a.161.161 0 01-.225-.207l.49-1.09-.873-.818a.161.161 0 01.127-.277zm1.88 11.59l-.707.964-1.142-.357a.161.161 0 00-.178.248l.698.97-.692.975a.161.161 0 00.18.247l1.14-.365.713.96a.16.16 0 00.29-.096l.006-1.195 1.133-.383a.161.161 0 00-.001-.305l-1.136-.375-.013-1.196a.161.161 0 00-.291-.093zm4.305-2.702l-1.189.129-.507-1.083a.161.161 0 00-.303.035l-.245 1.17-1.186.148a.161.161 0 00-.06.3l1.037.594-.226 1.175a.161.161 0 00.266.15l.886-.804 1.047.578a.161.161 0 00.225-.207l-.49-1.09.873-.818c.113-.105.026-.294-.128-.277z" fill="#FFE15A"/></svg>