<svg width="60" height="40" fill="none" xmlns="http://www.w3.org/2000/svg"><path d="M55.387.345H4.374A4.493 4.493 0 00-.119 4.838v30.324a4.494 4.494 0 004.493 4.493h51.013a4.494 4.494 0 004.494-4.493V4.838A4.493 4.493 0 0055.387.345z" fill="#fff"/><path fill-rule="evenodd" clip-rule="evenodd" d="M21.402 14.262c3.167-4.745 9.588-6.04 14.341-2.872 4.733 3.159 6.021 9.545 2.894 14.293-.01.017-.022.034-.033.05-3.164 4.762-9.583 6.041-14.336 2.872-4.73-3.156-6.024-9.538-2.904-14.285l.038-.058zm-.727 1.65a5.178 5.178 0 002.161 5.522 5.167 5.167 0 007.167-1.436 5.167 5.167 0 01-7.167 1.436 5.178 5.178 0 01-2.16-5.521z" fill="#FF4B55"/></svg>