<svg width="60" height="40" fill="none" xmlns="http://www.w3.org/2000/svg"><path d="M55.387.345H4.374A4.493 4.493 0 00-.119 4.838v30.324a4.494 4.494 0 004.493 4.493h51.013a4.494 4.494 0 004.494-4.493V4.838A4.493 4.493 0 0055.387.345z" fill="#fff"/><path d="M35.743 11.39c-4.753-3.168-11.174-1.873-14.34 2.872-1.59 2.369-.943 5.587 1.433 7.172a5.167 5.167 0 007.168-1.436 5.168 5.168 0 118.601 5.735c3.168-4.753 1.887-11.174-2.862-14.343z" fill="#FF4B55"/><path d="M21.402 14.262c-1.588 2.369-.942 5.587 1.434 7.172a5.167 5.167 0 007.167-1.436 5.168 5.168 0 118.601 5.735c-3.164 4.762-9.583 6.041-14.336 2.872-4.75-3.169-6.035-9.59-2.866-14.343z" fill="#41479B"/><path d="M41.006 7.483l1.88 2.825a.517.517 0 01-.144.716l-.476.32a.516.516 0 01-.718-.144l-1.882-2.824a.517.517 0 01.144-.717l.478-.32a.516.516 0 01.718.144zm2.9 4.355l1.885 2.823a.518.518 0 01-.145.719l-.479.316a.517.517 0 01-.715-.144l-1.884-2.82a.517.517 0 01.142-.717l.478-.32a.518.518 0 01.717.143zm-.888-5.697l4.785 7.18a.517.517 0 01-.144.717l-.48.32a.517.517 0 01-.718-.143l-4.786-7.18a.517.517 0 01.144-.717l.482-.321a.518.518 0 01.717.144zM45.025 4.8l1.883 2.83a.517.517 0 01-.146.718l-.478.316a.517.517 0 01-.716-.144l-1.884-2.826a.517.517 0 01.143-.718l.48-.32a.517.517 0 01.718.144zm2.9 4.364l1.881 2.824a.517.517 0 01-.143.717l-.477.319a.519.519 0 01-.718-.143l-1.88-2.825a.517.517 0 01.142-.716l.478-.32a.517.517 0 01.718.144zM15.554 24.45l4.784 7.173a.517.517 0 01-.143.717l-.48.32a.516.516 0 01-.717-.143l-4.784-7.173a.517.517 0 01.144-.717l.479-.32a.518.518 0 01.717.143zm-2.008 1.342l1.878 2.817a.517.517 0 01-.143.717l-.476.319a.517.517 0 01-.718-.143l-1.88-2.816a.52.52 0 01.142-.718l.48-.32a.517.517 0 01.717.144zm2.902 4.356l1.88 2.825a.517.517 0 01-.143.716l-.477.32a.518.518 0 01-.718-.143l-1.882-2.824a.518.518 0 01.143-.717l.48-.32a.518.518 0 01.717.143zm-4.91-3.015l4.78 7.173a.517.517 0 01-.143.717l-.477.32a.517.517 0 01-.718-.144l-4.784-7.172a.517.517 0 01.143-.717l.481-.32a.515.515 0 01.717.143zm2.677-12.473l4.783-7.178a.517.517 0 01.718-.144l.479.32a.517.517 0 01.143.717l-4.785 7.175a.517.517 0 01-.716.144l-.477-.316a.52.52 0 01-.145-.718zm-2.01-1.34l4.785-7.18a.517.517 0 01.718-.143l.477.32a.517.517 0 01.143.716l-4.783 7.18a.515.515 0 01-.717.144l-.48-.32a.517.517 0 01-.142-.716zm-2.01-1.334L14.979 4.8a.518.518 0 01.718-.143l.477.32a.517.517 0 01.144.716l-4.782 7.188a.515.515 0 01-.718.144l-.48-.32a.517.517 0 01-.144-.718zm29.473 19.637l1.88-2.817a.519.519 0 01.718-.142l.477.319a.517.517 0 01.143.716l-1.879 2.818a.518.518 0 01-.717.143l-.48-.32a.517.517 0 01-.142-.717zm2.9-4.342l1.884-2.83a.519.519 0 01.718-.144l.48.32a.516.516 0 01.143.718l-1.888 2.826a.517.517 0 01-.716.143L42.712 28a.517.517 0 01-.145-.718zm-.892 5.69l1.882-2.823a.516.516 0 01.717-.144l.48.32a.517.517 0 01.144.718l-1.88 2.824a.517.517 0 01-.717.144l-.483-.321a.518.518 0 01-.143-.718zm2.903-4.363l1.883-2.817a.518.518 0 01.717-.143l.48.32a.517.517 0 01.144.718l-1.883 2.817a.517.517 0 01-.717.143l-.48-.32a.517.517 0 01-.144-.718zm-.894 5.697l1.884-2.819a.517.517 0 01.715-.144l.479.317a.517.517 0 01.145.718L45.026 35.2a.517.517 0 01-.718.143l-.48-.32a.518.518 0 01-.143-.718zm2.904-4.349l1.88-2.822a.515.515 0 01.717-.143l.477.319a.517.517 0 01.143.717l-1.88 2.818a.517.517 0 01-.716.144l-.476-.315a.518.518 0 01-.145-.718z" fill="#464655"/></svg>