<svg width="171" height="82" fill="none" xmlns="http://www.w3.org/2000/svg"><mask id="a" style="mask-type:luminance" maskUnits="userSpaceOnUse" x="44" y="0" width="83" height="82"><path d="M126.338.055H44.921v81.893h81.417V.055z" fill="#fff"/></mask><g mask="url(#a)" fill="#4A4A4A"><path d="M109.754 41.002c0 13.41-10.793 24.264-24.125 24.264V41.001h24.125zM85.629 16.736v24.265H61.506c0-13.41 10.792-24.265 24.123-24.265z"/><path d="M85.63 16.737v1.33c12.57 0 22.8 10.287 22.8 22.934h1.323c0-13.4-10.801-24.264-24.124-24.264zm0 47.198c-12.572 0-22.801-10.287-22.801-22.934h-1.323c0 13.4 10.801 24.265 24.123 24.265m0-65.211C63.147.055 44.921 18.388 44.921 41c0 22.614 18.226 40.947 40.708 40.947 22.483 0 40.709-18.333 40.709-40.947 0-22.613-18.226-40.946-40.709-40.946zM123.691 41c0 21.143-17.04 38.284-38.062 38.284S47.57 62.144 47.57 41.001c0-21.142 17.04-38.284 38.06-38.284 21.02 0 38.062 17.142 38.062 38.284z"/><path d="M68.233 21.248c1.3-1.368 2.037-2.95.736-4.46-.707-.819-1.896-.998-2.881-.594l-.098.038.03-.086c.147-.39.24-1.631-.82-2.489-.516-.418-1.164-.573-1.82-.506-1.221.124-2.16.957-4.72 3.807a61.624 61.624 0 00-2.57 3.096l7.028 6.66c2.329-2.575 3.278-3.533 5.115-5.466zm-9.17-1.629c1.415-1.73 2.919-3.299 3.6-3.92.216-.195.45-.391.735-.468.461-.126.937.2 1.045.674.107.475-.192.927-.524 1.3-.749.843-3.494 3.711-3.494 3.711l-1.363-1.297zm2.752 2.609s2.673-2.824 3.546-3.727c.346-.358.569-.575.808-.692.309-.15.646-.182.947.019.296.198.433.54.359.879-.089.403-.419.788-.691 1.082l-3.544 3.788-1.425-1.35zm24.618-8.922l2.25-5.035.143-.447-.04.466.237 6.729c.789.074 1.604.184 2.408.317l-.366-9.965a50.005 50.005 0 00-3.362-.26l-2.217 5.496-.08.408-.078-.408-2.214-5.497c-1.12.048-2.239.137-3.362.26l-.366 9.966a35.86 35.86 0 012.408-.317l.236-6.73-.04-.465.143.447 2.25 5.035h2.05zm18.688 10.417a36.031 36.031 0 011.796 2.128l8.235-5.221a54.57 54.57 0 00-1.556-1.93l-5.216 3.444-.356.306.266-.387 2.302-4.591-1.628-1.627-4.599 2.3-.387.266.308-.356 3.451-5.208a50.481 50.481 0 00-1.935-1.562l-5.227 8.22a36.878 36.878 0 012.092 1.765l4.922-2.551.315-.232-.232.315-2.551 4.921z"/></g></svg>