<svg width="171" height="82" fill="none" xmlns="http://www.w3.org/2000/svg"><path fill-rule="evenodd" clip-rule="evenodd" d="M46.84 57.727v-6.833h3.593v17.083h-3.595v-7.642H41.69v7.642h-3.594V50.893h3.594v6.834h5.15zm85.736-6.833h13.355V53.5h-4.881v14.476h-3.593V53.5h-4.881v-2.607zm-18.972 0l-.002 14.475h6.686v2.608H110.01V50.893h3.594zM72.486 65.136l3.729-14.242h3.174l-4.242 15.608c-.246.983-.876 1.477-1.85 1.477H69.98c-.976 0-1.664-.475-1.875-1.502l-4.347-15.584h4.191l3.783 14.235c.057.164.198.233.379.233.19 0 .323-.047.374-.225zM26.002 53.56c0-1.726.852-2.667 2.689-2.667h8.028V53.5H30.91c-1.075 0-1.314.275-1.314 1.303l-.004 9.254c0 1.066.319 1.307 1.316 1.307h5.81v2.612l-8.034.002c-1.701 0-2.684-.77-2.684-2.672l.002-11.746zm30.182 10.497c0 1.085.319 1.307 1.316 1.307h6.65v2.612l-8.873.002c-1.799 0-2.684-.867-2.684-2.672l.001-11.746c0-1.745.83-2.665 2.687-2.665l8.12-.002V53.5h-5.899c-1.094 0-1.314.313-1.314 1.303v2.923h7.138v2.608h-7.141l-.002 3.723zm33.69-3.3l-.806.007 4.752 7.212h-4.447l-4.538-7.688c-.15-.266-.339-.533-.339-.903 0-.736.43-1.192 1.191-1.192l1.963-.002c1.037 0 1.317-.299 1.317-1.307l-.004-2.081c0-.99-.201-1.304-1.316-1.304l-4.198.001v14.476h-3.593V50.893h10.015c1.837 0 2.685.885 2.685 2.668l.003 4.527c0 1.92-1.023 2.67-2.684 2.67zm15.273-9.862c1.857 0 2.686.92 2.686 2.665l.002 11.746c0 1.863-.965 2.671-2.686 2.671h-3.941l-3.982.001c-1.643 0-2.685-.732-2.685-2.672l.003-11.746c0-1.706.79-2.665 2.686-2.665h7.917zm-2.219 14.469c.977 0 1.316-.202 1.316-1.307l-.003-9.254c0-1.143-.373-1.303-1.313-1.303h-3.48c-1.19 0-1.314.41-1.314 1.303l-.001 9.254c0 1.028.28 1.307 1.316 1.307h3.479zm21.649-1.307c0 1.085.32 1.307 1.317 1.307h6.65v2.612l-8.873.002c-1.8 0-2.685-.867-2.685-2.672l.002-11.746c0-1.745.829-2.665 2.686-2.665l8.121-.002V53.5h-5.898c-1.095 0-1.315.313-1.315 1.303l.002 2.923h7.135v2.608h-7.14l-.002 3.723zm-7.165-44.19c.473 0 1.165.28 1.165 1.074 0 .302-.093.445-.225.698l-6.037 11.704c-.421.777-1.025.996-1.865.996l-12.176.003c-.563 0-.809.235-.809.811l.002 2.816c0 .867-.497 1.226-1.244 1.226l-21.906.002c-.746 0-1.243-.386-1.243-1.234l.002-2.817c0-.54-.21-.811-.81-.811l-19.416.002c-.855 0-1.165-.605-1.165-1.075 0-.178.047-.354.125-.502l6.106-11.843c.29-.597.85-1.052 1.81-1.052l12.54-.003c.527 0 .81-.216.81-.811l.001-2.817c0-.776.422-1.234 1.24-1.234h21.906c.801 0 1.242.43 1.242 1.242v2.817c0 .667.32.811.81.811l19.137-.002zm-4.823 4.717a.636.636 0 00.076-.303c0-.288-.182-.65-.737-.65H94.497c-.562 0-.824-.247-.824-.805l.001-3.25c0-.575-.271-.815-.815-.815l-15.176.001c-.562 0-.815.231-.815.808v3.248c0 .613-.315.815-.824.815H61.317c-.44 0-.622.137-.734.337l-2.91 5.65a.65.65 0 00-.076.302c0 .379.301.65.736.65h17.711c.545 0 .818.212.818.806l.003 3.25c0 .63.31.807.818.807l7.59-.002h7.584c.58 0 .82-.258.82-.798l.002-3.25c0-.54.219-.81.818-.81h14.448c.227 0 .552-.015.734-.342l2.91-5.649z" fill="#4A4A4A"/></svg>