<svg width="171" height="82" fill="none" xmlns="http://www.w3.org/2000/svg"><path d="M85.788 18.08c-33.734 0-60.774 10.17-60.774 22.92 0 12.675 27.263 22.924 60.774 22.924 33.511 0 60.775-10.284 60.775-22.923 0-12.64-27.264-22.922-60.775-22.922z" fill="#4A4A4A"/><path d="M109.726 45.856c.017.105.153.206.286.253.049.017.073.05.022.161-.378.816-.726 1.286-1.201 1.995-.436.655-.928 1.166-1.523 1.658-.897.747-2.144 1.56-3.175 1.013-.457-.239-.655-.883-.646-1.405.021-1.467.67-2.973 1.868-4.453 1.461-1.809 3.076-2.747 4.136-2.234 1.095.526.745 1.803.255 2.805a.276.276 0 00-.022.207zm11.765-11.431c.079-.14-.004-.242-.18-.242l-3.071.002c-.227 0-.345.027-.452.24-.352.679-4.644 7.15-5.443 8.406-.134.191-.299.164-.318-.055-.081-.746-.722-1.604-1.731-2.015-.77-.314-1.521-.37-2.304-.266-1.411.19-2.669.94-3.775 1.785-1.666 1.274-3.104 2.926-4.96 4.146-1.013.664-2.401 1.244-3.33.379-.84-.784-.745-2.524.54-3.87.136-.141.299-.022.273.103-.121.609.027 1.214.487 1.639.561.506 1.364.563 2.05.225.811-.404 1.288-1.184 1.427-2.07.215-1.373-.836-2.585-2.152-2.682-1.069-.076-2.093.298-3.092 1.127-.5.418-.785.727-1.218 1.346-.105.153-.267.168-.262-.057.049-1.76-.674-2.749-2.12-2.78-1.121-.028-2.32.584-3.254 1.334-1.025.827-1.92 1.924-2.88 2.954-.12.127-.224.12-.257-.125-.028-1.166-.32-2.294-.857-3.096-.19-.279-.589-.417-.924-.229-.155.086-.694.335-1.087.653-.194.161-.27.395-.184.694a8.184 8.184 0 01-.298 5.392c-.645 1.531-1.898 2.912-3.371 3.38-.97.309-1.979.157-2.603-.708-.857-1.194-.511-3.27.767-4.995 1.127-1.518 2.758-2.483 4.385-3.104.192-.074.231-.198.177-.361-.088-.27-.23-.636-.286-.803-.15-.4-.568-.464-1.078-.408-1.182.138-2.248.545-3.302 1.113-2.758 1.485-4.141 4.361-4.747 5.9-.292.738-.542 1.2-.864 1.608-.435.55-.98 1.05-1.979 1.932a.353.353 0 00-.082.406c.102.212.621.95.768 1.016.162.08.351-.033.427-.087.698-.476 1.534-1.23 1.942-1.743.144-.175.291-.102.367.165.382 1.37 1.381 2.487 2.763 2.955 2.53.858 5.152-.384 7.133-2.545 1.258-1.375 1.712-2.258 2.195-2.859.817-1.019 2.43-3.298 4.35-4.761.705-.54 1.538-.951 1.957-.678.337.22.446.729-.094 1.716-1.959 3.597-4.84 7.823-5.368 8.847-.097.178-.011.318.173.318 1.025-.005 2.04-.002 2.97-.002.155-.006.225-.08.302-.19 1.503-2.365 2.917-4.617 4.433-6.946.085-.137.163-.032.166.028.033.54.163 1.279.483 1.764.573.897 1.385 1.282 2.285 1.288.717.011 1.08-.1 1.852-.391a6.485 6.485 0 001.521-.821c.226-.159.266.107.261.147-.348 1.878.081 4.104 1.937 5.027 2.222 1.101 4.661-.447 6.065-1.845.138-.134.285-.12.299.17.033.534.27 1.167.709 1.61 1.176 1.188 3.55.718 5.933-1.138 1.531-1.187 3.131-2.865 4.577-4.642.054-.07.093-.18-.011-.292-.22-.231-.538-.497-.757-.7-.099-.086-.245-.062-.329.002-1.482 1.418-2.816 3.035-4.745 4.372-.65.456-1.686.825-2.153.19-.18-.245-.16-.586.017-1.032.562-1.41 9.463-15.041 9.925-15.845" fill="#101010"/><path d="M79.615 36.07c.038.202.117.242.208.225.453-.091.95-.467 1.243-.901.268-.395.393-.963.127-1.191-.236-.206-.623-.148-.909.107a2.036 2.036 0 00-.669 1.76zM56.93 53.617c-3.319.021-6.242-2.04-6.578-5.611-.187-1.98.37-3.743 1.483-5.196.988-1.295 2.66-2.37 4.075-2.633.46-.085 1.079-.033 1.334.275.402.47.286.986-.115 1.192-1.08.554-2.378 1.503-3.021 2.8-.521 1.057-.627 2.332.17 3.546 1.332 2.024 5.047 2.08 8.502-1.148a29.773 29.773 0 002.399-2.448c1.521-1.75 2.027-2.387 4.05-5.209.021-.033.032-.075.021-.096-.016-.038-.043-.044-.103-.05-1.35.039-2.528.443-3.672 1.303-.329.242-.803.208-1.01-.11-.232-.36-.066-.829.314-1.093 1.84-1.288 3.85-1.521 5.904-1.87-.002 0 .142.006.26-.15.843-1.087 1.48-2.069 2.378-3.17.905-1.116 2.074-2.14 2.968-2.91 1.247-1.08 2.047-1.442 2.86-1.887.214-.113-.028-.247-.093-.247-4.538-.858-9.255-1.968-13.762-.29-3.121 1.171-4.489 3.661-3.831 5.325.468 1.18 2.011 1.372 3.456.66a7.826 7.826 0 003.097-2.77c.44-.682 1.368-.19.867.993-1.32 3.118-3.839 5.59-6.908 5.695-2.612.086-4.297-1.847-4.291-4.232.01-4.703 5.216-7.8 10.686-8.264 6.588-.547 12.827 1.218 19.368 2.016 5.012.61 9.817.623 14.854-.54.596-.131 1.013.251.975.856-.049.875-.723 1.717-2.382 2.627-1.887 1.04-3.86 1.357-5.922 1.374-4.985.043-9.629-1.913-14.434-2.963.005.211.06.463-.115.597-2.662 1.975-5.068 3.98-6.68 6.797-.054.065-.026.126.07.12 1.399-.075 2.657-.111 3.963-.216.228-.022.237-.077.217-.244-.116-.97.166-2.078 1.015-2.84.87-.783 1.957-.872 2.678-.308.82.643.748 1.799.3 2.666-.457.88-1.211 1.35-1.935 1.578 0 0-.152.033-.13.172.028.222 1.015.771 1.1.918.081.14.038.355-.11.52a.621.621 0 01-.478.23c-.17-.003-.272-.062-.488-.18-.443-.241-.996-.638-1.365-1.105-.125-.158-.19-.161-.503-.144a90.088 90.088 0 00-5.11.484c-.362.044-.416.113-.49.24-2.38 3.948-4.923 8.206-7.713 11.057-2.994 3.057-5.482 3.862-8.124 3.883" fill="#101010"/><path d="M85.787 21.827c-31.033 0-56.189 8.626-56.189 19.181 0 10.556 25.156 19.183 56.19 19.183 31.033 0 56.187-8.627 56.187-19.183 0-10.555-25.154-19.18-56.188-19.18zm0 40.102c-32.163 0-58.236-9.367-58.236-20.92 0-11.557 26.073-20.922 58.236-20.922 32.161 0 58.233 9.365 58.233 20.921 0 11.554-26.072 20.92-58.233 20.92z" fill="#101010"/><path d="M85.788 18.08c-33.734 0-60.774 10.17-60.774 22.92 0 12.675 27.263 22.924 60.774 22.924 33.511 0 60.775-10.284 60.775-22.923 0-12.64-27.264-22.922-60.775-22.922z" fill="#4A4A4A"/><path d="M109.726 45.856c.017.105.153.206.286.253.049.017.073.05.022.161-.378.816-.726 1.286-1.201 1.995-.436.655-.928 1.166-1.523 1.658-.897.747-2.144 1.56-3.175 1.013-.457-.239-.655-.883-.646-1.405.021-1.467.67-2.973 1.868-4.453 1.461-1.809 3.076-2.747 4.136-2.234 1.095.526.745 1.803.255 2.805a.276.276 0 00-.022.207zm11.765-11.431c.079-.14-.004-.242-.18-.242l-3.071.002c-.227 0-.345.027-.452.24-.352.679-4.644 7.15-5.443 8.406-.134.191-.299.164-.318-.055-.081-.746-.722-1.604-1.731-2.015-.77-.314-1.521-.37-2.304-.266-1.411.19-2.669.94-3.775 1.785-1.666 1.274-3.104 2.926-4.96 4.146-1.013.664-2.401 1.244-3.33.379-.84-.784-.745-2.524.54-3.87.136-.141.299-.022.273.103-.121.609.027 1.214.487 1.639.561.506 1.364.563 2.05.225.811-.404 1.288-1.184 1.427-2.07.215-1.373-.836-2.585-2.152-2.682-1.069-.076-2.093.298-3.092 1.127-.5.418-.785.727-1.218 1.346-.105.153-.267.168-.262-.057.049-1.76-.674-2.749-2.12-2.78-1.121-.028-2.32.584-3.254 1.334-1.025.827-1.92 1.924-2.88 2.954-.12.127-.224.12-.257-.125-.028-1.166-.32-2.294-.857-3.096-.19-.279-.589-.417-.924-.229-.155.086-.694.335-1.087.653-.194.161-.27.395-.184.694a8.184 8.184 0 01-.298 5.392c-.645 1.531-1.898 2.912-3.371 3.38-.97.309-1.979.157-2.603-.708-.857-1.194-.511-3.27.767-4.995 1.127-1.518 2.758-2.483 4.385-3.104.192-.074.231-.198.177-.361-.088-.27-.23-.636-.286-.803-.15-.4-.568-.464-1.078-.408-1.182.138-2.248.545-3.302 1.113-2.758 1.485-4.141 4.361-4.747 5.9-.292.738-.542 1.2-.864 1.608-.435.55-.98 1.05-1.979 1.932a.353.353 0 00-.082.406c.102.212.621.95.768 1.016.162.08.351-.033.427-.087.698-.476 1.534-1.23 1.942-1.743.144-.175.291-.102.367.165.382 1.37 1.381 2.487 2.763 2.955 2.53.858 5.152-.384 7.133-2.545 1.258-1.375 1.712-2.258 2.195-2.859.817-1.019 2.43-3.298 4.35-4.761.705-.54 1.538-.951 1.957-.678.337.22.446.729-.094 1.716-1.959 3.597-4.84 7.823-5.368 8.847-.097.178-.011.318.173.318 1.025-.005 2.04-.002 2.97-.002.155-.006.225-.08.302-.19 1.503-2.365 2.917-4.617 4.433-6.946.085-.137.163-.032.166.028.033.54.163 1.279.483 1.764.573.897 1.385 1.282 2.285 1.288.717.011 1.08-.1 1.852-.391a6.485 6.485 0 001.521-.821c.226-.159.266.107.261.147-.348 1.878.081 4.104 1.937 5.027 2.222 1.101 4.661-.447 6.065-1.845.138-.134.285-.12.299.17.033.534.27 1.167.709 1.61 1.176 1.188 3.55.718 5.933-1.138 1.531-1.187 3.131-2.865 4.577-4.642.054-.07.093-.18-.011-.292-.22-.231-.538-.497-.757-.7-.099-.086-.245-.062-.329.002-1.482 1.418-2.816 3.035-4.745 4.372-.65.456-1.686.825-2.153.19-.18-.245-.16-.586.017-1.032.562-1.41 9.463-15.041 9.925-15.845" fill="#EFEFEF"/><path d="M79.615 36.07c.038.202.117.242.208.225.453-.091.95-.467 1.243-.901.268-.395.393-.963.127-1.191-.236-.206-.623-.148-.909.107a2.036 2.036 0 00-.669 1.76zM56.93 53.617c-3.319.021-6.242-2.04-6.578-5.611-.187-1.98.37-3.743 1.483-5.196.988-1.295 2.66-2.37 4.075-2.633.46-.085 1.079-.033 1.334.275.402.47.286.986-.115 1.192-1.08.554-2.378 1.503-3.021 2.8-.521 1.057-.627 2.332.17 3.546 1.332 2.024 5.047 2.08 8.502-1.148a29.773 29.773 0 002.399-2.448c1.521-1.75 2.027-2.387 4.05-5.209.021-.033.032-.075.021-.096-.016-.038-.043-.044-.103-.05-1.35.039-2.528.443-3.672 1.303-.329.242-.803.208-1.01-.11-.232-.36-.066-.829.314-1.093 1.84-1.288 3.85-1.521 5.904-1.87-.002 0 .142.006.26-.15.843-1.087 1.48-2.069 2.378-3.17.905-1.116 2.074-2.14 2.968-2.91 1.247-1.08 2.047-1.442 2.86-1.887.214-.113-.028-.247-.093-.247-4.538-.858-9.255-1.968-13.762-.29-3.121 1.171-4.489 3.661-3.831 5.325.468 1.18 2.011 1.372 3.456.66a7.826 7.826 0 003.097-2.77c.44-.682 1.368-.19.867.993-1.32 3.118-3.839 5.59-6.908 5.695-2.612.086-4.297-1.847-4.291-4.232.01-4.703 5.216-7.8 10.686-8.264 6.588-.547 12.827 1.218 19.368 2.016 5.012.61 9.817.623 14.854-.54.596-.131 1.013.251.975.856-.049.875-.723 1.717-2.382 2.627-1.887 1.04-3.86 1.357-5.922 1.374-4.985.043-9.629-1.913-14.434-2.963.005.211.06.463-.115.597-2.662 1.975-5.068 3.98-6.68 6.797-.054.065-.026.126.07.12 1.399-.075 2.657-.111 3.963-.216.228-.022.237-.077.217-.244-.116-.97.166-2.078 1.015-2.84.87-.783 1.957-.872 2.678-.308.82.643.748 1.799.3 2.666-.457.88-1.211 1.35-1.935 1.578 0 0-.152.033-.13.172.028.222 1.015.771 1.1.918.081.14.038.355-.11.52a.621.621 0 01-.478.23c-.17-.003-.272-.062-.488-.18-.443-.241-.996-.638-1.365-1.105-.125-.158-.19-.161-.503-.144a90.088 90.088 0 00-5.11.484c-.362.044-.416.113-.49.24-2.38 3.948-4.923 8.206-7.713 11.057-2.994 3.057-5.482 3.862-8.124 3.883" fill="#EFEFEF"/><path d="M85.787 21.827c-31.033 0-56.189 8.626-56.189 19.181 0 10.556 25.156 19.183 56.19 19.183 31.033 0 56.187-8.627 56.187-19.183 0-10.555-25.154-19.18-56.188-19.18zm0 40.102c-32.163 0-58.236-9.367-58.236-20.92 0-11.557 26.073-20.922 58.236-20.922 32.161 0 58.233 9.365 58.233 20.921 0 11.554-26.072 20.92-58.233 20.92z" fill="#EFEFEF"/></svg>