<svg width="127" height="60" fill="none" xmlns="http://www.w3.org/2000/svg"><path fill-rule="evenodd" clip-rule="evenodd" d="M.18 44.185h4.892v5.42h8.74v-5.42h4.83v15.211h-4.83v-6.404H5.008v6.343H.18v-15.15zm19.012 0h4.767l5.013 5.851 4.952-5.85h4.706l-7.274 9.298v5.912h-4.83v-6.343l-7.334-8.868zm20.05 0h4.83v11.763h7.762c1.223 0 2.017-1.23 2.017-2.525v-9.238h4.829v12.133c0 1.909-2.139 3.017-3.362 3.017H39.242v-15.15zm20.477 0h16.078c1.895 0 3.423 1.17 3.423 3.543v11.638l-4.829.03v-9.237c0-1.291-.428-2.062-2.079-2.062h-7.274V59.43h-5.32V44.185zm20.969 0h14.058c2.813 0 4.983 2.278 4.983 4.033v6.99c-.031 1.232-1.743 4.187-3.881 4.187h-15.16v-15.21zm4.92 11.825h7.42c1.068 0 1.895-.8 1.895-1.787v-4.434c0-1.078-.88-1.722-2.009-1.722h-7.306v7.943zm20.082-11.89h15.068v15.276h-5.381v-3.94h-9.261v3.94h-5.44V49.48c-.123-3.325 2.813-5.36 5.014-5.36zm.365 5.425v2.46h9.292v-3.88h-7.826c-.915 0-1.466.556-1.466 1.42zm15.68-5.39h4.829v15.703h-4.829V44.155zM63.666.145c-20.039 0-36.285 8.081-36.285 18.048 0 9.967 16.246 18.049 36.285 18.049 20.038 0 36.284-8.082 36.284-18.05C99.949 8.228 83.703.146 63.666.146zm-3.442 4.017c4.141-1.476 16.445 0 21.225 2.312 1.529 1.478-6.82 6.227-16.763 8.286-14.214 2.888-7.458-8.158-4.462-10.598zM35.813 25.547c-3.125-2.245-9.243-8.669.892-15.347 5.354-3.146 8.35-3.855 12.046-4.624 1.785-.387 3.06.064 1.466 1.413-3.378 3.532-10.39 15.218-11.026 17.788-.51 1.736-1.53 2.183-3.378.77zm29.19 7.451c-5.99.64-19.31-1.349-19.567-3.08.256-4.178 21.161-11.113 24.92-7.26 1.596 3.018-1.463 10.147-5.353 10.34zm30.468-12.14c-1.531 3.532-6.693 7.516-17.528 10.214-1.659.382-2.232-.644-1.149-1.607 1.787-1.092 10.391-15.605 11.474-18.496.638-1.478 1.848-.898 2.614-.321 3.442 2.247 6.055 5.908 4.589 10.21z" fill="#4A4A4A"/></svg>