<svg width="171" height="82" fill="none" xmlns="http://www.w3.org/2000/svg"><path d="M81.91 72.714c-4.163-.11-8.754-.48-12.817-1.03-17.299-2.34-31.795-8.307-39.864-16.407-3.422-3.436-5.591-7.21-6.322-11.004-.238-1.235-.295-1.84-.295-3.174 0-1.333.057-1.938.295-3.173.48-2.494 1.622-5.066 3.307-7.449 3.81-5.389 10.495-10.187 19.266-13.827 14.62-6.068 33.762-8.471 52.403-6.58 21.882 2.22 39.884 10.253 47.027 20.983 3.265 4.905 4.065 10.233 2.318 15.44-1.009 3.008-2.969 6.013-5.729 8.783-7.646 7.676-21.103 13.464-37.254 16.025-7.223 1.145-14.67 1.616-22.336 1.413zm9.542-4.05c8.759-.546 16.155-1.84 23.363-4.09 5.719-1.786 11.049-4.258 15.141-7.021 2.063-1.393 3.493-2.568 5.112-4.2 1.921-1.937 3.161-3.636 4.17-5.717 1.13-2.327 1.567-4.152 1.567-6.537 0-2.399-.465-4.32-1.61-6.64-.989-2.006-2.25-3.722-4.127-5.614-2.756-2.778-6.031-5.07-10.359-7.249-8.1-4.079-18.236-6.748-29.528-7.775-6.254-.568-13.36-.569-19.634 0-15.875 1.438-29.502 6.177-37.934 13.194-1.07.89-2.976 2.826-3.775 3.834-2.857 3.603-4.206 7.49-3.899 11.236.335 4.081 2.162 7.68 5.721 11.268 2.697 2.719 5.902 4.978 10.071 7.099 9.493 4.828 21.159 7.595 34.878 8.273 1.55.077 9.333.033 10.843-.061zm-44.5-11.562a.95.95 0 01-.274-.21c-.136-.152-.137-.262-.155-14.885l-.017-14.732-.182-.19c-.171-.18-.218-.192-.871-.21l-.691-.02v-1.858l4.971-.017 4.971-.018.211.179.211.178v5.312c0 5.836-.015 5.617.402 5.617.259 0 .348-.108 1.79-2.167 3.82-5.455 5.922-8.421 6.112-8.627.467-.508.255-.488 5.09-.49h4.33l.166.165c.203.204.28.483.187.682-.059.126-1.932 2.925-8.474 12.657-.715 1.063-.914 1.409-.912 1.583.002.18.466.882 2.45 3.697 8.766 12.445 8.794 12.485 8.82 12.737.021.189-.013.294-.144.447l-.17.2-4.523.019c-4.459.018-4.527.016-4.855-.126a1.78 1.78 0 01-.503-.328c-.093-.101-2.154-2.986-4.58-6.411-2.427-3.425-4.46-6.269-4.52-6.319-.17-.14-.478-.073-.578.126-.067.134-.086 1.536-.087 6.412v6.241l-.166.193-.165.193-3.854.014c-2.12.008-3.916-.012-3.99-.044zm34.34-.03a.655.655 0 01-.291-.277c-.065-.144-.084-3.418-.084-14.844V27.292l-.2-.201c-.193-.194-.222-.201-.855-.201h-.655v-1.927h10.122l.224.201.223.2v31.387l-.19.19-.189.191-3.95.016c-3.163.012-3.99-.003-4.155-.077zm14.71.012c-.213-.123-.304-.276-.306-.516-.001-.121.97-3.14 2.158-6.71l4.2-12.612c1.121-3.368 2.303-6.911 2.628-7.873.324-.962.59-1.833.59-1.936a.657.657 0 00-.131-.35c-.117-.146-.2-.166-.804-.197l-.673-.035-.02-.946-.019-.946h6.074c3.987 0 6.161.026 6.329.073.141.039.29.135.331.213.086.16.767 2.186 3.977 11.825 5.222 15.682 6.416 19.301 6.416 19.449 0 .242-.135.484-.318.568-.116.053-1.33.076-3.978.076-3.492 0-3.83-.01-4.045-.12a1.2 1.2 0 01-.36-.294c-.07-.095-.6-1.659-1.179-3.475-5.523-17.311-5.37-16.839-5.494-16.978-.137-.154-.241-.152-.384.005-.112.126-.325.784-3.327 10.3-.872 2.762-1.812 5.735-2.089 6.605-.276.87-.631 1.993-.788 2.495-.309.986-.445 1.22-.794 1.367-.3.127-7.776.137-7.994.012z" fill="#4A4A4A"/></svg>