<svg width="171" height="82" fill="none" xmlns="http://www.w3.org/2000/svg"><path fill-rule="evenodd" clip-rule="evenodd" d="M87.14 16.77c-2.445 3.024-9.42 12.791-10.214 14.056-1.53 2.423-1.665 3.597-1.71 4.38-.045.768-.045 2.152 1.2 3.281 2.085 1.866 5.01 1.565 7.605 1.565h21.375c.915 0 1.185-.271 1.68-.933 1.71-2.62 2.475-5.464 2.475-8.007 0-5.449-3.524-12.311-12.45-15.412l-1.005 1.445c7.079 3.37 10.005 7.78 10.005 13.95.045 1.657-.39 3.447-1.47 5.103H83.84c-1.245 0-1.425-1.414-.975-2.212a83.25 83.25 0 015.955-9.165c2.1-2.815 4.17-5.449 6.345-8.203.585-.767.194-1.505-.975-1.745-2.43-.512-4.965-.873-8.04-.873-17.054 0-23.295 9.827-23.295 17.112 0 7.901 6.285 17.067 23.34 17.067 9.465 0 15.661-3.056 19.245-6.984h-3.615c-3.136 2.905-8.52 4.968-15.63 4.968-14.445 0-19.77-8.143-19.77-15.157.105-6.26 5.82-14.9 20.13-15.185.54-.015.961.481.585.948zm51.301 45.103c.855.121 1.515.798 1.515 1.597 0 .901-.81 1.624-1.801 1.624h-18.329V53.069h-5.401v12.056h-9.93c-2.684 0-3.239-1.641-3.239-3.146v-8.985h-8.955c-.885.602-1.74 1.265-2.655 1.821l-5.31 3.28-6.9-5.056h-10.74v3.026h3.884v-1.657l9.135 6.578-6.24 3.927h-6.78v3.025h7.845c.84-.571 1.635-1.173 2.505-1.7l5.46-3.326 6.93 4.967h7.89L86.9 60.007l5.356-3.505c1.14-.754 2.34-1.385 3.51-2.077v7.916c0 3.341.855 5.659 7.56 5.659l37.876-.09c2.924.044 4.799-1.986 4.799-4.439 0-2.44-2.16-4.44-4.799-4.44h-13.68c.18-1.67 1.619-3.07 3.074-3.07h13.845l-.044-2.904H129.71c-4.65 0-8.369 3.867-8.474 8.368-.015.316.194.51.54.51l16.665-.062zm-71.746-.044v-3.086h2.67v3.086h-2.67zm0-8.79h-10.14c-2.745 0-4.86.723-6.42 1.956-2.804 2.228-3.704 4.575-3.674 5.63h3.66c-1.606 1.204-2.686 2.647-3.255 4.319H34.865c-2.16 0-3.556-1.535-3.556-3.025v-8.985H26v9.331c0 3.356 3.18 5.673 8.28 5.673h32.415v-3.025h-12.87c.06-1.534 1.695-3.084 3.18-3.084h9.69v-3.086h-13.02c-.18-.903 1.5-2.678 2.79-2.678h10.23v-3.026z" fill="#4A4A4A"/></svg>