<svg width="171" height="82" fill="none" xmlns="http://www.w3.org/2000/svg"><g clip-path="url(#clip0_781_27406)" fill-rule="evenodd" clip-rule="evenodd"><path d="M103.542 10.86c.245.062.318.148.438.393.088 5.548.016 16.067-.132 21.542-.4 5.61-2.824 10.633-6.232 14.734-2.56 3.079-8.41 6.96-11.326 7.63-4.649-.65-9.17-3.754-12.454-7.668-3.388-4.036-5.63-8.978-5.864-13.107-.424-7.524-.384-14.913-.387-22.443 0-.098.121-.254.193-.29 1.93-.916 4.61-1.793 7.505-2.388 3.759-.773 7.675-1.184 10.898-1.12 2.98.056 6.283.283 9.449.756a42.59 42.59 0 017.912 1.961z" fill="#231F20"/><path d="M103.137 11.522c.045.02.025.089.055.136l.014 5.418c0 .145-.133.1-.233.056-1.612-.694-4.95-1.808-8.785-2.509-2.588-.474-5.329-.76-7.992-.603-.17.01-.19.117-.19.24l-.01 3.742c0 .082.056.122.212.122h16.919v.43h-17.01c-.085 0-.182.098-.182.184v4.234c0 .142.153.248.268.122l.28-.306c.121.061.244.184.366.061.122-.06.244-.183.182-.369-.121-.122-.242-.184-.365-.122-.061 0-.123.062-.182.062 0-.185-.062-.369.12-.491 0 .184.185.306.306.367.12 0 .243-.183.304-.245.063-.122-.06-.245-.121-.306.121 0 .243-.123.304-.246.062-.123-.12-.246-.244-.368-.122-.06-.243.122-.304.183-.06.185 0 .308.122.369a.463.463 0 00-.244.123c0-.123-.184-.184-.243-.369.12.062.243-.06.365-.184 0-.06.06-.122 0-.183l-.122-.123c.122-.062.244-.122.304-.307.062-.123-.121-.245-.182-.306-.122-.061-.183 0-.245.06-.06.061-.06.061-.12.061-.031-.091-.008-.175.01-.255.055-.238.218-.435-.01-.664 0-.184.11-.286.305-.246.119.024.12.307.242.368.183 0 .246-.122.305-.245.123-.061 0-.184 0-.307.123.062.306-.06.427.062-.06.061-.121.061-.183.122-.06.123-.183.184-.121.368.12.061.244.185.364.123.124-.062.246-.184.184-.368l-.122-.123c.122 0 .244-.184.367-.184 0 .123.122.246.243.307.183.06.244-.061.305-.184.062-.061.062-.123.121-.123.061.123-.121.184 0 .307.061.123.183.306.366.184.062 0 .062-.123.121-.123 0 .184.124.245.246.307.12.062.243-.062.365-.184.061-.123-.122-.245-.182-.368-.123-.061-.305.06-.367.123 0-.062-.062-.123-.062-.246.246-.06.49.184.734 0 .12 0 .06.123.12.184l.123.062a.746.746 0 00-.305.306.34.34 0 00.183.307c.183.123.304-.122.366-.246a.466.466 0 00-.123-.245c.123-.061.306-.184.367-.368h.12a.476.476 0 00-.12.307c.12.123.244.306.366.184.12-.061.183-.184.243-.307l-.122-.184c.305-.122.61.246.914 0 .123 0 .123.246.305.246.183.061.245-.184.305-.246h.123c-.062.123-.183.184-.123.307l.123.123c-.123 0-.245.183-.306.307-.06.122.123.245.244.368.123 0 .244-.123.305-.246.062-.122-.06-.246-.12-.307.12 0 .241-.122.303-.245s-.062-.184-.12-.307c.182 0 .486-.06.607.062.184.061.243-.123.366-.062a.483.483 0 00.244.246c.182 0 .245-.123.367-.184 0-.123.121-.062.121-.062 0 .123-.12.184-.062.307 0 .06.123.123.123.184-.181-.061-.244.122-.304.246-.063.184.122.245.243.368.123 0 .184-.123.244-.184 0 .122.122.245.243.306.123.062.306-.06.367-.183.06-.123-.061-.247-.123-.307.123 0 .246-.124.305-.246.06-.184-.122-.245-.183-.368-.122-.061-.243.06-.304.123a.463.463 0 01-.123-.246c.305-.122.55.184.794 0 .06-.06.06.123.122.123.06.123.181.184.304.123.183-.062.123-.246.306-.246 0 .062-.06.123-.06.246.12.061.242.306.424.122.123-.061.245-.184.122-.368.306-.122.55.246.854 0 .122 0 .185.246.305.246.182.061.305-.307.366.061.061.06.183.184.366.06.06-.06.183-.183.121-.305 0-.062-.061-.062 0-.062h.367c-.062.062-.244.123-.305.246 0 .122 0 .184.122.306.06.061.183.061.305.061.123-.122.183-.245.123-.43l-.063-.06c0-.061.183-.123.245-.123.12 0 .182.184.304.246.244.061.304-.123.367-.246h.059c0 .062-.059.123 0 .246.123.061.244.306.367.122.183-.061.243-.245.183-.368.306.062.793-.184.914.184-.061 0-.182.062-.244.184 0-.122-.122-.245-.245-.306-.119-.062-.242.061-.365.184-.06.184.123.245.246.367.119 0 .181-.061.242-.122a.739.739 0 00.305.306c.122 0 .243-.122.366-.184 0-.122-.123-.245-.123-.367.123 0 .244-.184.306-.246-.122.184.304.43 0 .552-.122.061-.183.185-.122.307.06.062.122.123.122.184-.183-.061-.244.123-.306.184-.121.184.062.307.184.368.06.062.122 0 .243 0v.37a.742.742 0 00-.304-.308c-.123 0-.244.122-.305.245s.061.245.182.306c.123.123.244 0 .306-.121l.121.367c-.121.062-.365.246-.243.43.06.123.243.123.243.306-.121-.061-.243-.122-.304 0-.061.062-.244.184-.123.308l.123.122c-.123.062-.305.184-.305.307.121.122.366.06.488.06 0-.06.06-.06.06-.121-.06-.062-.122-.062-.122-.184l.146-.073.092-.111.017.931-10.039-.011c-.122 0-.209.036-.214.123l.06 3.742.149.086 9.887-.025.03.492h-9.937c-.121 0-.133.062-.133.184l.041 4.294c.003.136.228.061.35.061.06 0-.019-.245.102-.183.122.061.244.183.366.122.121-.122.243-.184.183-.368-.123-.122-.245-.246-.365-.184l-.122.062c0-.124-.062-.308.06-.43.062 0 .062.062.062.122.12.124.242.184.365.184.122-.122.244-.244.181-.43l-.121-.122c.121 0 .244-.122.305-.244.062-.123-.121-.246-.184-.307-.18-.124-.303.061-.364.184-.182.123.305.307 0 .367l-.182.062c.06-.122-.367-.306-.062-.368.122-.061.304-.184.244-.37l-.122-.121c.122 0 .243-.123.305-.245.06-.185-.123-.307-.245-.369-.12 0-.182.062-.304.124-.12-.368.304-.614 0-.86 0-.183.244-.061.304-.245 0 .062.123.246.245.307.122.06.244-.123.365-.245 0-.123-.06-.185-.121-.247.121-.06.183-.184.366-.184 0 .062.061.184.12.246-.12 0-.243.123-.303.245-.062.185.06.245.183.369.183.062.305-.124.364-.245 0-.124-.059-.184-.12-.246.12-.061.305-.185.366-.369 0 0 0-.061.06-.061 0 .123-.183.307 0 .43.122.062.182.184.305.122.122-.122.244-.245.182-.367 0-.062-.06-.062-.06-.124.306-.122.609.124.852 0 .123-.061.123.124.184.184.062.124.185.185.365.124 0-.062.062-.062.062-.124.061.062.122.185.182.247-.12 0-.244.184-.305.245-.06.184.123.306.245.368.122 0 .243-.122.305-.184.06-.184-.061-.245-.123-.37.123 0 .244-.121.306-.244.061-.122-.062-.184-.062-.246.367-.122.61.184.915 0 .122.124.244.308.427.184.122 0 .122-.245.305-.184 0 .124-.183.184-.062.308.122.06.183.307.367.183l.121-.122c.062.062.062.184.184.246-.122.061-.305.121-.305.245-.061.184.06.246.183.368.122 0 .305-.062.365-.184.062-.122-.06-.246-.12-.368.12 0 .242-.123.302-.245.062-.123-.06-.247-.182-.307-.12-.062-.243 0-.305.122l-.122-.246c.307-.122.549.184.854 0 .123.124.243.308.365.184.123 0 .123-.122.244-.122 0 .122.123.246.184.307.06.062.182.062.243 0 .122-.123.185-.185.185-.369.426.124 1.096-.183 1.156.43-.122-.061-.243-.246-.366-.122l-.121.123a1.318 1.318 0 00-.243-.307c-.184-.124-.307.06-.367.184-.059.123 0 .245.122.307-.122 0-.304.121-.304.307-.062.122.06.184.182.306.183.06.305-.122.367-.246.061-.122-.062-.184-.123-.306a.456.456 0 00.244-.123c0 .123.122.245.305.307.122.062.182-.062.244-.124 0 .124.06.43-.062.553-.06.185.062.245.122.306-.122.062-.304.184-.304.308 0 .183.244.245.244.429-.062-.06-.244-.06-.306.062-.121.061-.121.183-.121.245.06.122.183.184.305.184h.122c.06.246-.122.43-.062.676.122.06.122.122.122.182-.122.062-.182.124-.243.185 0 .06.061.122.121.122v.43l-9.7.025c-.057 0-.175.102-.175.16.006 1.607-.616 3.118-1.715 4.309-1.171 1.269-2.778 2.213-4.87 2.439-.264.03-.224.14-.224.32v14.222c-.031.082-.324.169-.324-.308l-.062-6.053c-.001-.137-.143-.306-.264-.306l-10.445-.001c-.183-.144-.283-.246-.385-.45h10.933c.081 0 .161-.102.161-.184v-4.173c0-.174-.088-.183-.223-.183L71.68 42.8c-.122-.184-.194-.256-.255-.44 0 0 0-.062.06-.062-.244-.122-.181-.245-.364-.43v-.06h.06c-.06.183.123.245.244.368.123 0 .183-.063.306-.123 0 .06.12.183.182.245.121.062.183 0 .305-.062.06-.06.12-.183.12-.245-.12-.123-.242-.307-.425-.245l-.122.122c0-.122-.123-.184-.183-.306-.122 0-.245 0-.367.122-.06-.122-.12-.244-.243-.306.123 0 .243-.123.306-.245.059-.185 0-.245-.124-.369-.242-.245-.425.369-.487-.122l-.123-.062c.063-.061.245 0 .306-.184.122 0 .062.123.122.184.06.062.243.184.365.062.062-.062.185-.184.123-.307-.123-.123-.182-.245-.365-.185l-.123.124c0-.184-.122-.245-.183-.307-.122-.061-.304-.061-.366.062-.061-.062-.12-.246-.243-.307.122.06.243-.123.305-.184.06-.185 0-.307-.183-.43-.122-.061-.245 0-.365.123l-.123-.306c.123.06.305-.368.366 0 .06.06.122.183.305.122.122-.062.245-.245.182-.368l-.123-.123c.063-.06.245 0 .368 0 .12.061.183.185.366.123.059-.062.121-.123.244-.123-.062.123.12.246.183.307.182.122.303-.061.365-.184l.06-.184.182.062c-.06.06-.242.184-.12.306a.47.47 0 00.243.245c.123-.061.183-.183.305-.245.06-.184-.122-.246-.122-.306.121 0 .245-.124.366-.062.06.122.243.246.426.184l.063-.062c.059-.06.059.062.059.062.061.123.183.246.305.184.122.062.183-.122.245-.184.06-.062 0-.123.06-.184h.182c-.059.062-.242.184-.121.368a.48.48 0 00.245.245.743.743 0 00.304-.306c0-.123-.122-.185-.182-.307.182 0 .425-.124.488.122-.063.062-.246.185-.306.308 0 .183.183.244.306.306.12.061.242-.123.304-.184.06-.184-.062-.245-.121-.306.121 0 .242-.124.304-.246h.06c-.06.184.062.307.183.368.122.062.245.062.304-.061.063.06.123.183.245.245.123.061.305-.062.365-.184.062-.122-.06-.246-.181-.368.305 0 .487 0 .73.122.122.062.184-.122.305-.122-.12.122.305.368 0 .368-.061.122-.243.245-.12.368.059.122.183.245.364.184.06-.062.243-.184.183-.368-.06-.062-.122-.062-.122-.122.122 0 .244-.123.304-.246v-.184c.367 0 .793-.124 1.038.122.182.124.365-.246.365 0 .123.124.245.246.428.185.06-.123.182-.185.182-.307h.305c-.062-.062-.245.122-.305.184 0 .123.06.246.122.306a.724.724 0 00-.304.307c0 .184.182.246.242.307.183.062.245-.06.367-.184.06-.123-.062-.246-.122-.307.122-.061.305-.123.305-.306 0-.123-.123-.185-.123-.307.123-.062.245.062.368.122-.123.124-.245.246-.186.491.063.123.246.184.429.123l.06-.062c0 .062.121.184.183.246.183.184.426-.246.487.062.184.367.612 0 .794.306.242 0 .366.123.547.184v.062c-.122 0-.18 0-.243.121-.122 0-.062-.121-.122-.183-.121-.061-.182-.184-.304-.123-.183.123-.245.246-.183.43.06.122.243.184.366.122l.121-.122c0 .122.122.245.184.306.181.124.304-.061.427-.184.06-.061 0-.184-.062-.246l-.06-.06c.363-.123.547.306.974.184.122.122.244.184.427.122 0 0 .06-.061.121-.061.063.123.123.184.185.307-.122 0-.245.122-.306.184 0 .184.06.368.184.43.243-.123.182.184.243.245-.061.245.06.367.06.552.06.123.122.06.244.06l.122-.06c0-.613.041-1.413 0-2.024-.004-.077-.104-.107-.177-.115-1.516-.19-2.655-.444-4.515-1.97l-11.403.06c-.08-.163-.12-.368-.183-.553l10.974-.061c.062 0 .062-.06.062-.123-.966-.647-1.457-2.733-1.463-3.804l-.054-10.004c0-.045.013-.304.254-.304h6.2c.1 0 .184-.022.183-.122l-.066-8.817c-.002-.08-.106-.22-.212-.217-2.643.085-5.675.318-8.514.924-3.265.697-6.135 1.667-8.46 2.833l-.007-5.314c.04-.022-.012-.228.14-.3 4.772-2.273 11.812-3.309 17.215-3.329 5.033-.02 13.427.88 17.412 2.709z" fill="#BDBEC0"/><path d="M85.228 22.85h-5.695c.122-.246.276-.303.488-.362.073-.021.602-.184.67-.252.183-.185-.325-.223-.549-.246a1.632 1.632 0 00-.896.179c-.393.194-.579.512-.871.874a.347.347 0 01-.266.133c-.426.002-.903.07-1.216.085-.06.003-.106-.1-.106-.141.002-.254.327-.724.612-1.008.194-.191.376-.288.61-.428.074-.045.204-.136.123-.246-.104-.138-.375-.05-.55 0a2.21 2.21 0 00-.792.43c-.535.46-.582.71-.793 1.35-.043.13-.016.213-.098.237-.42.127-.742.241-1.234.357-.183.041-.204-.106-.193-.317.014-.273.14-.64.246-.83.148-.267.393-.465.609-.735.038-.048.085-.184 0-.184-.371 0-.722.07-.976.367-.477.561-.691 1.142-.71 1.768-.001.074.051.185-.043.24-.108.063-.608.24-.886.39-.287.158-.38.082-.372-.128.007-.27-.013-.585.07-.89.096-.343.26-.67.477-.89.061-.06.026-.183-.06-.183-1.12 0-1.205 1.652-1.158 2.406.004.07-.072.205-.186.269-.233.13-.469.263-.645.36-.075.042-.127.027-.248-.004-.122-.184-.181-.424-.445-.576a.458.458 0 00-.524.073c-.123.123-.168.369-.086.478.103.139.183.307.305.43-.061.122-.232.137-.367.245-.17.139-.365.238-.365.49 0 .254.286.629.548.553.294-.084.451-.086.574-.27.183 0 .255.181.403.27.165.1.487.184.67 0a.466.466 0 00.122-.49c-.067-.237-.305-.308-.183-.553.944-.567 2.348-1.192 3.788-1.625 1.231-.372 2.489-.602 3.507-.542.175.01.143.05.143.155v2.933c-.183.245-.489.487-.489.793-.494.055-1.021.07-1.475.133-.134.019-.168-.009-.181-.067-.047-.189-.017-.26.005-.387.06-.361.141-.629.317-.896.216-.326.528-.546.847-.742.103-.064-.161-.12-.286-.068-.542.23-1.097.302-1.421 1.172-.154.417-.076.79-.183 1.166-.017.062-.065.073-.17.1-.301.076-.775.219-1.03.277-.132.03-.178.05-.202-.07-.098-.496-.06-.927.153-1.356.165-.333.282-.5.597-.736.057-.043.067-.123-.068-.108-.135.016-.416.073-.5.12-.383.213-.72.527-.843 1.095-.104.479-.045.895.062 1.292.009.033-.065.086-.139.114a7.86 7.86 0 00-.912.426c-.072.038-.098.02-.178.012-.043-.004-.064-.06-.082-.098-.14-.295-.166-.764-.071-1.178.068-.3.163-.554.364-.763.094-.097.162-.186.086-.214-.094-.035-.299.03-.46.114-.279.15-.408.338-.53.565-.191.352-.25 1.042-.13 1.44.076.248.065.294.096.511.012.095-.035.12-.087.172-.087.088-.248.187-.384.271-.121.124-.177.064-.29-.066-.245-.28-.562-.546-.842-.374-.115.071-.129.038-.22.185-.114.184-.023.404.099.608.108.182.23.355-.05.483a.78.78 0 00-.427.43.59.59 0 00.032.441c.112.19.41.27.64.173.201-.088.355-.268.548-.43.239-.2.402.269.702.332.18.038.285.052.456-.086.134-.109.289-.26.19-.492-.087-.202-.25-.368-.373-.49.015-.044.007-.084.05-.123.656-.604 2.982-1.413 3.439-1.571.88-.304 2.505-.577 3.34-.577v4.54h-9.938c-.375-4.938-.316-9.927-.365-14.878 2.5-1.258 5.272-2.203 7.802-2.77a44.081 44.081 0 019.049-1.046" fill="#BDBEC0"/><path d="M79.93 15.922c.122-.004.212.114.091.177-.969.517-1.496 1.267-1.651 1.965-.017.075.03.157.105.155.555-.017 1.12 0 1.669.029.182-.308.387-.706.67-.922.511-.385 1.272-.548 1.89-.256.078.037.207.2.122.195-.48-.022-.92-.163-1.54.449-.093.138-.261.38-.276.535-.005.055.068.094.065.12.677.184 1.474.672 1.599 1.106 0 .08-.252.01-.415-.044-2.535-.838-4.308-.496-6.565.043-1.447.347-3.67 1.189-4.39 1.799 0 .045.022.09.053.14.095.148.28.326.252.577-.023.192-.206.308-.366.368-.347.13-.61-.184-.854-.368-.122 0-.135.116-.304.184-.16.064-.43.148-.61.122-.248-.035-.263-.3-.305-.49-.08-.365.427-.492.61-.675-.061-.246-.286-.534-.061-.798.143-.168.295-.245.487-.245.311 0 .489.367.671.552.166-.116.628-.306.915-.49-.15-.453-.197-1.3 0-1.718.257-.547.574-1.053 1.28-1.29.183-.06.596-.072.487.062-.168.207-.787.76-.914 1.104-.124.34-.315.802-.127 1.276.03.081.05.172.158.117.384-.194 1.395-.543 1.817-.654.059-.016.157-.037.164-.123.055-.672.072-1.403.443-1.843.337-.4.85-.855 1.508-.674.058.015.075.08 0 .122-.555.306-.821.648-1.037 1.227-.141.382-.121.595-.121.982.359-.091 1.82-.455 2.01-.496 0-.37.232-.845.435-1.128.443-.62 1.025-1.154 2.035-1.192z" fill="#231F20"/><path d="M86.91 19.106v.061l-.06-.061" fill="#fff"/><path d="M92.03 19.413c0 .062.062.122.062.122.122-.06.244-.182.367-.06.12.06.182.184.12.306-.06.123-.182.246-.304.184-.121-.06-.183-.184-.244-.306-.122.061-.245.184-.365.122-.123-.122-.183-.245-.123-.368.123-.184.428-.245.488 0zm2.014 0c0 .122 0 .246-.122.307-.061.061-.183.061-.245.061-.12-.122-.183-.245-.12-.368 0-.06.12-.122.182-.184.122 0 .244.124.305.184zm4.082 0c.063.184-.12.307-.182.368-.061 0-.12 0-.12.062 0 .061.12.122.12.308.122-.062.182-.247.366-.186.061.124.244.246.12.43-.059.061-.18.184-.304.123-.12-.062-.182-.185-.243-.307-.06.061-.244.245-.365.061-.062-.061-.184-.183-.122-.307.122-.06.184-.184.304-.184-.061-.122-.12-.184-.12-.306 0-.062.12-.184.243-.246.121 0 .243.124.303.184zm-3.473.184c.06.122-.062.306-.184.368-.121.062-.243-.062-.305-.184-.061-.123.062-.245.183-.368.122 0 .244.062.306.184zm2.012 0c.062.122-.061.306-.182.368-.183 0-.306-.062-.366-.184-.062-.184.123-.306.243-.368.123 0 .183.123.305.184z" fill="#231F20"/><path d="M98.738 19.597c0 .06 0 .122.06.184.061-.062.183-.245.305-.123a.34.34 0 01.182.307c-.06.123-.182.246-.365.184-.06-.061-.182-.184-.182-.306-.122.06-.184.184-.367.122-.06-.122-.245-.184-.121-.368 0-.061.121-.184.182-.184a.34.34 0 01.306.184zm2.012 0c0 .122-.123.306-.245.368 0 0-.061 0-.121.062.121.06.182.184.182.245.122-.061.244-.184.367-.061.121.062.244.244.121.368-.061.122-.244.184-.366.06-.122-.06-.122-.184-.183-.244-.061.122-.243.184-.304.122-.122-.122-.245-.184-.184-.368.062-.122.245-.122.304-.246-.12-.06-.182-.184-.12-.306.12-.245.426-.184.549 0z" fill="#231F20"/><path d="M95.507 19.535c0 .123.062.123.122.184l-.244.184c0-.122-.366-.245-.06-.306.06 0 .121-.184.182-.062z" fill="#fff"/><path d="M88.617 19.72c.062 0 0 .123.062.123.06-.122.183-.184.305-.122.06.061.182.122.182.244 0 .124-.06.186-.121.246-.061.062-.123 0-.183.062.122.123.183.245.122.367-.122.062-.183.246-.367.124-.06-.062-.184-.184-.184-.308-.06.062-.182.184-.304.124-.06 0-.183-.124-.243-.184 0-.123.123-.245.243-.307.062 0 .062 0 .122-.062-.122-.062-.183-.184-.122-.306.062-.246.367-.246.488 0zm8.657.061c.061.122 0 .307-.121.368-.183.062-.306-.061-.367-.184-.06-.184.061-.306.184-.368.122 0 .244.062.304.184zm4.085 0c0 .062 0 .184.061.122a.467.467 0 01.304-.122c.062.062.245.246.183.368-.061.123-.244.246-.366.184-.121-.06-.182-.184-.245-.306-.06.06-.182.183-.303.122-.123-.122-.243-.246-.123-.368.063-.245.366-.184.489 0zm-14.143.122c0 .185-.123.246-.245.369-.121 0-.243-.123-.304-.246 0-.123.06-.245.183-.307.121-.061.304.062.366.184zm4.022 0c.06.185-.06.246-.183.369h-.123c.062.123.184.183.184.307.122-.124.183-.184.305-.124.122.124.245.185.182.368-.12.062-.182.246-.365.124-.183 0-.122-.492-.365-.124-.123 0-.245-.122-.306-.244-.062-.124 0-.246.122-.308.06 0 .122 0 .184-.061-.062-.06-.245-.184-.123-.307 0-.122.123-.122.182-.184.123 0 .306.062.306.184zm8.658.062c.061.123-.06.307-.184.368-.12.062-.243-.06-.304-.184-.061-.184.06-.306.183-.368.121-.06.244.122.305.184zm-12.071.123c0 .184-.122.245-.183.367-.183 0-.244-.122-.365-.183-.062-.184.12-.307.243-.369.122-.06.244.062.305.185zm2.011 0c0 .122-.122.245-.183.307-.182.06-.305-.062-.365-.185-.062-.122.06-.245.183-.307.182-.06.243.062.365.185z" fill="#231F20"/><path d="M91.909 20.088c0 .061-.06.122 0 .122.122-.06.245-.184.366-.122.061.122.244.183.122.367-.06.124-.183.185-.305.124-.121 0-.183-.184-.244-.308-.062.124-.182.184-.305.124-.122-.062-.244-.246-.183-.37.123-.244.426-.122.549.063zm1.952 0c0 .122-.06.245-.184.307 0 .06-.12 0-.12.122.12.062.182.123.12.306-.12.124-.243.246-.426.124-.062-.124-.183-.246-.062-.368.062-.124.183-.124.306-.184-.123-.062-.244-.185-.123-.37.123-.244.428-.182.49.063z" fill="#231F20"/><path d="M88.74 20.21c-.061.063-.184.063-.244.185.06-.122-.305-.306-.062-.306.062-.062.122-.124.183-.124 0 .062.062.186.122.246z" fill="#BDBEC0"/><path d="M102.518 20.15c.061.184-.062.305-.184.367-.183 0-.304-.062-.365-.183 0-.185.121-.307.243-.369.122 0 .244.062.306.184zm-12.072.122c0 .123-.06.246-.183.307-.122.061-.244 0-.305-.06-.06-.063-.06-.186-.06-.247.12-.307.488-.183.548 0zm4.084 0c-.06.061 0 .123 0 .123.06-.123.244-.184.366-.123.122.123.182.246.122.368-.062.062-.183.184-.365.123-.062-.061-.123-.184-.184-.307-.122.062-.183.184-.306.123-.06-.06-.182-.123-.182-.184-.061-.184.122-.244.182-.306.123-.062.306.062.367.183zm1.951 0c0 .184-.06.307-.183.307-.06 0-.06.061-.122.061.062.062.183.184.122.308-.06.122-.244.245-.365.184-.122-.124-.245-.246-.122-.37.06-.122.183-.122.304-.183-.061-.123-.244-.184-.121-.307.06-.307.427-.183.487 0zm-3.413.184c0 .123-.123.246-.244.369-.123 0-.245-.123-.305-.246 0-.123.06-.245.182-.306.123-.062.306.061.367.183zm4.085 0c0 .062-.062.062 0 .123.121-.06.181-.183.365-.123.062.123.243.184.122.369-.06.061-.183.184-.306.123-.12-.062-.181-.185-.243-.308-.122.062-.182.246-.305.123-.122-.061-.244-.184-.183-.307.061-.122.123-.183.183-.183.183-.062.245.061.367.183zm1.95 0a.338.338 0 01-.183.307c0 .061-.121 0-.121.123.121.062.121.123.121.246-.062.122-.121.184-.245.184-.121.06-.244-.062-.304-.184 0-.123.06-.246.183-.308.06 0 .121 0 .184-.061-.063-.123-.244-.184-.123-.307 0-.122.123-.183.184-.183.121-.062.242.061.304.183zm-3.414.184a.413.413 0 01-.243.368c-.121 0-.245-.122-.304-.184-.063-.184.06-.306.183-.368.181-.06.303.062.364.184zm4.023 0c.061.184-.061.308-.183.368-.12 0-.244-.122-.306-.184-.058-.184.062-.306.185-.368.121-.06.304.062.304.184zm2.012 0a.34.34 0 01-.183.308c-.061.06-.182 0-.122.122.061.062.183.184.122.308-.122.06-.245.244-.364.122a.335.335 0 01-.184-.306c.06-.124.184-.246.303-.246-.06-.062-.182-.185-.119-.37.119-.182.486-.182.547.063zm-14.084.061c0 .062 0 .122.063.122.06-.06.182-.183.304-.122.122.122.244.246.184.368-.123.124-.245.245-.367.124-.121-.062-.183-.186-.183-.246-.12.06-.244.184-.365.122-.123-.062-.184-.246-.184-.368a.863.863 0 01.243-.184c.123 0 .185.123.306.184zm2.013 0c0 .184-.06.306-.182.368-.063 0-.183-.062-.183.062.12.062.243.183.12.306-.06.123-.182.246-.304.184-.122-.122-.243-.245-.183-.368.122-.122.183-.184.305-.184-.06-.122-.183-.246-.122-.368l.184-.184c.183 0 .243.123.365.184zm8.657.124c0 .122-.06.245-.183.306-.183.062-.244-.06-.366-.122-.06-.184.062-.307.183-.369.122-.061.305.062.366.184zm2.074 0c-.062.06 0 .06 0 .122.122-.122.244-.184.366-.122.122.122.183.245.122.368-.061.062-.184.245-.305.121-.183-.06-.122-.244-.245-.305-.06.122-.182.184-.305.122-.121-.06-.243-.184-.181-.306a.47.47 0 01.244-.246c.121.061.242.123.304.245zm1.95 0c.061.122-.06.245-.183.306-.121.062-.244-.06-.304-.122-.061-.184.06-.307.122-.369.182-.061.305.062.365.184zm-12.071.06v.122c.123-.06.243-.183.366-.06.122.06.245.184.183.306-.122.123-.243.246-.366.123-.122-.062-.183-.183-.244-.245-.06.062-.183.183-.305.062a.34.34 0 01-.183-.308c.122-.245.427-.245.55 0zm2.012 0c.061.184-.121.246-.244.368h-.122c.122.123.245.246.122.37a.333.333 0 01-.305.182c-.122-.122-.243-.245-.182-.368.06-.123.182-.184.304-.244-.062-.062-.244-.186-.122-.308.122-.245.428-.184.55 0zm1.953.062a.337.337 0 01-.184.306c-.061 0-.122 0-.122.061.122.062.122.185.122.308-.061.06-.183.245-.305.184-.121-.123-.244-.184-.244-.369-.122.062-.182.246-.305.185-.12-.123-.304-.246-.182-.37.061-.121.182-.245.305-.183.182.062.182.43.305.245l.243-.121c-.06-.062-.243-.186-.122-.308.061-.245.426-.184.489.062z" fill="#231F20"/><path d="M86.606 20.825c0 .06-.062 0-.122.06v-.122c.06.061.06 0 .122.061z" fill="#fff"/><path d="M88.8 21.07c.062.184-.061.306-.183.368a.335.335 0 01-.305-.184c-.061-.122.061-.306.183-.368.122-.061.244.062.305.184zm4.085 0c.06.184-.061.306-.184.368-.182 0-.304-.062-.365-.184-.06-.184.123-.306.243-.368.122 0 .245.123.306.184zm1.95 0c.061.184-.061.244-.123.306-.059.062-.121 0-.182.062.06.122.244.246.123.368-.062.124-.184.184-.367.124-.06-.062-.182-.184-.123-.308.063-.122.184-.184.306-.246-.06-.062-.183-.183-.121-.306.06-.061.121-.184.243-.184.121 0 .183.123.244.184zm2.074 0c0 .062.06.123.06.123.122-.061.183-.184.365-.123.062.123.184.244.122.368a.334.334 0 01-.304.184c.061.124.244.184.121.368-.06.123-.182.246-.304.123-.123-.062-.244-.183-.183-.307.06-.122.183-.184.305-.246-.122-.06-.122-.246-.245-.246-.06.062-.183.124-.305.062-.12-.062-.182-.183-.12-.306.12-.245.425-.184.488 0zm-5.489.184c.063.122 0 .184-.06.306-.061.062-.183.062-.305.062-.123-.122-.182-.246-.123-.368.062-.246.428-.184.489 0zm4.086 0c0 .122-.06.184-.122.306-.06.062-.182.062-.242.062-.124-.122-.245-.246-.185-.368.122-.246.427-.184.55 0zm4.024 0c0 .061.062.061.062.122.12-.06.243-.183.365-.122.123.122.183.245.123.368a.337.337 0 01-.306.184c.061.124.243.184.122.307-.06.123-.184.306-.367.184-.12-.061-.182-.184-.12-.307.06-.122.183-.184.303-.244-.12-.062-.12-.186-.183-.308-.12.122-.182.246-.364.184-.062-.122-.184-.246-.123-.368.061-.06.123-.122.183-.184.122 0 .244.062.305.184z" fill="#231F20"/><path d="M96.116 21.438c0 .062 0 .062.061.122.062-.06.182-.182.305-.122.122.122.244.246.182.368-.06.062-.182.245-.365.124-.122-.062-.183-.184-.183-.246-.122.062-.245.184-.366.062-.122-.062-.182-.186-.122-.308.06-.244.366-.244.488 0zm2.011 0c.062.122-.12.246-.182.368-.183.062-.306-.122-.365-.184 0-.184.059-.306.182-.368.183 0 .244.062.365.184zm4.024 0c0 .062.061.122.061.122.122-.06.183-.183.306-.122.121.062.244.184.181.368a.33.33 0 01-.304.184c.123.123.184.246.123.368-.123.123-.184.185-.306.123-.122-.061-.243-.123-.243-.306-.122.061-.183.183-.306.183-.122-.061-.122-.122-.183-.245 0-.123 0-.245.123-.307.06 0 .183 0 .183-.06-.183-.062-.183-.246-.123-.369.123-.184.427-.184.488.061zm-14.144.122c0 .123-.06.246-.183.308-.061 0-.12 0-.12.06.059.062.182.184.12.308-.061.122-.244.244-.365.184-.123-.062-.244-.184-.183-.369.122-.06.183-.183.304-.183-.06-.123-.182-.246-.06-.37.06-.244.366-.184.487.062zm2.073 0s0 .123.062.123c.06-.123.182-.184.305-.123.122.062.244.184.183.308 0 .245-.55.183-.183.368.06.184-.06.306-.245.368-.121.062-.183-.062-.304-.184-.062-.124.061-.246.183-.369.06.062.06 0 .121 0-.06-.06-.121-.183-.183-.306-.06.06-.183.183-.305.123-.121-.123-.243-.185-.182-.37.121-.244.427-.184.549.062zm8.658.062c0 .06 0 .122.06.122.122-.122.244-.184.305-.122.062.122.182.122.182.246 0 .122-.12.245-.243.306-.122 0-.244-.122-.304-.245.06 0 0-.061 0-.061-.122.06-.244.184-.367.06-.06-.06-.245-.184-.121-.306.121-.246.366-.184.488 0zm2.012 0c0 .122-.123.306-.245.368a.335.335 0 01-.304-.184c-.062-.184.12-.306.243-.368.122 0 .183.062.306.184zm-12.132.122c.06.123-.061.245-.184.307-.06.061-.12 0-.242-.062-.062-.06-.123-.184-.062-.306.062-.246.427-.123.488.061zm4.084-.061v.184c.123-.062.245-.245.367-.123a.34.34 0 01.183.307c-.062.123-.183.184-.305.245.06.062.184.184.122.306-.122.124-.244.246-.367.185-.121-.06-.242-.185-.183-.367a.335.335 0 01.306-.185c0-.122-.123-.184-.183-.306-.061.06-.182.245-.305.122-.122-.122-.245-.184-.183-.368.122-.184.427-.184.548 0zm8.658.123a.342.342 0 01-.182.307c-.123.123-.245-.062-.367-.184 0-.123.122-.245.244-.307.123 0 .242.062.305.184z" fill="#231F20"/><path d="M102.274 21.928c-.063 0-.184.06-.245.184 0-.123-.122-.183-.182-.306.122 0 .182-.062.243-.123.061.061.121.184.184.245z" fill="#fff"/><path d="M89.288 21.928s-.061.06 0 .06c.121 0 .244-.182.365-.06.061.06.245.184.123.307a.335.335 0 01-.305.185c-.123-.062-.183-.185-.244-.308-.061.062-.183.184-.306.123-.12-.122-.242-.184-.183-.368.062-.061.123-.123.245-.184.122 0 .183.123.305.245zm1.95 0c.061.123-.06.246-.182.307-.123 0-.245-.06-.367-.184 0-.122.122-.245.244-.307.123-.061.305.062.305.184zm4.086 0v.06c.122 0 .243-.182.364-.06.124.06.244.184.124.307a.338.338 0 01-.307.185.338.338 0 01-.181-.308c-.123.062-.183.123-.306.184.06.062.183.184.06.308-.06.122-.182.244-.304.182-.121-.06-.183-.244-.183-.366.062-.124.244-.124.305-.246-.06-.061-.184-.123-.122-.245a.484.484 0 01.244-.246c.123 0 .244.123.306.245zm-3.415.185s-.06.061 0 .061c.062-.061.245-.122.366-.122.061.122.244.244.122.367-.06.123-.183.246-.366.184a1.359 1.359 0 01-.183-.307c-.062.062-.182.184-.305.123-.122-.061-.244-.184-.183-.367.123-.246.426-.184.549.06zm1.951 0c0 .122-.06.245-.183.307-.12.06-.244-.062-.366-.185 0-.183.122-.245.245-.367.12 0 .243.122.304.245zm4.085 0a.34.34 0 01-.183.306c-.062 0-.182 0-.122.061.06.062.122.246.06.308a.335.335 0 01-.303.184c-.063-.062-.183-.122-.183-.246 0-.122.12-.246.183-.306.06.06.121 0 .121 0-.062-.124-.184-.246-.121-.368.121-.246.427-.184.547.06zm-3.415.183c0 .122-.121.246-.244.306-.123.062-.183-.06-.305-.184-.06-.122.06-.244.183-.367.122 0 .305.123.366.245zm1.952 0c.06.122-.123.246-.184.306-.183 0-.304-.06-.365-.184 0-.183.06-.305.182-.367.183 0 .306.123.367.245zm2.072 0c0 .062 0 .062.063.122.059-.122.242-.244.365-.122.06.062.183.184.121.306-.06.124-.182.246-.365.185a.34.34 0 01-.184-.307c-.121.062-.243.184-.365.122-.062-.122-.244-.244-.123-.367 0-.06.123-.122.184-.184.122 0 .244.123.304.245zm2.013 0c0 .122-.122.246-.245.306 0 0-.06 0-.06.062.06.062.122.184.122.308-.122.183-.304.06-.488.122-.06-.122-.122-.246-.06-.307.06-.123.244-.185.304-.185-.06-.122-.183-.244-.122-.367.062-.06.184-.122.244-.184.122 0 .244.123.305.245zm-12.133.062c.062 0 0 .122.062.122.122-.06.243-.244.366-.122.122.122.182.246.122.368-.062.123-.245.184-.366.123-.122-.061-.122-.183-.184-.307-.06.062-.183.184-.305.184.062.062.184.184.122.308-.122.121-.304 0-.488 0-.06-.062 0-.124.061-.246.062-.062.183-.062.245-.122-.062-.124-.245-.246-.122-.37.121-.183.427-.183.487.062zm8.719.124c0 .122-.122.245-.244.306a.334.334 0 01-.306-.184c-.061-.122.061-.245.183-.307.123-.122.245.062.367.184zm4.025 0v.061c.12 0 .243-.184.364-.123a.83.83 0 01.182.245c0 .123-.06.246-.182.308-.121 0-.305-.062-.364-.185 0-.06.059-.122-.064-.122-.059.061-.181.183-.304.122-.121-.06-.244-.184-.182-.368.061-.061.122-.123.244-.184.122 0 .242.123.306.245zm-10.123.06c.062.122-.061.306-.182.306-.062 0-.062.062-.123.062 0 .062.123.062.123.122a.672.672 0 01-.488 0c.061-.122.183-.122.304-.184-.06-.061-.243-.184-.121-.306 0-.122.121-.184.243-.184s.183.062.244.184zm8.657.062c.062.184-.06.306-.183.368-.12.062-.305-.062-.364-.246 0-.122.12-.245.244-.306.12 0 .242.061.303.184zm-12.071.122c.062.184-.12.246-.182.368a.412.412 0 01-.367-.246c-.06-.061.061-.122.061-.244.123-.184.367-.062.488.122zm2.012 0c0 .184-.122.246-.245.368-.12 0-.243-.122-.304-.246-.06-.122.061-.244.184-.306.12-.062.304.062.365.184zm2.073 0c-.06.06 0 .06 0 .122.122-.062.183-.184.245-.122.12 0 .243.06.304.184-.06.062 0 .122-.121.184-.123-.122-.428.123-.488-.184-.063.062-.183.245-.306.122-.061-.06-.243-.184-.183-.306 0-.122.122-.122.183-.184.183 0 .306.061.366.184zm1.951 0c.062.184-.12.246-.183.368-.123 0-.243-.122-.305-.246-.121-.122.062-.244.123-.306.182-.062.304.062.365.184z" fill="#231F20"/><path d="M95.69 22.726a.414.414 0 01-.244.368c-.12 0-.244-.122-.303-.246-.063-.184.12-.244.182-.306.182-.062.304.062.365.184zm6.644.062c.061.184-.06.246-.122.307-.121-.061-.365.06-.426-.185 0-.122.121-.245.183-.306.183-.06.305.123.365.184zm-4.024.122c0 .062 0 .184-.121.184-.123-.062-.306.061-.428-.062-.06-.184.122-.244.183-.306.122-.06.306.062.366.184zm-8.047 0c0 .062 0 .122-.061.184-.183-.062-.427.061-.488-.122 0-.124.122-.184.183-.246.183-.06.305.062.366.184zm4.023 0c0 .062.062.062.062.122-.183.062-.305.062-.488.062-.122-.122-.06-.184-.06-.246.121-.244.427-.183.486.062zm2.013 0c0 .062 0 .184-.06.184-.185 0-.367 0-.489-.062 0-.184.122-.244.245-.306.121-.06.244.062.304.184zm-3.474.124c-.062.121-.246 0-.366.06l-.063-.06c.063-.123.183-.246.305-.123.062 0 .124.062.124.123zm2.011 0a.674.674 0 01-.488 0c.121-.123.243-.246.365-.123.06 0 .06.062.123.123zm2.073 0c-.063.121-.306 0-.428 0h-.06c.12-.123.242-.246.365-.123.06 0 .06.062.123.123zm1.951 0a.522.522 0 01-.427 0c.063-.123.244-.246.366-.123 0 0 .06.062.06.123zm2.01 0c-.121.06-.364.06-.427 0 .063-.123.183-.246.306-.123.06.062.121.062.121.123zm-14.143 0c-.062.06-.184 0-.244.06l-.06-.06c.06-.061.242-.123.304 0zm1.952 0c-.062.06-.123 0-.245.06v-.06c0-.123.183-.123.245 0zm3.668.49c.114 0 .233-.002.233.16v10.085c0 1.313-.62 2.44-1.538 3.344-1.346 1.324-3.332 2.172-4.96 2.419-3.565-.328-6.724-2.617-6.692-6.436l.006-9.34c0-.137.146-.232.269-.232" fill="#231F20"/><path d="M92.105 24.082v9.523c0 2.667-3.06 5.017-6.059 5.468-3.307-.532-5.808-1.938-6.232-5.89l.025-9.077c0-.062.046-.153.109-.153H92.03" fill="#BDBEC0"/><path d="M85.75 28.187c.246.06.063.306.246.49.06.37-.061.676 0 1.044-.123.122-.123.306-.306.246l-.06-.062c0-.43.06-.982-.123-1.35.061-.245-.182-.43-.304-.613l.06-.122c.183.06.488.06.488.367zm8.355.368c-.061.062-.244.062-.244.184a.467.467 0 01-.122-.246c.122 0 .244 0 .366.062z" fill="#BDBEC0"/><path d="M96.359 28.8c0 .063.062.063.062.123.12-.06.182-.183.304-.122.122.062.244.184.184.307-.062.123-.184.307-.368.184-.06-.06-.12-.184-.182-.308-.121.123-.244.247-.366.123-.122-.06-.181-.183-.122-.306.122-.246.427-.246.488 0zm2.012 0c.062.063 0 .184-.121.246-.06.123-.183.123-.244.062-.123-.062-.181-.184-.123-.307 0-.06.123-.184.184-.184.122 0 .244.062.304.184zm.61.184c0 .062.061.062.061.123.123-.06.183-.182.367-.123.06.123.183.185.12.308a.824.824 0 01-.183.246c-.121 0-.304-.123-.304-.246 0-.062-.06-.062-.06-.123-.062.123-.183.184-.305.123-.183-.062-.245-.184-.183-.367.122-.185.426-.185.487.06zm2.013 0c.061.123-.061.246-.184.369-.182 0-.243-.123-.365-.245-.061-.124.122-.245.244-.307.121 0 .244.062.305.183zm.67.186c0 .183-.122.244-.183.305-.184.062-.304-.06-.366-.184-.061-.122.062-.245.182-.307.184-.06.306.062.367.185zm-6.097.06c0 .061 0 .184.061.122.121-.06.184-.123.305-.123.121.123.243.246.182.368-.06.124-.182.246-.366.184-.06-.06-.182-.184-.182-.306-.121.062-.183.122-.305.184.062.062.184.184.122.308-.06.06-.183.245-.366.183-.061-.123-.182-.245-.121-.369 0-.184.487-.184.121-.367 0-.185.123-.306.244-.368.122 0 .243.062.305.183zm-1.462.185c.06.122 0 .306-.122.368-.183 0-.306-.062-.367-.184-.06-.184.061-.307.184-.369.122 0 .244.062.305.185zm4.085 0c.06.122-.063.306-.184.368 0 0-.122 0-.122.061.122.061.183.184.122.306-.122.124-.181.246-.366.184-.122-.06-.183-.244-.122-.367.062-.123.182-.123.307-.246-.125-.062-.185-.184-.125-.306.125-.246.367-.185.49 0zm-3.416.245a.34.34 0 01-.183.307c-.122 0-.183 0-.305-.124-.06-.062-.06-.184-.06-.246.121-.306.486-.182.548.062zm2.012 0c0 .121-.122.245-.245.307-.06.06-.12-.062-.243-.062-.06-.124-.122-.184-.06-.308.06-.306.487-.182.548.062zm2.074 0v.06c.062 0 .182-.183.305-.123.121.062.243.246.182.37-.06.122-.182.245-.366.183-.059-.123-.183-.183-.183-.307-.06 0-.182.184-.303.124-.063-.062-.184-.124-.184-.246-.06-.124.06-.184.184-.306.182 0 .303.06.364.244zm1.95 0c.061.121-.06.183-.183.307h-.122c0 .122.122.122.122.183.062.184-.122.246-.183.307-.123.122-.305-.06-.365-.184 0-.184.122-.246.305-.306 0 0 .06 0 .06-.062-.06-.062-.243-.184-.123-.308.063-.306.429-.182.489.062zm2.012 0c0 .121-.122.245-.183.307h-.121c.061.121.182.245.121.367-.121.123-.244.245-.364.123-.124-.06-.245-.185-.185-.307.061-.183.244-.123.305-.245-.12-.062-.12-.184-.12-.308.059-.244.487-.244.547.062zm-5.425.122c0 .185-.123.308-.183.368-.183 0-.305-.122-.366-.245 0-.123.061-.245.183-.306.122 0 .303.061.366.183zm4.084.001c0 .061-.061.122 0 .122.121-.06.182-.183.366-.122.06.122.243.245.122.367a.337.337 0 01-.306.185c-.122-.061-.182-.185-.243-.307-.123.062-.184.184-.367.122-.12-.122-.183-.245-.12-.428.12-.184.426-.123.548.06zm-1.464.184c0 .183-.06.306-.181.367-.123 0-.307-.061-.367-.184-.06-.183.06-.306.183-.367.184-.062.305.122.365.184z" fill="#231F20"/><path d="M95.933 30.088a.337.337 0 01-.184.307c0 .062-.12 0-.12.062.12.122.182.246.12.368-.12.062-.181.184-.365.123-.06-.061-.183-.184-.123-.307 0-.122.123-.184.184-.246h.06c.063-.06-.18-.183-.06-.368.123-.246.426-.184.488.061zm-1.343.184s0 .062.063.123c.06-.123.182-.245.303-.123.122.062.245.185.122.307-.06.185-.181.246-.304.185a.342.342 0 01-.183-.307c-.122.062-.243.246-.365.122-.123-.122-.184-.245-.184-.307.122-.245.427-.245.549 0zm1.951-.06c.123.184-.06.307-.182.368 0 0-.061 0-.12.062.12.06.243.184.12.368-.061.061-.183.184-.305.122-.121-.06-.242-.184-.183-.368a.337.337 0 01.305-.184c-.06-.123-.243-.246-.122-.368.122-.245.428-.184.487 0zm2.013.061c0 .122-.06.246-.182.306-.061.062-.122 0-.122.062.122.062.122.184.122.307-.061.122-.183.245-.306.184-.121-.062-.241-.245-.183-.368a.336.336 0 01.306-.185c-.062-.122-.244-.184-.123-.367.123-.245.428-.185.488.06zm-1.341.184c0 .062 0 .062.06.122.06-.122.184-.245.307-.122.121.062.244.184.121.368-.061.062-.183.185-.305.123-.183-.061-.122-.245-.244-.307-.06.123-.183.184-.305.123a.34.34 0 01-.183-.307c.061-.123.183-.184.245-.245.122 0 .243.122.304.245zm1.952 0c.06.122 0 .246-.122.307-.062.06-.123 0-.184.06.122.124.244.246.122.37-.06.06-.182.183-.304.122-.123-.062-.245-.246-.183-.368a.332.332 0 01.305-.184c-.061-.123-.183-.185-.122-.307a.475.475 0 01.243-.245c.123 0 .183.122.245.245zm2.012 0a.343.343 0 01-.184.307c-.06 0-.121 0-.121.06.121.124.182.246.061.37-.061.06-.183.183-.306.122a.34.34 0 01-.183-.306c-.121.06-.181.122-.243.122a.335.335 0 01-.304-.184c0-.184.12-.245.242-.37.124-.06.245.125.305.247 0 0 0 .062.062.123a.332.332 0 01.304-.184c-.121-.123-.244-.185-.183-.368.123-.062.183-.123.245-.184.121 0 .242.122.305.245z" fill="#231F20"/><path d="M93.556 30.396h-.062l-.06-.062c.06 0 .122 0 .122.062z" fill="#fff"/><path d="M99.836 30.58c0 .184-.064.307-.245.368a.335.335 0 01-.305-.184c-.061-.061.061-.184.061-.245.121-.184.365-.061.489.061zm1.95.06c.062.123-.062.185-.122.307-.06.062-.183-.06-.183.062.123.061.183.184.123.307-.062.122-.183.245-.307.184-.119-.062-.242-.246-.183-.368a.34.34 0 01.307-.185c-.124-.122-.243-.306-.124-.428.124-.185.427-.062.489.122zm.669.185c.062.122-.122.245-.181.307-.184.06-.307-.062-.367-.185-.061-.183.121-.244.183-.368.184-.06.243.124.365.246zm-7.498.307c0 .122-.12.184-.183.244-.183.062-.304-.06-.365-.182 0-.124.061-.246.182-.307.183-.062.306.123.366.245zm2.074-.062s0 .062.061.123c.06-.061.183-.183.305-.123a.337.337 0 01.183.306c-.123.124-.245.308-.366.186-.122-.062-.183-.186-.245-.308-.06.122-.121.184-.304.122-.061-.06-.243-.183-.182-.306.059-.122.182-.183.244-.183.12 0 .182.061.304.183zm-1.464.184c.062.184-.061.246-.183.368-.122 0-.243-.122-.365-.245 0-.123.122-.245.243-.307.184-.06.305.062.305.184zm4.086 0s0 .122.06.122c.061-.122.184-.183.305-.122.122.122.245.184.184.368-.121.062-.245.184-.366.124-.243 0-.183-.492-.427-.124-.122 0-.244-.122-.305-.245 0-.123.121-.245.244-.307.122-.06.245.062.305.184zm-3.476.124c.063.061 0 .184.122.184.06-.062.123-.184.243-.123.123.061.306.184.184.369-.061.06-.184.184-.367.122-.06-.061-.182-.184-.182-.307-.061.061-.183.246-.305.123-.122-.062-.243-.184-.183-.307.06-.245.427-.245.488-.061zm2.012 0c.06.184-.063.306-.183.368-.122.062-.245-.062-.366-.184 0-.123.121-.306.244-.306.122 0 .242.06.305.122zm4.086 0c0 .061-.063.184.059.184.062-.123.245-.246.366-.123.063.123.183.245.063.369-.063.122-.184.183-.307.122-.122-.061-.181-.184-.244-.307-.06.123-.183.123-.243.246.122.06.122.184.06.306-.06.123-.182.184-.304.123a.336.336 0 01-.183-.307c.061-.122.183-.245.305-.245-.06-.062-.183-.184-.122-.368.122-.184.427-.184.55 0zm-3.415.244v.122c.121-.122.244-.182.365-.122.123.062.244.246.123.368-.061.124-.244.184-.367.124-.121-.062-.121-.246-.182-.308-.122.122-.244.184-.367.122-.06-.122-.181-.184-.12-.306a.472.472 0 01.243-.245c.122.061.244.123.305.245zm1.95 0c.062.184-.121.246-.183.306-.183.062-.243-.06-.364-.184 0-.122.121-.244.181-.306.183-.061.306.062.366.184zm-6.036.124a.338.338 0 01-.183.306c-.06 0-.122 0-.122.062a.465.465 0 01.122.245c-.182.062-.427.122-.549 0 0-.122.122-.245.184-.307.06 0 .122 0 .122-.06-.062-.062-.184-.186-.122-.308.122-.245.487-.184.548.062zm6.707.06c0 .123-.122.246-.245.368-.122 0-.243-.122-.303-.245-.063-.123.06-.245.181-.307.122-.06.245.062.367.184zm-6.097.062c0 .06 0 .122.062.122.06-.061.183-.184.303-.122.123.122.245.184.184.368-.06.123-.184.245-.365.184-.184-.06-.122-.552-.367-.184-.06 0-.06 0-.121.062l.121.061c-.182.06-.365.122-.488 0 .061-.123.184-.123.306-.123-.062-.122-.245-.246-.122-.368 0-.122.122-.122.182-.184.183 0 .245.122.305.184zm2.012 0c0 .184-.062.306-.182.368-.061 0-.122 0-.122.062l.06.061c-.121.06-.305.122-.426 0 .06-.123.183-.123.243-.123-.06-.122-.183-.246-.122-.368.062-.122.184-.122.245-.184.122 0 .242.122.304.184zm.61.184c.061.184-.061.246-.122.368-.182.061-.304-.06-.366-.184-.06-.122 0-.306.122-.368.185-.062.305.122.366.184zm2.011 0a.41.41 0 01-.244.368c-.121 0-.244-.122-.304-.246 0-.122.123-.244.183-.306.183 0 .304.122.365.184zm-3.476.185c.062.122.062.184-.06.184-.122-.062-.366.06-.427-.062 0-.122.061-.244.184-.306.183-.061.244.122.303.184zm2.136 0c0 .062 0 .184-.06.184-.184 0-.428.06-.49-.062 0-.122.062-.244.185-.306.183-.061.243.122.365.184zm1.95 0c0 .062.062.184-.061.184-.122 0-.365.06-.486-.062 0-.122.121-.244.242-.306.122-.061.244.122.305.184z" fill="#231F20"/><path d="M102.639 32.298c0 .245-.364.061-.488.122-.06-.06-.06-.122-.06-.184.12-.244.487-.184.548.062zm-3.474.062c-.122.121-.366.06-.427 0 .061-.062.183-.185.305-.062.06.061.122 0 .122.061zm2.072 0a.523.523 0 01-.426 0c.061-.062.183-.185.305-.123 0 .06.121.06.121.122z" fill="#231F20"/><path d="M102.882 33.463c-.63 5.748-2.758 9.413-5.039 12.404-1.972 2.588-3.613 3.85-5.83 5.384-1.584 1.095-3.277 2.106-5.247 2.991-.076.036-.12.035-.12-.102l-.041-13.866c.224-.062.346-.02.467.102.062.062.223.102.346.041.121-.06.222-.205.222-.327.118-.03.213.196.384.305.22.142.515.128.593-.449 0-.061-.147-.17.036-.231.995-.314 2.057-1.123 2.89-1.95.183-.307.551-.352.847-.449 3.197-1.044 5.701-.343 7.444.933.11.081.064.117.183.184.218.123.121-.214.122-.429.001-.17-.4-.923-.824-1.142-.163-.085-.13-.068-.072-.254.075-.234.454-.337.774-.445.184-.06.37-.197.609-.245.085-.017.157-.073.124-.122-.277-.39-.79-.277-1.221-.246-.425.03-.76.423-1.04.776-.04.05-.223.063-.282.052-.185-.036-.776-.272-.971-.38-.053-.032-.096-.133-.069-.19.274-.544.791-1.025 1.327-1.24.055-.022.098-.075.06-.123-.216-.27-.736-.267-1.099-.184-.576.134-1 .7-1.291 1.252-.099.183-.187.4-.322.38-.307-.044-.513.025-.824.025-.085 0-.122.06-.183 0-.123-.122 0-.306.061-.492.06-.184.143-.336.245-.49.167-.255.375-.458.608-.552.08-.033.153-.132.122-.184-.156-.263-.416-.047-.61-.062-.668-.047-1.265.559-1.523 1.166a1.92 1.92 0 00-.182.798c-.044.11-.125.145-.231.177-.184.054-.429.112-.625.19-.121 0-.2.063-.262.063.468-.68.764-1.48.905-2.294.047-.27.042-.543.065-.812.005-.063.027-.147.09-.147h9.14c.087 0 .257.072.244.184z" fill="#BDBEC0"/><path d="M76.364 38.495c-.061 0-.061.122-.122.122v-.122" fill="#fff"/><path d="M78.802 38.74v.063c.122 0 .244-.185.365-.124.123.123.245.246.183.368-.121.123-.244.245-.366.185-.121-.124-.182-.185-.244-.307-.06.062-.242.245-.365.062-.061-.062-.183-.184-.122-.308.122-.245.487-.184.549.062z" fill="#231F20"/><path d="M70.206 38.495c.061.061 0 .061 0 .122v-.122z" fill="#fff"/><path d="M77.34 38.925c.06.122-.062.245-.184.307-.182.06-.244-.124-.365-.185 0-.184.121-.306.183-.368.182-.06.304.123.365.246zm-6.037.062a.337.337 0 01-.183.305s-.061 0-.121.062c.06.062.121.123.121.246 0 .122-.121.184-.182.244-.183.062-.244-.06-.366-.183-.062-.184.122-.245.243-.307 0 0 .061-.062.123-.062-.062-.122-.244-.184-.123-.367 0-.061.123-.123.184-.184.121.06.243.123.304.246zm2.012 0c0 .183-.122.245-.244.305l-.06.062c.06.062.182.184.06.307-.06.183-.183.245-.304.183-.183-.122-.244-.306-.123-.428a.46.46 0 01.244-.123c-.061-.123-.183-.185-.121-.368.06-.061.12-.123.244-.184.121.06.243.123.304.246zm6.645.121a.338.338 0 01-.183.307.334.334 0 01-.303-.184c-.062-.123.06-.306.182-.368.121 0 .243.124.304.245zm13.352.184c-.37.374-.712.86-.67 1.412.018.251-.151.612.121.612.273 0 .52-.057.794-.06.153-.002.276-.102.304-.184.098-.297.21-.57.365-.88.352-.708.94-1.028 1.523-.961.136.016.141.151.063.184-.3.127-.719.547-.855.859-.102.238-.223.43-.263.614-.019.084.015.256.102.266.37.04.71.107 1.076.101.132-.001.22-.087.293-.207.123-.199.356-.493.581-.652.249-.175.47-.252.772-.122.125.053.297.152.307.245.006.107-.391-.004-.57.122-.332.237-.55.498-.55.758 0 .189.075.33.174.41.102.08.188.227.335.346.267.218.471.514.426.88-.016.136-.134.021-.224-.061a3.697 3.697 0 00-1.563-.828c-.906-.217-1.91-.115-3.04.022-1.536.185-2.631.527-3.708 1.358-.152.117.183.183.244.367.06.184.136.374.06.553-.106.253-.39.37-.608.245-.224-.128-.28-.245-.427-.45-.07-.096-.15-.092-.183-.04-.096.143-.298.262-.427.306-.238.08-.448-.042-.61-.245-.085-.107-.18-.255-.121-.43.047-.143.174-.276.325-.417.068-.064.174-.114.223-.196.07-.118-.235-.19-.304-.308-.172-.288-.073-.534.14-.678.164-.113.346-.16.53-.036.12.08.352.293.426.407.057.089.186.216.366.124.317-.16.492-.346.834-.45.1-.03.146-.15.139-.25-.023-.297-.177-.575-.12-.895.138-.76.36-1.127 1.038-1.349.134-.045.34.016.183.122-.305.203-.427.57-.472.907-.036.263-.02.578.045.81.067.247.182.215.385.165.395-.102.626-.18.956-.246.215-.043.068-.53.122-.778.18-.822.295-1.128 1.036-1.594.22-.138.581-.27.691-.183.084.064-.136.177-.264.305zm-21.4-.122c0 .062 0 .062.062.122.121-.122.182-.183.366-.122.06.062.182.184.122.306-.061.124-.184.246-.367.185-.183 0-.121-.552-.365-.185a.333.333 0 01-.305-.184c-.061-.122 0-.245.183-.306.122-.061.243.062.304.184zm2.013 0c0 .122-.06.246-.183.306 0 0-.121 0-.121.062.061.123.182.184.12.307-.059.123-.182.245-.365.184a.337.337 0 01-.183-.307.477.477 0 01.244-.246c.06 0 .06.062.122 0-.122-.122-.244-.244-.122-.367.122-.246.427-.184.488.061zm2.012 0c0 .184-.122.306-.244.306-.061.062-.061 0-.061.062 0 .123.183.184.061.369-.061.06-.183.183-.305.122-.183-.062-.123-.245-.244-.307-.06.123-.183.185-.304.123-.123-.061-.244-.184-.183-.307.06-.122.183-.246.365-.184.062.062.183.184.183.307.06-.123.245-.123.305-.185-.122-.122-.183-.244-.122-.367.122-.246.487-.184.549.061zm-1.402.184c.06.184-.061.307-.183.307-.183 0-.244-.123-.366-.245a.478.478 0 01.245-.246c.121-.06.304.062.304.184zm2.012 0c0 .122-.06.246-.183.307-.061.061-.183 0-.122.123.122 0 .122.123.122.245-.061.122-.183.245-.366.184-.123-.062-.244-.245-.123-.368.062-.123.183-.184.244-.184 0-.123-.182-.185-.12-.307.12-.306.488-.245.548 0zm2.012 0c0 .184-.123.307-.306.307l-.061.061c.061.062.183.185.121.307-.06.122-.182.245-.304.184-.122-.062-.243-.184-.243-.306-.123.06-.184.184-.305.122-.123-.062-.245-.184-.184-.368.061-.123.244-.245.366-.123a.337.337 0 01.184.307c.12-.123.182-.184.304-.184-.062-.061-.184-.184-.122-.367.122-.246.427-.185.55.06zm-1.403.184c.06.123-.061.246-.183.306-.183.062-.305-.122-.367-.245.062-.122.123-.245.244-.306.123 0 .245.123.306.245zm2.013 0a.336.336 0 01-.183.306c0 .062-.123 0-.123.062.062.123.245.246.062.368-.062.122-.184.184-.304.122-.123-.06-.245-.244-.184-.367.122-.123.244-.185.304-.185-.06-.122-.182-.184-.12-.367.06-.061.182-.123.242-.184.123 0 .245.123.306.245zm2.071 0s0 .06.062.06c.06-.06.183-.182.304-.06.123.06.245.184.123.368-.062.062-.184.123-.244.184a.47.47 0 01.12.306c-.12.062-.243.308-.364.184-.122-.122-.244-.244-.183-.367s.244-.184.304-.184c-.121-.062-.06-.245-.182-.307-.06.122-.183.184-.305.122-.122-.122-.244-.184-.183-.367.122-.184.427-.184.549.061zm-1.463.184c.06.122-.121.245-.183.307a.334.334 0 01-.304-.185c-.062-.122 0-.244.121-.306.183-.062.305 0 .366.184zm-8.047.062c0 .06.061.122.061.122.121-.062.183-.184.304-.122.123.06.245.184.183.306a.475.475 0 01-.243.246c-.123 0-.184-.123-.244-.184 0-.062-.061-.123-.061-.123-.06 0-.183.123-.305.123-.122-.123-.244-.246-.183-.368.122-.246.366-.246.488 0z" fill="#231F20"/><path d="M80.448 39.906c-.06 0 0 .062 0 .123.121-.062.182-.245.365-.123.061.062.183.184.123.306-.062.122-.184.246-.306.184-.12-.062-.182-.184-.242-.306-.062.06-.123.122-.245.122-.06 0-.183-.062-.244-.183-.061-.185.06-.245.183-.369.122 0 .244.124.366.246zm1.951 0c.061.123-.061.244-.183.306-.061.062-.183 0-.244-.122-.122-.061-.122-.184-.061-.246.122-.245.427-.184.488.062zm-8.047.062c.061.061 0 .122.121.122 0-.123.183-.123.306-.123.121.123.183.246.121.307-.061.124-.182.246-.305.246-.122-.122-.243-.184-.243-.369-.122.062-.183.247-.366.123-.06-.06-.183-.184-.122-.306.122-.246.427-.184.488 0zm-1.402.244c0 .123-.122.184-.183.307-.183 0-.305-.123-.366-.246s.061-.244.183-.306c.183-.061.304.123.365.245zm4.022-.06c0 .061 0 .061.062.122.12-.06.182-.183.304-.122s.244.184.183.368c-.06.062-.183.246-.366.123a.338.338 0 01-.183-.307c-.122.123-.244.184-.366.123-.121-.062-.182-.185-.121-.307.06-.245.427-.245.487 0zm-3.412.182s0 .124.06.124c.06-.124.244-.184.305-.124.121.124.244.185.183.37-.062.06-.183.244-.366.122-.062-.062-.183-.184-.183-.246-.122.062-.244.124-.366.062s-.244-.184-.122-.368.366-.184.488.06zm1.95 0c.06.124 0 .246-.122.308-.183.062-.306 0-.366-.184-.06-.124.06-.184.183-.308.122-.06.244.062.305.184zm4.084 0c.061 0 0 .124.122.124.06-.124.122-.184.244-.124.122.062.244.184.182.308-.06.122-.244.306-.365.184-.122-.062-.122-.246-.244-.246 0 .124-.183.062-.243.184.121.062.183.184.121.307-.061.06-.183.184-.305.123-.122-.062-.243-.184-.183-.306.061-.124.183-.184.305-.246-.061-.123-.182-.184-.122-.368.061 0 .122-.124.184-.124.121-.06.243.062.304.184zm-3.474.062c.121.062 0 .246.121.246.062-.062.183-.184.306-.123.121.062.244.185.183.307-.123.122-.245.306-.366.184-.123-.062-.183-.184-.245-.306-.061.06-.182.244-.304.122-.122-.062-.244-.184-.122-.307.061-.185.305-.245.427-.123zm2.012.123c.061.123 0 .245-.121.307-.183.062-.306-.062-.367-.184-.06-.123.061-.246.184-.307.121 0 .243.061.304.184zm4.084 0c.061.123-.06.245-.183.307 0 .062-.122 0-.122.122.122.062.183.185.122.307-.06.123-.244.183-.366.123-.061-.062-.244-.184-.122-.368.06-.062.183-.184.244-.184-.06-.122-.122-.184-.06-.307.06-.245.365-.245.487 0zm2.012 0a.34.34 0 01-.182.307c-.061.062-.122.062-.184.062.062.122.245.184.123.367-.061.123-.184.183-.306.123-.121-.062-.243-.184-.182-.368.06-.062.182-.184.304-.184-.06-.062-.122-.122-.122-.245s.122-.246.183-.246c.184 0 .305.061.366.184zm-12.133.061c.062.124-.06.308-.183.368 0 .062-.122-.06-.122.062.122.062.184.184.122.308-.122.122-.243.244-.365.122-.123-.062-.184-.246-.123-.368.062-.124.245-.062.306-.184-.123-.062-.183-.184-.123-.307.123-.246.367-.185.488 0zm6.706.124c.062.184-.12.244-.182.306-.183.062-.306-.062-.366-.184 0-.122.06-.245.183-.307.183-.061.304.062.365.185zm2.012 0c0 .184-.12.244-.243.306-.122.062-.244-.062-.305-.184-.06-.122.06-.245.183-.307.122-.061.305.062.365.185zm2.074 0c0 .06-.061.122 0 .122.12-.062.182-.245.305-.122.121.06.244.184.182.306-.06.122-.182.308-.366.184-.06-.062-.182-.184-.182-.306-.061.06-.182.184-.305.122-.062-.062-.183-.122-.183-.184a.34.34 0 01.183-.307c.123-.061.305.062.366.185zm1.951 0c.06.184-.062.244-.184.306-.06 0-.06.062-.12.062.06.06.182.183.12.306-.12.123-.182.307-.365.184-.123-.122-.244-.184-.123-.307 0-.245.488-.184.123-.429a.34.34 0 01.183-.307c.182-.061.304.123.366.185zm-12.071.122v.062c.12 0 .182-.184.365-.123.122.123.244.245.122.368-.06.122-.183.245-.305.185-.122-.124-.244-.185-.182-.308-.122.062-.244.123-.305.123-.061.122.06.122.122.185.06.183-.122.244-.183.366-.183.062-.306-.122-.366-.183-.061-.183.06-.307.183-.368.06 0 .122 0 .122-.061-.062-.062-.183-.184-.062-.308.062-.306.367-.184.489.062zm1.951 0c.06.122-.061.246-.183.307 0 0-.121 0-.121.06.121.062.183.185.121.308a.333.333 0 01-.304.183c-.123-.06-.184-.183-.245-.244.06-.122.122-.246.245-.307.06 0 .06 0 .121-.061-.121-.062-.183-.184-.121-.308.121-.245.426-.184.487.062zm6.706.062a.413.413 0 01-.244.367c-.122 0-.245-.122-.306-.245 0-.122.062-.246.184-.306.183-.062.304.06.366.184zm-6.037.06c0 .185-.061.307-.243.37 0 0-.061 0-.061.06.061.062.121.123.121.306-.121.062-.183.247-.365.184-.122-.062-.244-.184-.183-.367.06-.061.183-.183.305-.183-.06-.124-.183-.246-.122-.37.061-.06.182-.122.244-.184.121 0 .243.124.304.184zm1.953.062c.06.123-.123.245-.184.308-.061 0-.061 0-.121.06.121.062.183.184.121.307-.061.123-.183.246-.365.123-.061-.061-.184-.184-.123-.307l.182-.183h.123c-.061-.124-.243-.246-.123-.37 0-.06.123-.122.185-.184.121 0 .304.062.304.246zm-3.415.122c0 .186-.122.308-.184.369-.182 0-.243-.061-.304-.183-.06-.124.06-.308.184-.37.12 0 .243.123.304.184zm2.072 0c0 .062 0 .123.061.123.06-.061.184-.184.305-.123.123.123.244.246.183.369-.06.123-.244.184-.366.184a.858.858 0 01-.183-.245v-.062c-.121.062-.243.184-.365.123-.123-.061-.183-.246-.183-.37.06-.06.121-.183.244-.183.121 0 .243.123.304.184zm2.012 0a.41.41 0 01-.244.368h-.122c.061.123.184.246.184.308-.123.121-.245.244-.366.244-.123-.123-.245-.244-.184-.367s.184-.185.305-.245c-.121-.062-.183-.246-.121-.368.121-.246.427-.124.548.06z" fill="#231F20"/><path d="M79.96 41.132c.06.123-.062.246-.183.369h-.121c0 .123.182.184.12.245 0 .122-.12.245-.243.306-.121 0-.243-.123-.305-.244.062-.123.122-.246.245-.307.06 0 .06 0 .121-.061-.12-.062-.182-.185-.12-.308.12-.244.364-.184.486 0zm2.622.246a.34.34 0 01-.183.307c-.183.062-.245-.123-.366-.245 0-.122.121-.246.245-.307.12 0 .242.06.304.245zm-3.963-.06c0 .06 0 .122.061.122.06-.062.182-.185.304-.122.122.06.245.244.183.367-.121.062-.183.246-.366.184-.06-.06-.182-.184-.182-.307-.122.062-.244.123-.366.123-.061-.062-.184-.184-.184-.245 0-.122.123-.246.184-.307.183 0 .244.06.366.185zm2.011.06c0 .123-.12.245-.182.307-.123 0-.183-.062-.244 0 .061.123.182.123.244.246-.062.06-.062.182-.183.245-.183 0-.306.061-.489 0l.183-.063c-.061-.122-.121-.244 0-.305.061-.123.245-.123.245-.184-.122-.062-.183-.246-.122-.306.122-.308.487-.185.548.06zm.61.122v.185c.062-.062.184-.184.245-.184.121.06.244.123.304.246 0 .122-.121.246-.243.306-.184 0-.305-.184-.305-.368-.122.062-.183.184-.305.184-.061 0-.183-.122-.244-.245 0-.123.06-.246.245-.306.121 0 .243.122.304.183zm1.952 0c.061.185-.061.247-.183.37-.183 0-.306-.123-.306-.246-.06-.123.062-.246.184-.306.122-.063.244.06.305.183zm2.012 0c.06.185-.061.308-.183.37-.183.06-.305-.123-.366-.246s.121-.246.243-.306c.123 0 .245.06.306.183zm-12.072.124c.061.123-.121.245-.183.307-.06 0-.12.062-.12.062.06.06.12.184.12.305-.182.063-.426.063-.548 0-.061-.182.061-.245.183-.305.06 0 .06-.062.121-.062-.06-.123-.182-.184-.121-.307.06-.123.183-.246.244-.246.121.062.243.123.304.246zm10.73.123c0 .122-.182.246-.243.306-.122-.06-.245-.122-.305-.245 0-.123.122-.246.244-.307.122.06.243.123.304.246zm-10.12.061a.342.342 0 01-.183.308c-.183 0-.305-.063-.366-.185 0-.184.122-.246.183-.307.183-.062.304.061.366.184zm2.012 0c0 .123-.122.245-.244.307 0 .062-.183 0-.121.122h.061v.061c-.061 0-.244 0-.306-.06.062-.061.122-.123.183-.123-.061-.122-.244-.246-.121-.368.121-.246.426-.123.548.061zm6.645.122c0 .06-.061.123-.122.184-.123 0-.367.062-.367-.123-.06-.185.123-.245.185-.307.121.062.243.122.304.245zm2.011-.06c0 .123.061.183 0 .245-.182 0-.304 0-.427-.122 0-.124.062-.246.183-.246.123 0 .245.061.245.122zm-10.058.12s.061.062.061.123c.121-.06.182-.245.305-.122.12.061.182.122.182.245-.122.062-.305.062-.487.062-.061-.062 0-.185-.061-.123-.062.123-.244.184-.366.123-.122 0-.06-.185-.122-.246-.06-.123.122-.184.182-.306.123 0 .244.122.306.245zm2.012 0c0 .123-.06.185-.121.246-.123-.06-.428.185-.428-.123 0-.184.122-.245.184-.307.182-.06.304.062.365.185zm1.95 0c.062.063-.061.186-.121.246-.123-.06-.366.062-.366-.183 0-.062.06-.247.183-.247.122 0 .304.062.304.185zm6.584 0c.061.063 0 .063-.06.123-.062-.06-.183 0-.244-.06 0-.062.06-.124.122-.124.06 0 .123 0 .182.062zm-7.926.186c-.121.06-.365.122-.487.06 0-.123.122-.245.183-.245.122 0 .304.062.304.185zm1.952-.062c0 .062 0 .062.061.062-.183.06-.365.06-.488 0 0-.063.061-.123.123-.185.12-.06.242 0 .304.123zm2.012 0c-.062.062-.183.062-.305 0 .06-.123.183-.123.305-.061 0 0 .06 0 0 .06zm2.011 0c-.121.062-.244 0-.304 0h-.061c.061-.123.244-.123.304-.061 0 0 .061 0 .061.06zm-9.509.184c-.062 0-.122.062-.245 0v-.062c.123 0 .183-.06.245.062zm-1.647.062h-.061v-.062s0 .061.061.061zm19.55 2.863c-.116.118-.436.55-.528.879-.084.295.042.575.102.716.052.125.103.155.182.123a1.84 1.84 0 01.703-.117c.063.005.093-.089.11-.169.052-.24.102-.408.182-.573.235-.47.687-.826 1.16-.96.202-.058.465-.053.548 0 .116.073-.184.184-.305.245-.364.183-.696.49-.833.858-.067.182-.095.483.122.51.331.046.34.125.65.125.137 0 .228-.05.305-.144.142-.172.718-.662.915-.737.17-.063.563-.135.671-.04.103.092-.2.14-.306.225-.156.125-.847.833-.71 1.064.11.186.783.606.71.899-.033.133-.205.079-.244 0-.086-.173-.202-.204-.365-.306-.717-.451-1.907-.475-2.971-.194-1.002.264-1.885.801-2.455 1.36-.059.057-.059.149.051.197.111.048.258.196.314.272.11.148.233.285.082.511-.095.146-.27.181-.468.084-.183-.092-.296-.234-.435-.341-.082-.065-.074-.04-.195.053-.24.188-.32.429-.569.45-.135.012-.434-.057-.487-.183-.129-.305.04-.492.284-.675.069-.052.143-.063.143-.063 0-.06-.098-.068-.124-.109-.079-.122-.196-.19-.263-.299-.169-.276-.216-.453.041-.633.142-.099.359-.056.467 0 .087.043.188.194.29.296.08.078.1.085.178.03.16-.114.413-.29.508-.43.069-.1.067-.147 0-.265-.12-.211-.248-.46-.245-.778.002-.405.315-.85.61-.94.058-.016.167.018.061.123-.154.156-.121.43-.121.675 0 .245.009.338.203.57.11.134.21.12.304.042.148-.118.313-.137.432-.224.069-.05.203-.066.157-.205-.121-.366-.067-.882.062-1.185.226-.533.618-.772.976-.9.106-.038.202.061.101.163z" fill="#231F20"/><path d="M78.315 48.496c.12.06.305-.307.365.06.061.123.183.123.305.123.183-.06.122-.367.305-.307 0 .124-.122.246 0 .37.122.122.244.184.305.122.183-.062.305-.246.183-.368 0-.061-.01-.214.05-.274.137-.068.386.2.606.223.131.014.236-.123.258-.123-.06.123.123.235.183.357h.183l.122-.122a.74.74 0 00.305.307c.123.062.244-.122.304-.246.061-.061-.06-.122-.06-.246.121 0 .304-.21.427-.09 0 .063-.123.214-.123.214-.121.122-.183.246-.183.368.123.062.245.245.366.184.123-.122.23-.18.183-.369-.015-.059-.224-.116-.121-.183.151-.102.28-.21.365-.124.087.087.167.27.244.307.172.088.23-.07.305-.183.048-.072 0-.124.06-.124h.122c.138 0-.102.23 0 .37.082.108.184.184.305.122.122-.062.226-.239.183-.368-.019-.059-.115-.095-.061-.124.11-.054.373-.102.427.063.027.082-.255.118-.304.244-.072.181.121.308.242.37.123 0 .167-.163.245-.123.123.061.183.246.305.306.183.062.244-.123.305-.184.06-.122.025-.306-.06-.306h-.062c-.06 0 .122-.063.122-.063.06-.122.164-.13.284-.12.282.019.299.186.147.25-.12.05-.18.21-.31.24 0 .06-.06.183-.06.245l.333.183c-.183 0-.455.123-.516.245 0 .124.122.185.183.308h.244c.06.122 0 .244.06.367a.616.616 0 00-.365-.305c-.122 0-.244.182-.305.305 0 .124.122.185.183.247.183.123.243 0 .365-.062l.122.308c-.122.121-.365.243-.244.428.061.123.244.123.244.244-.122 0-.304 0-.365.125-.06.06-.122.183-.06.245l.12.123a.622.622 0 00-.365.307c0 .123.122.244.244.306.182.122.243-.122.366-.183a.473.473 0 00-.123-.307c0-.062.123-.062.183-.062.06.062.06.246 0 .307 0 .123-.183.183-.06.307 0 .06.06.123.06.183-.06.062-.183.062-.244.123 0-.06-.121-.246-.243-.306-.06-.062-.183.06-.245.123-.12.06-.12.183-.06.305.06.124.183.246.366.124.06 0 .06-.062.122-.062 0 .123.182.245.304.307h.06v.06c-.12 0-.243-.06-.364 0a.298.298 0 00-.122.37c0 .06.06.06.06.123-.121.061-.182-.122-.243-.122 0-.124.183-.247.122-.37-.122-.123-.245-.306-.427-.184-.061 0-.061 0-.061.061h-.061c0-.122-.122-.183-.184-.245-.181-.122-.304 0-.425.123v.184c-.062-.123 0-.245-.062-.369-.06-.122-.243-.183-.426-.183-.06.061-.122.123-.183.245 0-.122.061-.307-.061-.43.06-.06.305-.184.244-.367-.122-.123-.245-.307-.366-.245a1.32 1.32 0 00-.244.307l.122.245c-.122-.062-.182.123-.305.06a.262.262 0 00-.244-.244c-.121-.123-.304.122-.366-.061-.06-.123-.183-.123-.242-.185-.123.062-.184.123-.245.123l-.183-.245c.06-.062.244-.123.244-.246.06-.184-.06-.307-.183-.37-.122-.06-.245 0-.305.125-.061 0 0-.125-.061-.125-.06-.12-.243-.182-.365-.182-.184.122-.245.307-.184.429h-.182c.121-.122.182-.307.121-.43-.121-.184-.244-.245-.426-.184-.061.062-.183.123-.183.246h-.06c.06-.123.121-.308 0-.43.121-.121.303-.244.182-.429-.06-.123-.183-.245-.366-.185l-.122.124c0-.124-.122-.247-.243-.307-.123-.062-.245.06-.367.183-.121.124.183.247-.06.247-.061.06-.123-.062-.184-.062 0-.123.184-.185.244-.308.061-.182-.304-.307 0-.367.122-.06.183-.185.122-.369-.122-.061-.243-.244-.366-.122-.121.06-.243.184-.183.306l.123.185c-.123-.06-.306.307-.366 0 0-.122-.122-.122-.183-.185-.122-.06-.184 0-.305.063h-.061a.736.736 0 00-.305-.308c-.121 0-.244.061-.306-.121a.854.854 0 00.185-.247c0-.122-.062-.245-.184-.367-.121 0-.304-.063-.304.06-.122 0-.122-.184-.305-.245.183 0 .245-.185.366-.185 0 .124.122.185.183.307.182.123.254-.162.376-.284-.122-.245.233.04.294-.023.244.063.67-.121.854.124zm-2.257-.062c.061.062-.061.062-.061.062-.06 0-.122-.062-.122-.124.061 0 .122 0 .183.063z" fill="#BDBEC0"/><path d="M77.827 48.618c-.061 0 0 .061 0 .124.12-.063.182-.245.365-.124.062.061.183.184.122.308 0 .246-.548.183-.183.368.061.122 0 .306-.122.368-.182.06-.304-.062-.365-.185 0-.061 0-.121-.061-.121-.061.06-.183.182-.306.121-.121-.121-.243-.245-.181-.368.06-.122.243-.122.304-.245-.123-.062-.123-.185-.123-.307.123-.245.428-.185.55.061z" fill="#231F20"/><path d="M84.776 48.618c-.06 0-.183.061-.244.184-.062-.06-.062-.184-.182-.245v-.06c.182.121.243-.246.304 0" fill="#BDBEC0"/><path d="M80.449 48.74c.061.123-.06.184-.122.307-.061.062-.123.062-.244.123.121.061.183.185.183.246.06-.061.183-.124.365-.124.061.124.244.246.122.369-.06.121-.183.246-.304.184-.122-.063-.183-.184-.245-.307-.06.062-.244.184-.366.062-.12-.062-.182-.184-.12-.308.12-.122.182-.183.303-.183-.06-.122-.183-.245-.121-.368.121-.185.427-.185.549 0zm-1.465.185c.062.184-.06.306-.182.367-.183.063-.304-.06-.366-.183-.06-.184.122-.245.183-.368.183 0 .305.123.365.184z" fill="#231F20"/><path d="M81.058 48.924v.185c.121-.122.244-.246.366-.122.121.06.182.183.182.305-.12.124-.244.246-.365.185-.123-.061-.183-.185-.244-.307-.06.061-.183.246-.305.122-.122-.122-.244-.245-.122-.368.06-.183.366-.183.488 0zm1.951.001c.061.184-.062.306-.183.367-.06 0-.06 0-.122.063.062.061.243.183.122.307-.06.12-.182.245-.304.183-.123 0-.123-.123-.184-.245 0-.123.061-.184.122-.245.062-.063.122-.063.184-.063-.062-.122-.184-.183-.122-.245 0-.122.06-.245.182-.306.184-.062.243.123.305.184z" fill="#231F20"/><path d="M77.948 49.047c-.121.062-.183.123-.305.184.062-.184-.305-.306 0-.306.062-.061.062-.123.122-.123 0 .123.062.245.183.245z" fill="#fff"/><path d="M79.594 49.108c.062.123-.061.308-.183.369-.121 0-.305-.061-.305-.185-.06-.184.061-.305.184-.368.121 0 .243.123.304.184zm4.085 0c0 .062 0 .184.062.123.06-.061.182-.123.304-.061a.338.338 0 01.183.307c-.122.123-.244.245-.367.185-.12-.063-.182-.185-.243-.307-.06.061-.182.183-.304.122-.122-.122-.245-.246-.183-.369.121-.246.427-.183.548 0zm-1.463.184c.061.124-.06.307-.183.37-.122.06-.244-.063-.366-.185 0-.185.122-.246.244-.368.122 0 .244.06.305.183zm2.623.246c.06.124-.063.247-.184.308-.061 0-.183 0-.244-.061-.06-.063-.121-.185-.06-.308.06-.246.425-.185.488.061zm-5.428.247c0 .061 0 .122.062.122.06-.122.244-.185.365-.122.122.122.183.245.122.367-.122.122-.183.185-.366.122-.061-.06-.121-.182-.183-.307-.121.063-.183.185-.365.125-.062-.125-.183-.185-.122-.307a.472.472 0 01.244-.247c.122.062.243.124.243.247zm2.012 0c0 .122-.061.307-.182.307-.062 0-.123.06-.123.06.061.122.123.122.123.245-.062.124-.123.247-.245.247-.122.06-.243-.062-.305-.184 0-.123.122-.246.183-.308.061 0 .123-.06.123-.06-.062-.125-.184-.185-.123-.307.061-.123.184-.185.244-.247.123.062.244.124.305.247zm2.013 0c0 .182-.122.245-.245.307-.061 0-.061.06-.121.06.06.062.182.245.121.369-.061.061-.183.184-.366.123-.061-.062-.122-.184-.182-.307-.061.06-.183.184-.306.122-.121-.062-.183-.122-.183-.185 0-.182.062-.244.183-.307.123-.06.245.063.366.185 0 .062-.06.062 0 .122.122-.122.244-.122.305-.244-.122-.063-.183-.184-.122-.308.06-.06.122-.123.244-.184.122.062.184.124.306.247zm-1.403.182c.061.125-.061.247-.183.37-.121 0-.244-.123-.305-.245-.06-.125 0-.246.122-.307.183-.063.305.061.366.182zm1.951-.061c.122.186-.061.368-.183.431 0 0-.06-.063-.06 0 0 .122.182.183.121.306-.121.122-.183.307-.366.183a.337.337 0 01-.182-.306c.06-.123.182-.183.305-.246-.061-.06-.183-.244-.061-.368.12-.184.365-.184.426 0zm-3.354.246c0 .122-.12.245-.182.308-.123.122-.183 0-.305-.063-.06-.06-.122-.183-.06-.305.12-.246.427-.125.547.06zm4.024 0a.34.34 0 01-.183.308c-.121.122-.182 0-.243-.063-.062-.06-.183-.183-.062-.305.123-.246.427-.125.488.06zm-2.804.43c0 .062.06.123.06.123.062-.061.185-.184.306-.123.122.123.245.245.183.369-.121.121-.183.244-.365.184-.123-.063-.123-.245-.244-.308-.06.124-.122.124-.244.124-.122-.124-.243-.246-.184-.369.062-.061.123-.184.184-.184.122 0 .244.123.305.184zm-1.402.183a.47.47 0 01-.122.307c-.06.061-.183.061-.244.061-.061-.122-.244-.183-.183-.307 0-.122.121-.184.183-.246.183 0 .244.063.366.185zm4.022 0c0 .061 0 .061.063.122.06-.06.12-.122.243-.122.062 0 .183.122.244.185.061.183-.06.306-.182.367-.184.063-.245-.122-.367-.184v-.122c-.12.061-.243.184-.365.122-.06-.122-.183-.183-.183-.368.061-.06.183-.123.244-.185.121 0 .243.063.304.185z" fill="#231F20"/><path d="M79.29 50.887c-.061 0-.121.124-.183.124l-.123-.246c.123.061.123-.122.245-.122" fill="#BDBEC0"/><path d="M81.058 50.95v.122c.121-.061.244-.185.366-.122.121.122.243.245.182.367-.12.124-.244.245-.365.124-.123-.061-.183-.185-.244-.246-.06.061-.183.122-.305.061s-.244-.184-.122-.306c0-.124.122-.185.183-.185.122 0 .183.061.305.185zm1.95 0c.062.122-.061.245-.183.367-.121.063-.243-.122-.304-.184-.061-.183.06-.307.183-.368.121-.06.243.061.304.185zm.671.183c0 .062 0 .123.062.123.06-.123.182-.184.304-.123.122.123.183.247.183.37-.122.06-.244.184-.367.184-.12-.125-.182-.185-.243-.37-.06.124-.182.245-.304.124-.122-.061-.245-.185-.183-.308.121-.06.121-.183.243-.183s.244.061.305.183zm-1.463.247c.062.122-.06.307-.182.367 0 .062-.122 0-.122.062.121.061.183.246.121.306-.121.124-.244.245-.365.185-.122-.122-.244-.245-.122-.368.06-.123.243-.123.243-.245-.06-.062-.121-.185-.06-.307.122-.247.366-.185.487 0zm.671.245c0 .123-.122.245-.184.307-.06 0-.182 0-.182.06.123.063.182.247.123.308a.338.338 0 01-.306.185c-.123-.062-.244-.185-.183-.369.06-.061.183-.184.304-.184-.06-.123-.182-.245-.121-.37.121-.244.427-.182.549.063zm1.951-.063c.06.125 0 .308-.121.37-.062 0-.183 0-.183.06.12.124.182.186.12.308-.06.123-.182.245-.304.183-.121-.123-.304-.244-.183-.367.062-.123.244-.123.244-.246-.06-.061-.121-.183-.06-.308.06-.182.365-.182.487 0zm-1.342.247c.061.184.244-.184.365 0 .122.061.245.184.122.307-.06.123-.182.246-.305.184a.339.339 0 01-.182-.307c-.123.062-.245.185-.366.123-.122-.123-.244-.184-.183-.368.061-.06.183-.123.244-.186.123 0 .246.125.305.247z" fill="#231F20"/><path d="M80.875 51.87c-.061.123.121.123.121.246-.182.062-.304-.061-.426-.123.062 0 .183-.123.305-.123z" fill="#BDBEC0"/><path d="M83.862 52.605c0 .124-.12.308-.243.308-.122.062-.245-.061-.305-.184 0-.123.06-.246.183-.307.122-.062.245.061.365.184zm.608.185c.063.123-.06.246-.182.308-.122.06-.243-.062-.365-.185-.062-.184.122-.245.243-.307.122-.061.244.062.305.184z" fill="#231F20"/><path d="M83.801 53.588c0 .062 0 .062-.06.062v-.062c0-.061.06 0 .06 0zm.489.122v.06c-.062 0-.123-.06-.062-.12.061 0 .061.06.061.06zm1.157.43c-.06.06-.182.06-.182 0 .062 0 .182-.184.182 0z" fill="#BDBEC0"/><path d="M87.26 25.577c-.098.245-.156.422-.35.422-.261 0-.4-.24-.4-.666 0-.427.192-.643.386-.648a.259.259 0 01.155.043.37.37 0 01.112.135.397.397 0 00.077.095.12.12 0 00.09.034c.037 0 .066-.018.09-.054a.204.204 0 00.04-.131c0-.128-.094-.246-.243-.35a.512.512 0 00-.334-.099c-.386.012-.677.338-.68.977-.004.634.28 1 .672.984.406-.018.608-.256.654-.885.005-.066-.014-.113-.04-.14-.029-.024-.072-.035-.132-.035h-.315c-.083.001-.125.052-.127.152 0 .051.012.09.037.12a.103.103 0 00.09.046m-2.759-.839h.182v1.35c0 .134.053.202.16.202.103 0 .155-.068.155-.203v-1.349h.185c.102 0 .153-.054.153-.162 0-.111-.052-.166-.153-.166h-.682c-.103 0-.154.055-.154.166 0 .11.051.165.154.162zm1.11 0h.182v1.35c0 .134.054.202.159.202.105 0 .158-.068.158-.203v-1.349h.182c.102 0 .154-.054.154-.162 0-.111-.052-.166-.154-.166h-.68c-.103 0-.155.055-.155.166 0 .11.052.165.154.162zm5.374 0h.183v1.35c0 .134.053.202.159.202.105 0 .158-.068.158-.203v-1.349h.182c.103 0 .153-.054.153-.162 0-.111-.051-.166-.153-.166h-.682c-.101 0-.154.055-.154.166 0 .11.052.165.154.162zm-7.968-.154v1.025c0 .47.208.71.616.71.402 0 .61-.24.61-.71v-1.024c0-.137-.052-.205-.157-.205-.106 0-.158.07-.158.205v.983c0 .278-.095.415-.298.415-.201 0-.297-.137-.297-.415v-.983c0-.137-.053-.205-.159-.205-.105 0-.157.068-.157.204zm-1.054.154h.26v1.35c0 .133.054.202.159.202.105 0 .157-.068.157-.203v-1.349h.203c.102 0 .153-.054.153-.162 0-.111-.053-.166-.153-.166h-.779c-.102 0-.154.055-.154.166 0 .11.052.165.154.162zm-.208.021c-.054-.236-.306-.404-.527-.401a.47.47 0 00-.365.146.633.633 0 00-.167.412c-.013.247.179.48.464.561.143.039.373.074.373.28 0 .16-.083.239-.264.242-.193 0-.277-.104-.329-.255-.03-.086-.146-.085-.202-.038-.032.027-.048.082-.044.14.023.285.318.478.558.473.361-.009.57-.239.563-.6-.005-.316-.256-.473-.51-.553-.12-.039-.33-.075-.33-.258.001-.133.094-.259.237-.267.177-.011.243.113.318.24.02.035.097.044.145.038.082-.012.104-.053.08-.16zm8.01 1.326v-.543l.043.02.619.619c.056.057.16.131.255.072.041-.027.108-.125 0-.245L90 25.492a.575.575 0 00.469-.56c.002-.35-.3-.525-.63-.525h-.415c-.077 0-.126.023-.153.067a.438.438 0 00-.04.225v1.386c0 .137.052.204.157.204.105 0 .16-.067.16-.204zm0-1.378h.347c.147 0 .26.104.26.265 0 .166-.08.249-.236.247h-.37m-1.522.932l.07-.266h.594l.074.266c.024.093.073.14.15.14a.162.162 0 00.114-.05.174.174 0 00.04-.12.284.284 0 00-.016-.096l-.432-1.453a.342.342 0 00-.07-.152c-.032-.027-.084-.04-.158-.04-.072 0-.123.013-.152.04a.15.15 0 00-.043.06.957.957 0 00-.037.097l-.422 1.448a.28.28 0 00-.016.097c0 .051.013.09.042.12.028.03.064.046.11.048.077 0 .128-.046.152-.139zm.366-1.374l.213.794h-.424m-.176-16.079l.007.74c-.984-.045-1.965-.096-2.93.028-.102.013-.244.087-.244.27v.16c0 .14.167.185.25.177.605-.064 2.004-.027 2.736.075.169.024.278.224.316.363.11.385.106.82.022 1.207-.047.213-.292.442-.482.444-1.216.018-2.294-.007-3.514.055v-.745c.977-.061 2.073-.04 3.047-.025.083 0 .129-.063.186-.188.018-.043-.01-.093-.016-.136-.012-.131-.083-.261-.183-.27-.887-.088-1.755-.053-2.667-.03-.237.007-.483-.263-.5-.507-.025-.336-.068-.698-.017-1.035.046-.302.238-.583.455-.601 1.215-.106 2.433-.069 3.534.018zm4.926.383l.018.747c-.843-.135-2.432-.295-2.993-.26-.086.006-.223.035-.184.185l.003 1.643c0 .165.11.173.235.181.631.042 2.276.248 2.945.336l.002.755c-.575-.151-2.985-.393-3.73-.423-.135-.006-.305-.17-.305-.307v-2.615c0-.275.288-.562.506-.563.64-.004 2.793.184 3.503.32zm-9.832-.034c.226.343.144 1.098.061 1.487a.712.712 0 01-.303.407c.365.11.539.926.616 1.31-.275.013-.58.048-.855.048-.074-.262-.093-.852-.523-.967-.186-.022-1.39.061-2.162.196v1.018a5.94 5.94 0 01-.837.13l-.014-3.568c.675-.135 2.911-.307 3.369-.307.243.002.505.03.648.246zm11.263.219l-.002 1.297c.446.08 2.04.413 2.336.52l.017-1.376c.231.015.616.102.802.146l.004 3.677c-.256-.06-.613-.165-.811-.188l-.01-1.496c-.505-.162-1.719-.457-2.338-.502l.01 1.518c-.165-.011-.601-.127-.833-.134l-.007-3.587c.222.026.612.088.832.125zm-16.025.712v2.202c0 .219-.18.677-.485.728-.945.159-2.12.497-3.129.76-.21.053-.594-.186-.602-.507l-.058-2.226c-.01-.368.033-.784.41-.902.877-.274 2.194-.493 3.115-.65.3-.05.749.103.749.595z" fill="#231F20"/><path d="M82.331 11.044c-.036.215-.242.293-.53.301-.603.018-1.286.122-1.835.19l-.001-1.006c.465-.13 1.8-.223 2.013-.21.144.008.342.015.35.214.008.189.044.269.003.51z" fill="#BDBEC0"/><path d="M102.46 11.99l-.019.78c-1.096-.384-2.653-.8-3.186-.907l.003.622c1.185.285 2.828.783 3.199 1.021l-.003.752c-.796-.431-2.329-.845-3.186-1.022l-.006.689c.922.247 2.375.669 3.187 1.06l-.003.805c-.942-.401-3.364-1.115-4.135-1.257v-3.7c.212.01 2.632.586 4.149 1.158z" fill="#231F20"/><path d="M77.498 11.311l.012 1.49c.001.138-.164.209-.268.234a53.33 53.33 0 00-2.055.532c-.158.048-.198-.145-.225-.27l-.007-1.394a.526.526 0 01.365-.484c.507-.13 1.238-.289 1.805-.36.189-.025.372.116.373.252z" fill="#BDBEC0"/><path d="M73.498 11.72l.006 1.453c0 .311-.264.52-.448.576-.787.243-2.006.643-3.033 1.14v.982l-.915.369-.06-.062V12.51c1.594-.68 3.027-1.159 3.662-1.252.359-.052.787.17.788.463z" fill="#231F20"/><path d="M72.542 12.997c-.404.118-2.086.741-2.516.905l-.021-.9c.308-.169 2.216-.909 2.567-.86.044.007.18.054.183.213l.007.412c0 .075-.05.18-.22.23z" fill="#BDBEC0"/><path d="M85.228 27.692c-.016.011-.03.031-.017.046.036.043.094.061.135.098a.34.34 0 01.068.09c.018.035.047.078.063.115a2.614 2.614 0 01.186.643c.015.113.012.228.017.34a2.74 2.74 0 010 .157c0 .045-.009.089-.008.133.002.066.02.127.02.192 0 .078.015.103-.02.179-.033.07.02.208.08.208a.342.342 0 00.16-.034c.097-.05.152-.152.166-.289.034-.383.07-.685 0-1.116-.044-.262-.11-.51-.364-.703-.157-.118-.35-.155-.486-.06zm-1.292-.237c-.054.007-.044.055-.022.105.04.097.154.146.245.226.043.037.097.117.097.173 0 .023-.044-.006-.09-.01a.879.879 0 00-.451.071c-.137.058-.226.17-.352.254-.03.02-.115.035-.143.055-.036.024-.05.09-.083.144-.027.044-.063.076-.088.1-.029.025-.054.02-.08.033a.66.66 0 00-.138.1c-.017.015-.068.03-.082.048-.023.03.01.066.036.094.044.05.114.1.18.106.084.007.179-.02.262-.017.02 0 .007.024 0 .042-.012.033-.056.062-.056.096 0 .04.013.031.04.059.026.025.06.038.096.047a.122.122 0 00.098-.005c.037-.017.071-.046.106-.065.058-.03.118-.018.175-.048.05-.027.092-.064.14-.093.026-.016.064 0 .094.01.082.026.117.058.19.074.04.009.097.009.093.049-.01.077-.053.12-.084.19-.017.042-.028.094-.048.15-.018.052-.047.107-.063.15-.017.044-.025.045-.062.075-.086.073-.205.146-.288.22a2.42 2.42 0 00-.393.479c-.054.079-.065.166-.101.255-.022.056-.059.127-.078.187-.035.115-.052.216-.14.291-.08.067-.09.077-.19.043a1.267 1.267 0 01-.31-.194c-.044-.04-.076-.108-.103-.164-.017-.037-.021-.096-.04-.134-.03-.062-.12-.187-.184-.213-.085-.037-.151 0-.239.026-.08.022-.149.1-.204.159-.033.035-.033.091-.057.133-.048.08-.11.15-.162.23-.047.074-.083.155-.131.228-.117.175-.236.303-.341.485-.024.041-.027.107-.04.153-.01.037-.046.042-.057.078-.018.06-.016.156-.056.238-.043.086-.05.177-.096.262-.07.13-.192.231-.245.368a.315.315 0 00.019.277c.028.043.105.002.152-.02.06-.026.13-.087.196-.12.046-.023.089-.022.13-.045.038-.022.05-.038.08-.074.01-.01.037-.027.037-.044a.189.189 0 00-.006-.05c-.007-.034-.05-.045-.072-.077-.012-.019-.005-.058-.016-.076-.01-.022-.005-.001 0-.026.003-.02-.013-.014-.005-.03.06-.122.114-.253.148-.383.007-.027.03-.027.047-.05.016-.02.022-.046.045-.057.049-.019.068-.061.087-.112.022-.056-.033-.078-.007-.134.118-.261.283-.488.445-.724.02-.03.066-.044.094-.067.011-.01.026-.025.04-.03.04-.009.064-.022.103-.009.032.01.057.039.075.067.125.191.268.371.372.576.058.114.029.28.112.378.064.075.172.101.265.135.07.026.17.025.233.067.032.02.03.048.043.084.027.075.078.157.055.234-.019.06-.09.058-.15.072-.057.013-.077.031-.11.038-.135.032-.257.039-.393.066-.164.034-.345.017-.492.096-.083.043-.1.11-.118.202-.013.068.03.167.032.237 0 .047-.002.174-.001.221.005.187.037.887.07 1.273.01.089.023.149.04.184a.543.543 0 00.201.177c.033.012.072.01.114.08.043.07.055.214.142.27.09.057.151.082.182.045.004-.005.026-.022.037-.053a.506.506 0 01.018-.042c.014-.025.037-.05.059-.078.014-.014.006-.019.019-.035.025-.033.041-.025.057-.039.026-.02.034-.06.049-.091.014-.031.05-.057.068-.085a.122.122 0 00.005-.097c-.005-.018-.055.002-.099.011a.63.63 0 01-.122.018c-.083-.017-.147.033-.16.007-.025-.051-.15-.142-.173-.198-.014-.037-.052-.047-.055-.086-.023-.326-.1-.76-.1-.813 0-.03.018-.058.019-.087.002-.121-.007-.269.01-.39.015-.1.058-.148.105-.238.01-.018.017-.036.036-.04.117-.022.19-.071.305-.042.12.03.267.076.383.11.084.024.175.026.26.047.06.014.118.042.18.047.323.032.692-.081.885-.246.025-.022.028-.027.054-.012.104.063.166.132.27.198.228.144.497.281.754.346.35.09.721-.021 1.08-.01.092.003.18.03.267.058a.046.046 0 01.032.047c-.008.133-.06.26-.06.392 0 .072.043.137.074.201.032.06.054.144.09.202.084.128.187.227.233.37.025.075-.014.163-.057.229-.106.165-.247.304-.378.449-.037.04-.086.067-.124.105-.032.032-.049.079-.085.105-.234.168-.48.319-.721.477-.06.04-.127.067-.18.114-.066.06-.064.074-.109.15-.012.019-.041.097-.053.117-.033.059-.097.096-.132.153-.024.037-.02.085-.038.124-.016.038-.054.065-.066.105-.006.016.002.049.019.047.075-.002.145-.036.217-.056.095-.028.194-.045.285-.086a.093.093 0 00.047-.068c.01-.052-.008-.107-.01-.16 0-.03-.01-.062 0-.087a.195.195 0 01.076-.077c.17-.097.355-.166.523-.266.04-.025.085-.077.125-.1.161-.095.31-.161.471-.254.108-.06.13-.07.238-.133a5.37 5.37 0 00.142-.086c.152-.108.339-.217.472-.349.029-.027.01-.089.012-.13.01-.148-.033-.29-.009-.438a.558.558 0 01.103-.219c.02-.03.087-.061.117-.04.107.072.121.19.225.27.153.12.328.208.501.294.042.02.095-.002.133.02.04.022.075.062.086.105a.49.49 0 010 .248c-.04.153-.111.296-.18.44a1.38 1.38 0 01-.18.304c-.118.14-.244.248-.37.38-.105.107-.206.24-.312.346-.02.019-.061.006-.077.029-.032.046-.044.106-.057.161-.007.032.018.069 0 .096-.083.128-.311.278-.294.43.004.039.005.067.028.1l.191-.024c.067-.011.136-.044.205-.052.069-.009.138-.01.202-.03.041-.014.035-.028.035-.07 0-.05-.024-.085-.035-.134a.334.334 0 01.018-.173c.033-.088.06-.19.135-.247.067-.054.143-.079.221-.119.114-.059.233-.129.346-.186.059-.03.14-.027.182-.077.04-.05.007-.134.037-.191.073-.14.171-.265.265-.39.041-.057.097-.102.144-.154.067-.077.152-.13.208-.218.028-.042.001-.068.027-.111.023-.042.074-.08.085-.127a.417.417 0 00-.02-.238c-.012-.029-.06-.02-.084-.039a.312.312 0 01-.076-.085c-.135-.217-.285-.442-.349-.69-.038-.152.025-.351.09-.493.051-.117.153-.156.231-.261.076-.1.162-.207.222-.318.076-.144.108-.3.158-.454.038-.118-.022-.249-.01-.372a.252.252 0 01.057-.125.432.432 0 01.207-.16.442.442 0 01.259.017c.155.045.257.105.415.141.077.019.172.01.247-.015a.489.489 0 00.226-.13c.016-.019.02-.065-.003-.063-.072.007-.129.018-.195 0a.253.253 0 01-.16-.105c-.033-.052-.081-.1-.086-.163-.003-.038.036-.07.066-.094a.975.975 0 00.247-.268.706.706 0 00.08-.308c0-.02-.036-.03-.052-.016-.066.065-.108.158-.186.21a.391.391 0 01-.241.068c-.07-.008-.101-.028-.154-.075-.038-.033-.068-.127-.083-.165-.018-.05.062-.089.114-.1.112-.021.223-.026.32-.096a.369.369 0 00.145-.16.54.54 0 00.03-.166c.002-.027.014-.042-.01-.034-.06.02-.1.055-.153.07a.381.381 0 01-.293-.018c-.09-.05-.163-.168-.22-.255-.013-.018 0-.057.021-.061.091-.018.171-.121.244-.244a.487.487 0 00.039-.078c.013-.035.056-.071.059-.088.02-.098.018-.12.018-.22 0-.062-.045-.117-.085-.162-.013-.014-.063-.017-.073 0-.04.077-.016.173-.06.248a.731.731 0 01-.19.2c-.037.03-.09.069-.132.048a.275.275 0 01-.143-.181.43.43 0 01.057-.267c.086-.169.186-.33.302-.48.086-.108.177-.183.254-.299.054-.078.094-.249.022-.275-.068-.026-.113.14-.177.178-.23.133-.5.182-.695.38-.113.115-.152.286-.208.439-.033.084-.01.214-.046.297-.016.032-.08.064-.106.043a.606.606 0 01-.172-.274.345.345 0 01.015-.216c.011-.028-.012-.055-.033-.041-.086.054-.182.143-.209.248a.588.588 0 00.035.428c.084.197.283.39.392.573.104.174.237.36.328.526.1.183.126.269.108.476-.01.106-.152.387-.255.452-.015.01-.051.028-.066.016-.145-.11-.26-.26-.418-.353a1.705 1.705 0 00-.578-.233c-.253-.045-.513-.013-.769-.005-.268.007-.537.047-.806.037-.216-.008-.443-.003-.645-.086a.717.717 0 01-.367-.317c-.078-.136-.098-.342-.082-.499a.97.97 0 01.121-.395.638.638 0 01.25-.258c.096-.056.29-.095.394-.054a1.085 1.085 0 01.333.264c.006.007.043 0 .044-.01.03-.178-.016-.365-.075-.533-.051-.146-.229-.341-.237-.372-.008-.029.077-.025.107-.027.148-.014.27.037.405.122.082.051.157.14.198.21.005.008.028 0 .029-.01.01-.302-.086-.428-.207-.602a.671.671 0 00-.256-.225c-.06-.023.044-.07.098-.07a.718.718 0 01.34.05c.044.016.077.052.103.075a.484.484 0 00.07.054c.02.012.04-.025.032-.045-.024-.066-.03-.131-.075-.182-.168-.185-.357-.308-.546-.47-.014-.011-.05-.03-.061-.045a.822.822 0 01-.123-.24c-.011-.033-.061-.066-.079-.113a.2.2 0 01.015-.139c.057-.105.108-.124.224-.177.067-.03.177-.04.275-.057.029-.004.058.028.086.02.015-.005.022-.047-.022-.079a.663.663 0 00-.376-.122c-.21-.014-.336-.032-.535.04-.196.07-.237.121-.414.119a.564.564 0 01-.275-.054c-.057-.031-.117-.087-.124-.152a.605.605 0 01.077-.315c.034-.07.111-.12.182-.156.05-.026.084-.046.08-.082-.002-.029-.073-.02-.1-.01-.175.061-.304.073-.456.179-.096.068-.2.226-.275.317a.176.176 0 01-.067.047c-.032.014-.063.007-.095.018-.114.044-.23.103-.341.154-.108.052-.2.141-.313.181a.976.976 0 01-.32.044 1.41 1.41 0 01-.27-.05.302.302 0 00-.117-.012zm61.977 37.795v-1.548h-16.017v8.268h16.017v-1.542h-14.212v-1.822h14.212v-1.54h-14.212V65.25m-5.751 1.802h-10.974v-3.36h-1.805v8.26h1.805v-3.076h10.974v3.076h1.812v-8.26h-1.812m-29.777 1.837v4.615c0 1.01.797 1.837 1.81 1.837l13.085-.01v-1.823h-12.84c-.118 0-.235-.103-.235-.225v-4.15c0-.136.147-.25.295-.25h12.78v-1.821H98.004a1.83 1.83 0 00-1.831 1.827zm-3.98 1.538l-11.53.004v-.004c-.169 0-.3-.113-.3-.288V65.54a.29.29 0 01.3-.292h13.081v-1.543H80.331c-1 0-1.782.835-1.782 1.835v1.238c0 1.015.82 1.835 1.828 1.835l11.525-.004c.168 0 .303.119.303.288v1.246c0 .17-.135.284-.303.284H78.8v1.547l13.392-.005a1.826 1.826 0 001.828-1.826v-1.246a1.84 1.84 0 00-1.828-1.831zm-17.555.599c0 .159-.127.302-.278.302H62.757v-2.447h11.567c.173 0 .314.144.314.318v1.827zm.061 1.482c.971-.028 1.74-.841 1.74-1.832l.005-1.793a1.826 1.826 0 00-1.816-1.823l-13.68-.005v8.27h1.809V69.79h10.065c1.005 0 1.82.82 1.82 1.836v.32h1.825v-.012a3.07 3.07 0 00-1.768-2.786zm-17.726.698c0 .16-.145.301-.295.301h-11.05c-.113 0-.24-.104-.24-.225v-4.15c0-.136.15-.25.297-.25h10.974c.165 0 .314.143.314.313v4.01zm.014-6.146H45.403a1.826 1.826 0 00-1.829 1.829v4.614c0 1.01.816 1.827 1.83 1.827h11.555a1.818 1.818 0 001.815-1.83v-4.617c0-1.001-.806-1.823-1.787-1.823zm-17.344 3.966c0 .159-.117.302-.271.302H27.8v-2.447h11.54c.163 0 .308.144.308.318l-.005 1.827zm-.01-3.966L26 63.695v8.27h1.8V69.79h11.834c1.004 0 1.82-.812 1.82-1.832v-2.435a1.82 1.82 0 00-1.82-1.823z" fill="#231F20"/></g><defs><clipPath id="clip0_781_27406"><path fill="#fff" transform="translate(26 8)" d="M0 0h120v64H0z"/></clipPath></defs></svg>