<svg width="171" height="82" fill="none" xmlns="http://www.w3.org/2000/svg"><path fill-rule="evenodd" clip-rule="evenodd" d="M36.481 70.628c-.256-2.393-6.689-5.306-6.689-5.306-1.672-1.034-.965-2.326-.965-2.326 1.03-2.268 6.432-.13 6.432-.13l1.027-2.458c-2.863-2.17-6.517-1.717-6.517-1.717-4.492.516-5.163 3.57-5.163 3.57-1.024 4.677 2.563 5.786 2.563 5.786 3.27 1.547 4.256 2.182 4.256 2.182 2.68 1.743.315 2.894.315 2.894-2.915 1.385-6.581-.517-6.581-.517l-1.143 2.696c3.035 2.06 7.724 1.19 7.724 1.19 5.952-.873 4.741-5.864 4.741-5.864z" fill="#4A4A4A"/><path fill-rule="evenodd" clip-rule="evenodd" d="M46.072 71.583c-.207-1.938-5.414-4.293-5.414-4.293-1.355-.84-.781-1.886-.781-1.886.834-1.833 5.207-.106 5.207-.106l.832-1.99c-2.317-1.755-5.275-1.39-5.275-1.39-3.636.419-4.178 2.892-4.178 2.892-.83 3.785 2.072 4.685 2.072 4.685 2.648 1.251 3.446 1.764 3.446 1.764 2.168 1.412.254 2.341.254 2.341-2.359 1.125-5.327-.416-5.327-.416l-.924 2.183c2.457 1.67 6.251.963 6.251.963 4.818-.707 3.837-4.747 3.837-4.747z" fill="#4A4A4A"/><path fill-rule="evenodd" clip-rule="evenodd" d="M50.427 62.253l-5.14 13.879 2.96.053 1.34-3.032h6.2l1.342 2.753h2.846l-5.36-13.653h-4.188zm.165 8.427l1.956-4.832 2.122 4.832h-4.078zm18.934.732l-5.75-9.046h-3.8v13.54l2.793.055v-8.876l6.143 9.271h3.519V62.42h-2.904v8.992zm15.414-2.923h-4.692v2.136h3.185v3.257c-2.179.843-4.467-.055-4.467-.055-4.525-3.031-2.068-6.798-2.068-6.798 2.794-4.383 9.44-1.685 9.44-1.685v-2.528c-8.1-2.642-11.563 1.797-11.563 1.797-4.578 6.348 1.117 10.508 1.117 10.508 5.586 3.483 10.949.447 10.949.447v-5c-.112-2.301-1.901-2.079-1.901-2.079zm53.124 0h-4.69v2.136h3.181v3.257c-2.179.843-4.468-.055-4.468-.055-4.525-3.031-2.067-6.798-2.067-6.798 2.793-4.383 9.439-1.685 9.439-1.685v-2.528c-8.099-2.642-11.561 1.797-11.561 1.797-4.58 6.348 1.115 10.508 1.115 10.508 5.587 3.483 10.949.447 10.949.447v-5c-.11-2.301-1.898-2.079-1.898-2.079z" fill="#4A4A4A"/><path fill-rule="evenodd" clip-rule="evenodd" d="M97.506 59.274l-4.301 7.192-4.3-7.02h-3.74l6.42 10.505-3.573 6.742h3.405l9.888-17.419h-3.8zm7.26 2.787c-4.053 0-7.338 3.307-7.338 7.385 0 4.078 3.285 7.383 7.338 7.383 4.054 0 7.343-3.305 7.343-7.383 0-4.078-3.289-7.385-7.343-7.385zm0 11.878c-2.467 0-4.465-2.012-4.465-4.494 0-1.191.47-2.334 1.308-3.177a4.454 4.454 0 013.159-1.316c1.184 0 2.32.473 3.158 1.316a4.506 4.506 0 011.308 3.177 4.507 4.507 0 01-1.309 3.178 4.453 4.453 0 01-3.159 1.316zm17.985-2.696l-5.753-8.933h-3.91v13.875l2.962-.053v-8.99l6.086 9.155h3.573V62.253h-2.958v8.99zm-3.385-54.873c-2.138-7.944-12.357-11.948-12.357-11.948-2.727-1.003-1.638.573-1.638.573S117.13 10.44 117.13 18.02c0 9.387-12.813 12.194-12.813 12.194 11.654-3.73 11.687-11.69 11.687-11.69-.205-7.958-10.633-13.528-10.633-13.528-4.02-2.294-6.201-2.869-6.201-2.869-5.248-1.768-3.546.288-3.546.288s15.832 5.018 15.832 16.088c0 11.306-22.067 14.939-22.067 14.939 20.75-3.873 20.754-14.846 20.754-14.846 0-9.883-14.519-16.181-14.519-16.181C93.444 1.22 89.746.258 89.746.258c-3.426-.735-1.483.77-1.483.77 13.905 8.175 13.905 17.21 13.905 17.21 0 10.04-9.15 12.55-9.15 12.55-2.659 1.04-7.803 1.872-7.803 1.872-.833.248-1.416.824-1.416 1.5 0 .272.066.542.264.756.502.54 2.193 1.805 2.193 1.805.606.573.96 1.283.96 2.051 0 1.885-2.155 3.415-4.831 3.45h-.197c-2.676-.035-4.832-1.564-4.832-3.45 0-.768.355-1.478.96-2.051 0 0 1.69-1.266 2.192-1.805.198-.214.266-.484.266-.757 0-.675-.584-1.252-1.416-1.5 0 0-5.145-.831-7.804-1.872 0 0-9.15-2.508-9.15-12.549 0 0 0-9.035 13.904-17.21 0 0 1.943-1.505-1.482-.77 0 0-3.698.962-5.878 2.157 0 0-14.518 6.297-14.518 16.181 0 0 .002 10.973 20.754 14.846 0 0-22.067-3.632-22.067-14.94 0-11.07 15.83-16.087 15.83-16.087s1.703-2.056-3.544-.288c0 0-2.182.574-6.203 2.87 0 0-10.429 5.57-10.633 13.528 0 0 .034 7.96 11.69 11.69 0 0-12.815-2.809-12.815-12.195 0-7.58 11.758-13.025 11.758-13.025s1.09-1.577-1.636-.573c0 0-10.22 4.005-12.358 11.948 0 0-.648 2.993.3 5.179 1.15 2.676 4.149 7.11 11.785 9.594 0 0 3.476 1.437 17.382 4.233l.819.188s.598.264.17.739l-1.916 1.656s-2.81 2.174 1.2 4.004c0 0 2.447.838 4.172 2.696 0 0 1.11 1.061 2.988 1.114v.008h.125l.014.002v-.002h.081v.002l.014-.002h.087v-.003c1.903-.041 3.026-1.12 3.026-1.12 1.725-1.857 4.17-2.695 4.17-2.695 4.011-1.83 1.2-4.004 1.2-4.004l-1.913-1.656c-.428-.475.17-.74.17-.74l.817-.187c13.905-2.796 17.383-4.233 17.383-4.233 7.636-2.484 10.634-6.917 11.785-9.594.949-2.186.301-5.179.301-5.179z" fill="#4A4A4A"/></svg>