<svg width="40" height="40" fill="none" xmlns="http://www.w3.org/2000/svg"><circle cx="20" cy="20" r="20" fill="#5969FF"/><path d="M15.823 20.92c.032.026.059.047.084.07.682.591 1.365 1.182 2.046 1.775.337.294.723.52 1.183.636.998.252 1.919.112 2.707-.484.467-.353.888-.753 1.328-1.133.33-.285.659-.572.978-.85l6.784 5.887a2.25 2.25 0 01-.967.256c-.06.003-.12.002-.179.002l-19.608.001c-.414 0-.798-.077-1.163-.278l6.807-5.882zm-1.364-1.161L8 25.339V14.13l6.459 5.629zm11.102-.02L32 14.125v11.2l-6.44-5.588zM8.723 12.44a2.24 2.24 0 011.041-.414c.14-.018.283-.023.425-.023 6.539-.001 13.078 0 19.617-.003.526 0 .995.125 1.408.407.01.007.021.014.03.022.005.003.008.01.014.019l-.066.06-10.472 9.087a1.06 1.06 0 01-1.023.234 1.064 1.064 0 01-.428-.24l-9.694-8.412-.852-.737z" fill="#fff"/></svg>