<svg width="40" height="40" fill="none" xmlns="http://www.w3.org/2000/svg"><circle cx="20" cy="20" r="20" fill="#5969FF"/><path d="M12.148 22.428l.046.07c.059.086.117.168.175.254l6.755 9.743a1.054 1.054 0 001.73 0l6.748-9.728c.062-.09.128-.18.19-.273l.043-.062a9.368 9.368 0 001.496-5.078C29.33 12.222 25.118 8 19.997 8c-5.12 0-9.333 4.222-9.333 9.354 0 1.801.52 3.565 1.495 5.078l-.011-.004zm7.844-8.964c2.133 0 3.889 1.76 3.889 3.897 0 2.139-1.756 3.898-3.89 3.898-2.133 0-3.888-1.76-3.888-3.898s1.755-3.897 3.889-3.897z" fill="#fff"/></svg>